Titillium Sans Pro-Regular.ufo
<glyph name="exclam" format="2">
	<advance width="229"/>
	<unicode hex="0021"/>
	<outline>
		<contour>
			<point x="73" y="109" type="line"/>
			<point x="73" y="0" type="line"/>
			<point x="155" y="0" type="line"/>
			<point x="155" y="109" type="line"/>
		</contour>
		<contour>
			<point x="75" y="700" type="line"/>
			<point x="80" y="228" type="line"/>
			<point x="149" y="228" type="line"/>
			<point x="154" y="700" type="line"/>
		</contour>
	</outline>
</glyph>
<glyph name="numbersign" format="2">
  <advance width="620"/>
  <unicode hex="0023"/>
  <outline>
    <contour>
      <point x="455" y="174" type="line"/>
      <point x="566" y="174" type="line"/>
      <point x="566" y="238" type="line"/>
      <point x="455" y="238" type="line"/>
      <point x="455" y="418" type="line"/>
      <point x="566" y="418" type="line"/>
      <point x="566" y="482" type="line"/>
      <point x="455" y="482" type="line"/>
      <point x="455" y="660" type="line"/>
      <point x="387" y="660" type="line"/>
      <point x="387" y="482" type="line"/>
      <point x="233" y="482" type="line"/>
      <point x="233" y="660" type="line"/>
      <point x="165" y="660" type="line"/>
      <point x="165" y="482" type="line"/>
      <point x="54" y="482" type="line"/>
      <point x="54" y="418" type="line"/>
      <point x="165" y="418" type="line"/>
      <point x="165" y="238" type="line"/>
      <point x="54" y="238" type="line"/>
      <point x="54" y="174" type="line"/>
      <point x="165" y="174" type="line"/>
      <point x="165" y="0" type="line"/>
      <point x="233" y="0" type="line"/>
      <point x="233" y="174" type="line"/>
      <point x="387" y="174" type="line"/>
      <point x="387" y="0" type="line"/>
      <point x="455" y="0" type="line"/>
    </contour>
    <contour>
      <point x="389" y="420" type="line"/>
      <point x="389" y="236" type="line"/>
      <point x="231" y="236" type="line"/>
      <point x="231" y="420" type="line"/>
    </contour>
  </outline>
</glyph>
<glyph name="dollar" format="2">
	<advance width="503"/>
	<unicode hex="0024"/>
	<outline>
		<contour>
			<point x="437" y="579" type="curve"/>
			<point x="442" y="639" type="line"/>
			<point x="442" y="639"/>
			<point x="383" y="647"/>
			<point x="322" y="653" type="curve"/>
			<point x="342" y="798" type="line"/>
			<point x="291" y="798" type="line"/>
			<point x="273" y="656" type="line"/>
			<point x="265" y="656"/>
			<point x="259" y="656"/>
			<point x="251" y="656" type="curve" smooth="yes"/>
			<point x="128" y="656"/>
			<point x="47" y="609"/>
			<point x="47" y="487" type="curve" smooth="yes"/>
			<point x="47" y="370"/>
			<point x="108" y="337"/>
			<point x="229" y="309" type="curve"/>
			<point x="197" y="69" type="line"/>
			<point x="134" y="72"/>
			<point x="60" y="83"/>
			<point x="60" y="83" type="curve"/>
			<point x="52" y="24" type="line"/>
			<point x="52" y="24"/>
			<point x="122" y="13"/>
			<point x="190" y="7" type="curve"/>
			<point x="173" y="-120" type="line"/>
			<point x="224" y="-120" type="line"/>
			<point x="239" y="4" type="line"/>
			<point x="243" y="4"/>
			<point x="248" y="4"/>
			<point x="253" y="4" type="curve" smooth="yes"/>
			<point x="379" y="4"/>
			<point x="456" y="60"/>
			<point x="456" y="199" type="curve" smooth="yes"/>
			<point x="456" y="307"/>
			<point x="403" y="340"/>
			<point x="286" y="367" type="curve"/>
			<point x="314" y="591" type="line"/>
			<point x="370" y="587"/>
			<point x="437" y="579"/>
		</contour>
		<contour>
			<point x="118" y="491" type="curve" smooth="yes"/>
			<point x="118" y="563"/>
			<point x="166" y="594"/>
			<point x="256" y="594" type="curve" smooth="yes"/>
			<point x="259" y="594"/>
			<point x="263" y="594"/>
			<point x="265" y="594" type="curve"/>
			<point x="238" y="378" type="line"/>
			<point x="153" y="398"/>
			<point x="118" y="418"/>
		</contour>
		<contour>
			<point x="385" y="194" type="curve" smooth="yes"/>
			<point x="385" y="106"/>
			<point x="339" y="67"/>
			<point x="252" y="67" type="curve" smooth="yes"/>
			<point x="250" y="67"/>
			<point x="249" y="67"/>
			<point x="247" y="67" type="curve"/>
			<point x="277" y="299" type="line"/>
			<point x="355" y="281"/>
			<point x="385" y="257"/>
		</contour>
	</outline>
</glyph>
<glyph name="ampersand" format="2">
	<advance width="678"/>
	<unicode hex="0026"/>
	<outline>
		<contour>
			<point x="315" y="710" type="curve" smooth="yes"/>
			<point x="202" y="710"/>
			<point x="141" y="656"/>
			<point x="141" y="543" type="curve" smooth="yes"/>
			<point x="141" y="504"/>
			<point x="148" y="465"/>
			<point x="198" y="408" type="curve"/>
			<point x="93" y="374"/>
			<point x="41" y="325"/>
			<point x="41" y="208" type="curve" smooth="yes"/>
			<point x="41" y="71"/>
			<point x="112" y="-10"/>
			<point x="280" y="-10" type="curve" smooth="yes"/>
			<point x="394" y="-10"/>
			<point x="458" y="28"/>
			<point x="504" y="104" type="curve"/>
			<point x="625" y="-9" type="line"/>
			<point x="672" y="43" type="line"/>
			<point x="543" y="165" type="line"/>
			<point x="562" y="212"/>
			<point x="580" y="304"/>
			<point x="587" y="374" type="curve"/>
			<point x="514" y="375" type="line"/>
			<point x="511" y="327"/>
			<point x="499" y="244"/>
			<point x="488" y="212" type="curve"/>
			<point x="336" y="365" type="line"/>
			<point x="444" y="415"/>
			<point x="488" y="457"/>
			<point x="488" y="552" type="curve" smooth="yes"/>
			<point x="488" y="651"/>
			<point x="430" y="710"/>
		</contour>
		<contour>
			<point x="284" y="58" type="curve" smooth="yes"/>
			<point x="175" y="58"/>
			<point x="119" y="110"/>
			<point x="119" y="213" type="curve" smooth="yes"/>
			<point x="119" y="296"/>
			<point x="154" y="334"/>
			<point x="241" y="361" type="curve"/>
			<point x="452" y="148" type="line"/>
			<point x="420" y="86"/>
			<point x="368" y="58"/>
		</contour>
		<contour>
			<point x="216" y="543" type="curve" smooth="yes"/>
			<point x="216" y="616"/>
			<point x="250" y="645"/>
			<point x="315" y="645" type="curve" smooth="yes"/>
			<point x="382" y="645"/>
			<point x="413" y="613"/>
			<point x="413" y="547" type="curve" smooth="yes"/>
			<point x="413" y="476"/>
			<point x="378" y="446"/>
			<point x="290" y="408" type="curve"/>
			<point x="261" y="436" type="line" smooth="yes"/>
			<point x="224" y="471"/>
			<point x="216" y="509"/>
		</contour>
	</outline>
</glyph>
<glyph name="quotesingle" format="2">
  <advance width="203"/>
  <unicode hex="0027"/>
  <outline>
    <contour>
      <point x="63" y="730" type="line"/>
      <point x="68" y="508" type="line"/>
      <point x="135" y="508" type="line"/>
      <point x="140" y="730" type="line"/>
    </contour>
  </outline>
</glyph>
<glyph name="parenleft" format="2">
	<advance width="265"/>
	<unicode hex="0028"/>
	<outline>
		<contour>
			<point x="227" y="750" type="curve"/>
			<point x="155" y="750" type="line"/>
			<point x="155" y="750"/>
			<point x="51" y="517"/>
			<point x="51" y="301" type="curve" smooth="yes"/>
			<point x="51" y="85"/>
			<point x="155" y="-125"/>
			<point x="155" y="-125" type="curve"/>
			<point x="227" y="-125" type="line"/>
			<point x="227" y="-125"/>
			<point x="132" y="110"/>
			<point x="132" y="301" type="curve" smooth="yes"/>
			<point x="132" y="494"/>
			<point x="227" y="750"/>
		</contour>
	</outline>
</glyph>
<glyph name="asterisk" format="2">
  <advance width="434"/>
  <unicode hex="002A"/>
  <outline>
    <contour>
      <point x="253" y="517" type="line"/>
      <point x="385" y="517" type="line"/>
      <point x="385" y="567" type="line"/>
      <point x="255" y="567" type="line"/>
      <point x="295" y="694" type="line"/>
      <point x="246" y="710" type="line"/>
      <point x="205" y="584" type="line"/>
      <point x="99" y="662" type="line"/>
      <point x="68" y="620" type="line"/>
      <point x="174" y="543" type="line"/>
      <point x="66" y="464" type="line"/>
      <point x="97" y="424" type="line"/>
      <point x="204" y="503" type="line"/>
      <point x="245" y="377" type="line"/>
      <point x="294" y="392" type="line"/>
    </contour>
  </outline>
</glyph>
<glyph name="plus" format="2">
	<advance width="560"/>
	<unicode hex="002B"/>
	<outline>
		<contour>
			<point x="55" y="319" type="line"/>
			<point x="55" y="251" type="line"/>
			<point x="245" y="251" type="line"/>
			<point x="245" y="53" type="line"/>
			<point x="315" y="53" type="line"/>
			<point x="315" y="251" type="line"/>
			<point x="505" y="251" type="line"/>
			<point x="505" y="319" type="line"/>
			<point x="315" y="319" type="line"/>
			<point x="315" y="517" type="line"/>
			<point x="245" y="517" type="line"/>
			<point x="245" y="319" type="line"/>
		</contour>
	</outline>
</glyph>
<glyph name="comma" format="2">
  <advance width="220"/>
  <unicode hex="002C"/>
  <outline>
    <contour>
      <point x="78" y="114" type="line"/>
      <point x="32" y="-123" type="line"/>
      <point x="94" y="-123" type="line"/>
      <point x="161" y="114" type="line"/>
    </contour>
  </outline>
</glyph>
<glyph name="period" format="2">
	<advance width="214"/>
	<unicode hex="002E"/>
	<outline>
		<contour>
			<point x="66" y="114" type="line"/>
			<point x="66" y="0" type="line"/>
			<point x="148" y="0" type="line"/>
			<point x="148" y="114" type="line"/>
		</contour>
	</outline>
</glyph>
<glyph name="slash" format="2">
	<advance width="383"/>
	<unicode hex="002F"/>
	<outline>
		<contour>
			<point x="299" y="710" type="line"/>
			<point x="17" y="14" type="line"/>
			<point x="84" y="-10" type="line"/>
			<point x="366" y="685" type="line"/>
		</contour>
	</outline>
</glyph>
<glyph name="zero" format="2">
  <advance width="601"/>
  <unicode hex="0030"/>
  <note>
zero
</note>
  <outline>
    <contour>
      <point x="300" y="671" type="curve" smooth="yes"/>
      <point x="148" y="671"/>
      <point x="60" y="591"/>
      <point x="60" y="319" type="curve" smooth="yes"/>
      <point x="60" y="63"/>
      <point x="150" y="-12"/>
      <point x="301" y="-12" type="curve" smooth="yes"/>
      <point x="452" y="-12"/>
      <point x="541" y="65"/>
      <point x="541" y="320" type="curve" smooth="yes"/>
      <point x="541" y="592"/>
      <point x="456" y="671"/>
    </contour>
    <contour>
      <point x="301" y="602" type="curve" smooth="yes"/>
      <point x="411" y="602"/>
      <point x="462" y="542"/>
      <point x="462" y="320" type="curve" smooth="yes"/>
      <point x="462" y="111"/>
      <point x="405" y="56"/>
      <point x="301" y="56" type="curve" smooth="yes"/>
      <point x="197" y="56"/>
      <point x="140" y="110"/>
      <point x="140" y="319" type="curve" smooth="yes"/>
      <point x="140" y="544"/>
      <point x="193" y="602"/>
    </contour>
  </outline>
</glyph>
<glyph name="one" format="2">
  <advance width="388"/>
  <unicode hex="0031"/>
  <note>
one
</note>
  <outline>
    <contour>
      <point x="229" y="660" type="line"/>
      <point x="19" y="520" type="line"/>
      <point x="52" y="461" type="line"/>
      <point x="224" y="574" type="line"/>
      <point x="224" y="0" type="line"/>
      <point x="301" y="0" type="line"/>
      <point x="301" y="660" type="line"/>
    </contour>
  </outline>
</glyph>
<glyph name="two" format="2">
	<advance width="520"/>
	<unicode hex="0032"/>
	<note>
		two
	</note>
	<outline>
		<contour>
			<point x="49" y="0" type="line"/>
			<point x="471" y="0" type="line"/>
			<point x="471" y="67" type="line"/>
			<point x="140" y="67" type="line"/>
			<point x="316" y="246" type="line" smooth="yes"/>
			<point x="407" y="338"/>
			<point x="454" y="394"/>
			<point x="454" y="493" type="curve" smooth="yes"/>
			<point x="454" y="617"/>
			<point x="384" y="670"/>
			<point x="245" y="670" type="curve" smooth="yes"/>
			<point x="149" y="670"/>
			<point x="54" y="643"/>
			<point x="54" y="643" type="curve"/>
			<point x="60" y="579" type="line"/>
			<point x="60" y="579"/>
			<point x="158" y="601"/>
			<point x="231" y="601" type="curve" smooth="yes"/>
			<point x="326" y="601"/>
			<point x="375" y="573"/>
			<point x="375" y="485" type="curve" smooth="yes"/>
			<point x="375" y="407"/>
			<point x="323" y="354"/>
			<point x="242" y="268" type="curve" smooth="yes"/>
			<point x="49" y="65" type="line"/>
		</contour>
	</outline>
</glyph>
<glyph name="three" format="2">
  <advance width="536"/>
  <unicode hex="0033"/>
  <note>
three
</note>
  <outline>
    <contour>
      <point x="57" y="643" type="curve"/>
      <point x="64" y="582" type="line"/>
      <point x="64" y="582"/>
      <point x="157" y="602"/>
      <point x="248" y="602" type="curve" smooth="yes"/>
      <point x="346" y="602"/>
      <point x="383" y="571"/>
      <point x="383" y="496" type="curve" smooth="yes"/>
      <point x="383" y="420"/>
      <point x="313" y="376"/>
      <point x="263" y="376" type="curve" smooth="yes"/>
      <point x="130" y="376" type="line"/>
      <point x="130" y="310" type="line"/>
      <point x="263" y="310" type="line" smooth="yes"/>
      <point x="338" y="310"/>
      <point x="399" y="277"/>
      <point x="399" y="186" type="curve" smooth="yes"/>
      <point x="399" y="99"/>
      <point x="354" y="57"/>
      <point x="256" y="56" type="curve" smooth="yes"/>
      <point x="162" y="56"/>
      <point x="54" y="78"/>
      <point x="54" y="78" type="curve"/>
      <point x="47" y="15" type="line"/>
      <point x="47" y="15"/>
      <point x="160" y="-12"/>
      <point x="264" y="-12" type="curve" smooth="yes"/>
      <point x="413" y="-12"/>
      <point x="478" y="54"/>
      <point x="478" y="189" type="curve" smooth="yes"/>
      <point x="478" y="296"/>
      <point x="431" y="325"/>
      <point x="364" y="349" type="curve"/>
      <point x="383" y="361"/>
      <point x="462" y="396"/>
      <point x="462" y="499" type="curve" smooth="yes"/>
      <point x="462" y="616"/>
      <point x="407" y="671"/>
      <point x="251" y="671" type="curve" smooth="yes"/>
      <point x="151" y="671"/>
      <point x="57" y="643"/>
    </contour>
  </outline>
</glyph>
<glyph name="four" format="2">
	<advance width="544"/>
	<unicode hex="0034"/>
	<note>
		four
	</note>
	<outline>
		<contour>
			<point x="353" y="129" type="line"/>
			<point x="353" y="0" type="line"/>
			<point x="430" y="0" type="line"/>
			<point x="430" y="129" type="line"/>
			<point x="514" y="129" type="line"/>
			<point x="514" y="197" type="line"/>
			<point x="430" y="197" type="line"/>
			<point x="430" y="403" type="line"/>
			<point x="353" y="403" type="line"/>
			<point x="353" y="197" type="line"/>
			<point x="114" y="197" type="line"/>
			<point x="305" y="660" type="line"/>
			<point x="221" y="660" type="line"/>
			<point x="33" y="189" type="line"/>
			<point x="33" y="129" type="line"/>
		</contour>
	</outline>
</glyph>
<glyph name="five" format="2">
	<advance width="550"/>
	<unicode hex="0035"/>
	<note>
		five
	</note>
	<outline>
		<contour>
			<point x="471" y="660" type="line"/>
			<point x="86" y="660" type="line"/>
			<point x="68" y="317" type="line"/>
			<point x="121" y="307" type="line"/>
			<point x="121" y="307"/>
			<point x="196" y="347"/>
			<point x="278" y="347" type="curve" smooth="yes"/>
			<point x="362" y="347"/>
			<point x="418" y="315"/>
			<point x="418" y="215" type="curve" smooth="yes"/>
			<point x="418" y="110"/>
			<point x="360" y="56"/>
			<point x="269" y="56" type="curve" smooth="yes"/>
			<point x="181" y="56"/>
			<point x="66" y="78"/>
			<point x="66" y="78" type="curve"/>
			<point x="57" y="17" type="line"/>
			<point x="57" y="17"/>
			<point x="175" y="-12"/>
			<point x="276" y="-12" type="curve" smooth="yes"/>
			<point x="414" y="-12"/>
			<point x="497" y="66"/>
			<point x="497" y="221" type="curve" smooth="yes"/>
			<point x="497" y="362"/>
			<point x="416" y="416"/>
			<point x="287" y="416" type="curve" smooth="yes"/>
			<point x="209" y="416"/>
			<point x="132" y="375"/>
			<point x="132" y="375" type="curve"/>
			<point x="150" y="590" type="line"/>
			<point x="471" y="590" type="line"/>
		</contour>
	</outline>
</glyph>
<glyph name="six" format="2">
	<advance width="575"/>
	<unicode hex="0036"/>
	<note>
		six
	</note>
	<outline>
		<contour>
			<point x="490" y="590" type="curve"/>
			<point x="497" y="653" type="line"/>
			<point x="497" y="653"/>
			<point x="400" y="670"/>
			<point x="316" y="670" type="curve" smooth="yes"/>
			<point x="159" y="670"/>
			<point x="58" y="572"/>
			<point x="58" y="333" type="curve" smooth="yes"/>
			<point x="58" y="111"/>
			<point x="131" y="-12"/>
			<point x="303" y="-12" type="curve" smooth="yes"/>
			<point x="442" y="-12"/>
			<point x="525" y="68"/>
			<point x="525" y="208" type="curve" smooth="yes"/>
			<point x="525" y="347"/>
			<point x="449" y="413"/>
			<point x="303" y="413" type="curve" smooth="yes"/>
			<point x="231" y="413"/>
			<point x="138" y="373"/>
			<point x="138" y="374" type="curve" smooth="yes"/>
			<point x="138" y="520"/>
			<point x="201" y="602"/>
			<point x="316" y="602" type="curve" smooth="yes"/>
			<point x="400" y="602"/>
			<point x="490" y="590"/>
		</contour>
		<contour>
			<point x="298" y="344" type="curve" smooth="yes"/>
			<point x="390" y="344"/>
			<point x="445" y="300"/>
			<point x="445" y="208" type="curve" smooth="yes"/>
			<point x="445" y="111"/>
			<point x="392" y="56"/>
			<point x="304" y="56" type="curve" smooth="yes"/>
			<point x="180" y="56"/>
			<point x="138" y="165"/>
			<point x="137" y="306" type="curve"/>
			<point x="137" y="306"/>
			<point x="221" y="344"/>
		</contour>
	</outline>
</glyph>
<glyph name="seven" format="2">
  <advance width="478"/>
  <unicode hex="0037"/>
  <note>
seven
</note>
  <outline>
    <contour>
      <point x="30" y="660" type="line"/>
      <point x="30" y="590" type="line"/>
      <point x="362" y="590" type="line"/>
      <point x="362" y="564" type="line"/>
      <point x="116" y="19" type="line"/>
      <point x="185" y="-12" type="line"/>
      <point x="440" y="559" type="line"/>
      <point x="440" y="660" type="line"/>
    </contour>
  </outline>
</glyph>
<glyph name="eight" format="2">
  <advance width="604"/>
  <unicode hex="0038"/>
  <note>
eight
</note>
  <outline>
    <contour>
      <point x="141" y="178" type="curve" smooth="yes"/>
      <point x="141" y="248"/>
      <point x="181" y="290"/>
      <point x="250" y="309" type="curve"/>
      <point x="354" y="309" type="line"/>
      <point x="423" y="290"/>
      <point x="463" y="248"/>
      <point x="463" y="178" type="curve" smooth="yes"/>
      <point x="463" y="94"/>
      <point x="404" y="58"/>
      <point x="302" y="58" type="curve" smooth="yes"/>
      <point x="200" y="58"/>
      <point x="141" y="94"/>
    </contour>
    <contour>
      <point x="59" y="174" type="curve" smooth="yes"/>
      <point x="59" y="50"/>
      <point x="138" y="-12"/>
      <point x="302" y="-12" type="curve" smooth="yes"/>
      <point x="466" y="-12"/>
      <point x="545" y="50"/>
      <point x="545" y="174" type="curve" smooth="yes"/>
      <point x="545" y="269"/>
      <point x="499" y="308"/>
      <point x="431" y="345" type="curve"/>
      <point x="500" y="379"/>
      <point x="534" y="418"/>
      <point x="534" y="500" type="curve" smooth="yes"/>
      <point x="534" y="613"/>
      <point x="444" y="671"/>
      <point x="302" y="671" type="curve" smooth="yes"/>
      <point x="160" y="671"/>
      <point x="70" y="613"/>
      <point x="70" y="500" type="curve" smooth="yes"/>
      <point x="70" y="418"/>
      <point x="104" y="379"/>
      <point x="173" y="345" type="curve"/>
      <point x="105" y="308"/>
      <point x="59" y="269"/>
    </contour>
    <contour>
      <point x="302" y="601" type="curve" smooth="yes"/>
      <point x="395" y="601"/>
      <point x="453" y="569"/>
      <point x="453" y="491" type="curve" smooth="yes"/>
      <point x="453" y="430"/>
      <point x="419" y="397"/>
      <point x="354" y="374" type="curve"/>
      <point x="250" y="374" type="line"/>
      <point x="185" y="397"/>
      <point x="151" y="430"/>
      <point x="151" y="491" type="curve" smooth="yes"/>
      <point x="151" y="569"/>
      <point x="209" y="601"/>
    </contour>
  </outline>
</glyph>
<glyph name="nine" format="2">
  <advance width="576"/>
  <unicode hex="0039"/>
  <note>
nine
</note>
  <outline>
    <contour>
      <point x="81" y="68" type="curve"/>
      <point x="74" y="6" type="line"/>
      <point x="74" y="6"/>
      <point x="171" y="-12"/>
      <point x="255" y="-12" type="curve" smooth="yes"/>
      <point x="418" y="-12"/>
      <point x="517" y="70"/>
      <point x="517" y="328" type="curve" smooth="yes"/>
      <point x="517" y="539"/>
      <point x="444" y="671"/>
      <point x="278" y="671" type="curve" smooth="yes"/>
      <point x="139" y="671"/>
      <point x="49" y="587"/>
      <point x="49" y="451" type="curve" smooth="yes"/>
      <point x="49" y="312"/>
      <point x="127" y="250"/>
      <point x="265" y="250" type="curve" smooth="yes"/>
      <point x="337" y="250"/>
      <point x="437" y="288"/>
      <point x="437" y="288" type="curve"/>
      <point x="436" y="130"/>
      <point x="376" y="56"/>
      <point x="255" y="56" type="curve" smooth="yes"/>
      <point x="171" y="56"/>
      <point x="81" y="68"/>
    </contour>
    <contour>
      <point x="271" y="318" type="curve" smooth="yes"/>
      <point x="179" y="318"/>
      <point x="129" y="358"/>
      <point x="129" y="451" type="curve" smooth="yes"/>
      <point x="129" y="545"/>
      <point x="185" y="603"/>
      <point x="278" y="603" type="curve" smooth="yes"/>
      <point x="394" y="603"/>
      <point x="436" y="499"/>
      <point x="438" y="354" type="curve"/>
      <point x="438" y="354"/>
      <point x="340" y="318"/>
    </contour>
  </outline>
</glyph>
<glyph name="equal" format="2">
  <advance width="560"/>
  <unicode hex="003D"/>
  <outline>
    <contour>
      <point x="75" y="346" type="line"/>
      <point x="485" y="346" type="line"/>
      <point x="485" y="414" type="line"/>
      <point x="75" y="414" type="line"/>
    </contour>
    <contour>
      <point x="75" y="156" type="line"/>
      <point x="485" y="156" type="line"/>
      <point x="485" y="224" type="line"/>
      <point x="75" y="224" type="line"/>
    </contour>
  </outline>
</glyph>
<glyph name="greater" format="2">
	<advance width="560"/>
	<unicode hex="003E"/>
	<outline>
		<contour>
			<point x="418" y="285" type="line"/>
			<point x="70" y="116" type="line"/>
			<point x="70" y="40" type="line"/>
			<point x="496" y="254" type="line"/>
			<point x="496" y="316" type="line"/>
			<point x="70" y="530" type="line"/>
			<point x="70" y="454" type="line"/>
		</contour>
	</outline>
</glyph>
<glyph name="question" format="2">
  <advance width="429"/>
  <unicode hex="003F"/>
  <outline>
    <contour>
      <point x="395" y="541" type="curve" smooth="yes"/>
      <point x="395" y="667"/>
      <point x="315" y="710"/>
      <point x="195" y="710" type="curve" smooth="yes"/>
      <point x="95" y="710"/>
      <point x="26" y="680"/>
      <point x="26" y="680" type="curve"/>
      <point x="31" y="619" type="line"/>
      <point x="31" y="619"/>
      <point x="116" y="642"/>
      <point x="190" y="642" type="curve" smooth="yes"/>
      <point x="262" y="642"/>
      <point x="319" y="623"/>
      <point x="319" y="541" type="curve" smooth="yes"/>
      <point x="319" y="496"/>
      <point x="302" y="465"/>
      <point x="230" y="403" type="curve" smooth="yes"/>
      <point x="177" y="358"/>
      <point x="137" y="319"/>
      <point x="137" y="270" type="curve" smooth="yes"/>
      <point x="137" y="236"/>
      <point x="150" y="209"/>
      <point x="150" y="209" type="curve"/>
      <point x="213" y="209" type="line"/>
      <point x="213" y="244" type="line" smooth="yes"/>
      <point x="213" y="289"/>
      <point x="243" y="320"/>
      <point x="302" y="369" type="curve" smooth="yes"/>
      <point x="380" y="434"/>
      <point x="395" y="485"/>
    </contour>
    <contour>
      <point x="144" y="109" type="line"/>
      <point x="144" y="0" type="line"/>
      <point x="226" y="0" type="line"/>
      <point x="226" y="109" type="line"/>
    </contour>
  </outline>
</glyph>
<glyph name="at" format="2">
	<advance width="986"/>
	<unicode hex="0040"/>
	<outline>
		<contour>
			<point x="932" y="292" type="curve" smooth="yes"/>
			<point x="932" y="305" type="line" smooth="yes"/>
			<point x="932" y="585"/>
			<point x="804" y="723"/>
			<point x="503" y="723" type="curve" smooth="yes"/>
			<point x="215" y="723"/>
			<point x="50" y="591"/>
			<point x="50" y="261" type="curve" smooth="yes"/>
			<point x="50" y="-100"/>
			<point x="207" y="-203"/>
			<point x="503" y="-203" type="curve" smooth="yes"/>
			<point x="555" y="-203"/>
			<point x="649" y="-194"/>
			<point x="649" y="-194" type="curve"/>
			<point x="646" y="-127" type="line"/>
			<point x="646" y="-127"/>
			<point x="547" y="-137"/>
			<point x="503" y="-137" type="curve" smooth="yes"/>
			<point x="240" y="-137"/>
			<point x="126" y="-35"/>
			<point x="126" y="261" type="curve" smooth="yes"/>
			<point x="126" y="540"/>
			<point x="250" y="657"/>
			<point x="503" y="657" type="curve" smooth="yes"/>
			<point x="757" y="657"/>
			<point x="856" y="550"/>
			<point x="856" y="306" type="curve" smooth="yes"/>
			<point x="856" y="292" type="line" smooth="yes"/>
			<point x="856" y="77"/>
			<point x="818" y="57"/>
			<point x="759" y="57" type="curve" smooth="yes"/>
			<point x="687" y="57"/>
			<point x="682" y="80"/>
			<point x="682" y="304" type="curve" smooth="yes"/>
			<point x="682" y="495" type="line"/>
			<point x="607" y="495" type="line"/>
			<point x="607" y="479" type="line"/>
			<point x="607" y="479"/>
			<point x="541" y="505"/>
			<point x="492" y="505" type="curve" smooth="yes"/>
			<point x="336" y="505"/>
			<point x="289" y="414"/>
			<point x="289" y="246" type="curve" smooth="yes"/>
			<point x="289" y="27"/>
			<point x="379" y="-5"/>
			<point x="465" y="-5" type="curve" smooth="yes"/>
			<point x="541" y="-5"/>
			<point x="639" y="54"/>
			<point x="639" y="54" type="curve"/>
			<point x="639" y="54"/>
			<point x="657" y="-6"/>
			<point x="757" y="-6" type="curve" smooth="yes"/>
			<point x="864" y="-6"/>
			<point x="932" y="35"/>
		</contour>
		<contour>
			<point x="470" y="61" type="curve" smooth="yes"/>
			<point x="419" y="61"/>
			<point x="365" y="89"/>
			<point x="365" y="244" type="curve" smooth="yes"/>
			<point x="365" y="372"/>
			<point x="390" y="439"/>
			<point x="504" y="439" type="curve" smooth="yes"/>
			<point x="547" y="439"/>
			<point x="607" y="419"/>
			<point x="607" y="419" type="curve"/>
			<point x="607" y="280" type="line" smooth="yes"/>
			<point x="607" y="203"/>
			<point x="614" y="119"/>
			<point x="616" y="107" type="curve"/>
			<point x="607" y="103"/>
			<point x="523" y="61"/>
		</contour>
	</outline>
</glyph>
<glyph name="A" format="2">
  <advance width="602"/>
  <unicode hex="0041"/>
  <note>
A
</note>
  <anchor x="298" y="0" name="bottom"/>
  <anchor x="578" y="0" name="ogonek"/>
  <anchor x="298" y="700" name="top"/>
  <outline>
    <contour>
      <point x="313" y="626" type="line"/>
      <point x="423" y="255" type="line"/>
      <point x="173" y="255" type="line"/>
      <point x="283" y="626" type="line"/>
    </contour>
    <contour>
      <point x="24" y="0" type="line"/>
      <point x="98" y="0" type="line"/>
      <point x="153" y="187" type="line"/>
      <point x="443" y="187" type="line"/>
      <point x="498" y="0" type="line"/>
      <point x="578" y="0" type="line"/>
      <point x="370" y="700" type="line"/>
      <point x="232" y="700" type="line"/>
    </contour>
  </outline>
</glyph>
<glyph name="B" format="2">
	<advance width="622"/>
	<unicode hex="0042"/>
	<anchor x="303" y="0" name="bottom"/>
	<anchor x="303" y="350" name="center"/>
	<anchor x="303" y="700" name="top"/>
	<note>
		B
	</note>
	<outline>
		<contour>
			<point x="336" y="700" type="curve" smooth="yes"/>
			<point x="85" y="700" type="line"/>
			<point x="85" y="0" type="line"/>
			<point x="349" y="0" type="line" smooth="yes"/>
			<point x="479" y="0"/>
			<point x="571" y="55"/>
			<point x="571" y="195" type="curve" smooth="yes"/>
			<point x="571" y="306"/>
			<point x="514" y="340"/>
			<point x="453" y="361" type="curve"/>
			<point x="509" y="387"/>
			<point x="544" y="431"/>
			<point x="544" y="519" type="curve" smooth="yes"/>
			<point x="544" y="647"/>
			<point x="471" y="700"/>
		</contour>
		<contour>
			<point x="163" y="325" type="line"/>
			<point x="341" y="325" type="line" smooth="yes"/>
			<point x="424" y="325"/>
			<point x="489" y="291"/>
			<point x="489" y="192" type="curve" smooth="yes"/>
			<point x="489" y="97"/>
			<point x="430" y="68"/>
			<point x="346" y="68" type="curve" smooth="yes"/>
			<point x="163" y="68" type="line"/>
		</contour>
		<contour>
			<point x="163" y="632" type="line"/>
			<point x="333" y="632" type="line" smooth="yes"/>
			<point x="421" y="632"/>
			<point x="464" y="598"/>
			<point x="464" y="512" type="curve" smooth="yes"/>
			<point x="464" y="431"/>
			<point x="427" y="391"/>
			<point x="340" y="391" type="curve" smooth="yes"/>
			<point x="163" y="391" type="line"/>
		</contour>
	</outline>
</glyph>
<glyph name="C" format="2">
  <advance width="541"/>
  <unicode hex="0043"/>
  <note>
C
</note>
  <anchor x="326" y="0" name="bottom"/>
  <anchor x="326" y="700" name="top"/>
  <outline>
    <contour>
      <point x="505" y="9" type="curve"/>
      <point x="502" y="75" type="line"/>
      <point x="454" y="66"/>
      <point x="376" y="57"/>
      <point x="321" y="57" type="curve" smooth="yes"/>
      <point x="159" y="57"/>
      <point x="138" y="161"/>
      <point x="138" y="344" type="curve" smooth="yes"/>
      <point x="138" y="565"/>
      <point x="168" y="645"/>
      <point x="316" y="645" type="curve" smooth="yes"/>
      <point x="376" y="645"/>
      <point x="454" y="631"/>
      <point x="499" y="621" type="curve"/>
      <point x="502" y="686" type="line"/>
      <point x="458" y="697"/>
      <point x="385" y="714"/>
      <point x="308" y="714" type="curve" smooth="yes"/>
      <point x="106" y="714"/>
      <point x="58" y="587"/>
      <point x="58" y="344" type="curve" smooth="yes"/>
      <point x="58" y="111"/>
      <point x="103" y="-12"/>
      <point x="314" y="-12" type="curve" smooth="yes"/>
      <point x="379" y="-12"/>
      <point x="456" y="-1"/>
    </contour>
  </outline>
</glyph>
<glyph name="D" format="2">
  <advance width="644"/>
  <unicode hex="0044"/>
  <note>
D
</note>
  <anchor x="299" y="0" name="bottom"/>
  <anchor x="122" y="354" name="center"/>
  <anchor x="299" y="700" name="top"/>
  <outline>
    <contour>
      <point x="85" y="0" type="line"/>
      <point x="332" y="0" type="line" smooth="yes"/>
      <point x="536" y="0"/>
      <point x="588" y="161"/>
      <point x="588" y="360" type="curve" smooth="yes"/>
      <point x="588" y="563"/>
      <point x="533" y="700"/>
      <point x="332" y="700" type="curve" smooth="yes"/>
      <point x="85" y="700" type="line"/>
    </contour>
    <contour>
      <point x="508" y="360" type="curve" smooth="yes"/>
      <point x="508" y="206"/>
      <point x="476" y="68"/>
      <point x="332" y="68" type="curve" smooth="yes"/>
      <point x="163" y="68" type="line"/>
      <point x="163" y="632" type="line"/>
      <point x="332" y="632" type="line" smooth="yes"/>
      <point x="476" y="632"/>
      <point x="508" y="514"/>
    </contour>
  </outline>
</glyph>
<glyph name="E" format="2">
  <advance width="554"/>
  <unicode hex="0045"/>
  <note>
E
</note>
  <anchor x="298" y="0" name="bottom"/>
  <anchor x="466" y="0" name="ogonek"/>
  <anchor x="298" y="700" name="top"/>
  <anchor x="20" y="700" name="topleft"/>
  <outline>
    <contour>
      <point x="85" y="700" type="line"/>
      <point x="85" y="0" type="line"/>
      <point x="506" y="0" type="line"/>
      <point x="506" y="68" type="line"/>
      <point x="163" y="68" type="line"/>
      <point x="163" y="323" type="line"/>
      <point x="446" y="323" type="line"/>
      <point x="446" y="389" type="line"/>
      <point x="163" y="389" type="line"/>
      <point x="163" y="632" type="line"/>
      <point x="506" y="632" type="line"/>
      <point x="506" y="700" type="line"/>
    </contour>
  </outline>
</glyph>
<glyph name="F" format="2">
	<advance width="527"/>
	<unicode hex="0046"/>
	<anchor x="307" y="0" name="bottom"/>
	<anchor x="307" y="700" name="top"/>
	<note>
		F
	</note>
	<outline>
		<contour>
			<point x="85" y="700" type="line"/>
			<point x="85" y="0" type="line"/>
			<point x="163" y="0" type="line"/>
			<point x="163" y="295" type="line"/>
			<point x="447" y="295" type="line"/>
			<point x="447" y="363" type="line"/>
			<point x="163" y="363" type="line"/>
			<point x="163" y="632" type="line"/>
			<point x="499" y="632" type="line"/>
			<point x="499" y="700" type="line"/>
		</contour>
	</outline>
</glyph>
<glyph name="G" format="2">
  <advance width="617"/>
  <unicode hex="0047"/>
  <note>
G
</note>
  <anchor x="339" y="0" name="bottom"/>
  <anchor x="339" y="700" name="top"/>
  <outline>
    <contour>
      <point x="360" y="354" type="line"/>
      <point x="360" y="286" type="line"/>
      <point x="475" y="286" type="line"/>
      <point x="475" y="71" type="line"/>
      <point x="449" y="66"/>
      <point x="372" y="57"/>
      <point x="322" y="57" type="curve" smooth="yes"/>
      <point x="162" y="57"/>
      <point x="138" y="151"/>
      <point x="138" y="344" type="curve" smooth="yes"/>
      <point x="138" y="544"/>
      <point x="156" y="645"/>
      <point x="316" y="645" type="curve" smooth="yes"/>
      <point x="407" y="645"/>
      <point x="548" y="618"/>
      <point x="548" y="618" type="curve"/>
      <point x="551" y="682" type="line"/>
      <point x="551" y="682"/>
      <point x="414" y="714"/>
      <point x="309" y="714" type="curve" smooth="yes"/>
      <point x="101" y="714"/>
      <point x="58" y="578"/>
      <point x="58" y="344" type="curve" smooth="yes"/>
      <point x="58" y="111"/>
      <point x="104" y="-12"/>
      <point x="316" y="-12" type="curve" smooth="yes"/>
      <point x="392" y="-12"/>
      <point x="530" y="8"/>
      <point x="551" y="12" type="curve"/>
      <point x="551" y="354" type="line"/>
    </contour>
  </outline>
</glyph>
<glyph name="H" format="2">
  <advance width="675"/>
  <unicode hex="0048"/>
  <note>
H
</note>
  <anchor x="338" y="0" name="bottom"/>
  <anchor x="338" y="547" name="center"/>
  <anchor x="338" y="700" name="top"/>
  <anchor x="20" y="700" name="topleft"/>
  <outline>
    <contour>
      <point x="512" y="321" type="line"/>
      <point x="512" y="0" type="line"/>
      <point x="590" y="0" type="line"/>
      <point x="590" y="700" type="line"/>
      <point x="512" y="700" type="line"/>
      <point x="512" y="391" type="line"/>
      <point x="163" y="391" type="line"/>
      <point x="163" y="700" type="line"/>
      <point x="85" y="700" type="line"/>
      <point x="85" y="0" type="line"/>
      <point x="163" y="0" type="line"/>
      <point x="163" y="321" type="line"/>
    </contour>
  </outline>
</glyph>
<glyph name="I" format="2">
  <advance width="248"/>
  <unicode hex="0049"/>
  <note>
I
</note>
  <anchor x="124" y="0" name="bottom"/>
  <anchor x="163" y="0" name="ogonek"/>
  <anchor x="124" y="353" name="stroke"/>
  <anchor x="124" y="700" name="top"/>
  <anchor x="20" y="700" name="topleft"/>
  <outline>
    <contour>
      <point x="85" y="700" type="line"/>
      <point x="85" y="0" type="line"/>
      <point x="163" y="0" type="line"/>
      <point x="163" y="700" type="line"/>
    </contour>
  </outline>
</glyph>
<glyph name="J" format="2">
  <advance width="290"/>
  <unicode hex="004A"/>
  <note>
J
</note>
  <anchor x="142" y="0" name="bottom"/>
  <anchor x="169" y="700" name="top"/>
  <outline>
    <contour>
      <point x="208" y="155" type="curve" smooth="yes"/>
      <point x="207" y="700" type="line"/>
      <point x="130" y="700" type="line"/>
      <point x="130" y="157" type="line" smooth="yes"/>
      <point x="130" y="63"/>
      <point x="108" y="58"/>
      <point x="17" y="58" type="curve"/>
      <point x="17" y="-12" type="line"/>
      <point x="149" y="-12"/>
      <point x="208" y="5"/>
    </contour>
  </outline>
</glyph>
<glyph name="K" format="2">
	<advance width="567"/>
	<unicode hex="004B"/>
	<anchor x="301" y="0" name="bottom"/>
	<anchor x="291" y="700" name="top"/>
	<note>
		K
	</note>
	<outline>
		<contour>
			<point x="277" y="312" type="line"/>
			<point x="461" y="0" type="line"/>
			<point x="552" y="0" type="line"/>
			<point x="343" y="350" type="line"/>
			<point x="541" y="700" type="line"/>
			<point x="453" y="700" type="line"/>
			<point x="276" y="380" type="line"/>
			<point x="163" y="376" type="line"/>
			<point x="163" y="700" type="line"/>
			<point x="85" y="700" type="line"/>
			<point x="85" y="0" type="line"/>
			<point x="163" y="0" type="line"/>
			<point x="163" y="308" type="line"/>
		</contour>
	</outline>
</glyph>
<glyph name="L" format="2">
  <advance width="480"/>
  <unicode hex="004C"/>
  <note>
L
</note>
  <anchor x="279" y="0" name="bottom"/>
  <anchor x="122" y="350" name="center"/>
  <anchor x="124" y="700" name="top"/>
  <anchor x="279" y="700" name="topright"/>
  <outline>
    <contour>
      <point x="85" y="0" type="line"/>
      <point x="466" y="0" type="line"/>
      <point x="466" y="70" type="line"/>
      <point x="163" y="70" type="line"/>
      <point x="163" y="700" type="line"/>
      <point x="85" y="700" type="line"/>
    </contour>
  </outline>
</glyph>
<glyph name="M" format="2">
  <advance width="838"/>
  <unicode hex="004D"/>
  <note>
M
</note>
  <anchor x="419" y="0" name="bottom"/>
  <anchor x="419" y="700" name="top"/>
  <outline>
    <contour>
      <point x="85" y="700" type="line"/>
      <point x="85" y="0" type="line"/>
      <point x="159" y="0" type="line"/>
      <point x="159" y="626" type="line"/>
      <point x="189" y="626" type="line"/>
      <point x="370" y="0" type="line"/>
      <point x="458" y="0" type="line"/>
      <point x="645" y="626" type="line"/>
      <point x="675" y="626" type="line"/>
      <point x="675" y="0" type="line"/>
      <point x="753" y="0" type="line"/>
      <point x="753" y="700" type="line"/>
      <point x="597" y="700" type="line"/>
      <point x="417" y="83" type="line"/>
      <point x="243" y="700" type="line"/>
    </contour>
  </outline>
</glyph>
<glyph name="N" format="2">
  <advance width="679"/>
  <unicode hex="004E"/>
  <note>
N
</note>
  <anchor x="340" y="0" name="bottom"/>
  <anchor x="364" y="700" name="top"/>
  <outline>
    <contour>
      <point x="85" y="700" type="line"/>
      <point x="85" y="0" type="line"/>
      <point x="163" y="0" type="line"/>
      <point x="163" y="626" type="line"/>
      <point x="193" y="626" type="line"/>
      <point x="435" y="0" type="line"/>
      <point x="594" y="0" type="line"/>
      <point x="594" y="700" type="line"/>
      <point x="516" y="700" type="line"/>
      <point x="516" y="74" type="line"/>
      <point x="486" y="74" type="line"/>
      <point x="244" y="700" type="line"/>
    </contour>
  </outline>
</glyph>
<glyph name="O" format="2">
	<advance width="661"/>
	<unicode hex="004F"/>
	<anchor x="331" y="0" name="bottom"/>
	<anchor x="331" y="350" name="center"/>
	<anchor x="396" y="0" name="ogonek"/>
	<anchor x="331" y="700" name="top"/>
	<anchor x="20" y="700" name="topleft"/>
	<anchor x="642" y="700" name="topright"/>
	<note>
		O
	</note>
	<outline>
		<contour>
			<point x="330" y="57" type="curve" smooth="yes"/>
			<point x="170" y="57"/>
			<point x="137" y="156"/>
			<point x="137" y="345" type="curve" smooth="yes"/>
			<point x="137" y="539"/>
			<point x="171" y="645"/>
			<point x="330" y="645" type="curve" smooth="yes"/>
			<point x="488" y="645"/>
			<point x="524" y="538"/>
			<point x="524" y="345" type="curve" smooth="yes"/>
			<point x="524" y="150"/>
			<point x="491" y="57"/>
		</contour>
		<contour>
			<point x="330" y="-12" type="curve" smooth="yes"/>
			<point x="545" y="-12"/>
			<point x="604" y="107"/>
			<point x="604" y="345" type="curve" smooth="yes"/>
			<point x="604" y="581"/>
			<point x="544" y="714"/>
			<point x="330" y="714" type="curve" smooth="yes"/>
			<point x="116" y="714"/>
			<point x="57" y="579"/>
			<point x="57" y="345" type="curve" smooth="yes"/>
			<point x="57" y="113"/>
			<point x="115" y="-12"/>
		</contour>
	</outline>
</glyph>
<glyph name="P" format="2">
  <advance width="596"/>
  <unicode hex="0050"/>
  <note>
P
</note>
  <anchor x="301" y="0" name="bottom"/>
  <anchor x="301" y="700" name="top"/>
  <outline>
    <contour>
      <point x="163" y="233" type="line"/>
      <point x="338" y="233" type="line" smooth="yes"/>
      <point x="489" y="233"/>
      <point x="559" y="318"/>
      <point x="559" y="473" type="curve" smooth="yes"/>
      <point x="559" y="627"/>
      <point x="489" y="700"/>
      <point x="338" y="700" type="curve" smooth="yes"/>
      <point x="85" y="700" type="line"/>
      <point x="85" y="0" type="line"/>
      <point x="163" y="0" type="line"/>
    </contour>
    <contour>
      <point x="337" y="301" type="curve" smooth="yes"/>
      <point x="163" y="301" type="line"/>
      <point x="163" y="632" type="line"/>
      <point x="337" y="632" type="line" smooth="yes"/>
      <point x="438" y="632"/>
      <point x="479" y="583"/>
      <point x="479" y="473" type="curve" smooth="yes"/>
      <point x="479" y="362"/>
      <point x="438" y="301"/>
    </contour>
  </outline>
</glyph>
<glyph name="Q" format="2">
	<advance width="661"/>
	<unicode hex="0051"/>
	<note>
		Q
	</note>
	<outline>
		<contour>
			<point x="330" y="59" type="curve" smooth="yes"/>
			<point x="170" y="59"/>
			<point x="137" y="158"/>
			<point x="137" y="345" type="curve" smooth="yes"/>
			<point x="137" y="539"/>
			<point x="171" y="645"/>
			<point x="330" y="645" type="curve" smooth="yes"/>
			<point x="488" y="645"/>
			<point x="524" y="538"/>
			<point x="524" y="345" type="curve" smooth="yes"/>
			<point x="524" y="152"/>
			<point x="491" y="59"/>
		</contour>
		<contour>
			<point x="57" y="345" type="curve" smooth="yes"/>
			<point x="57" y="115"/>
			<point x="115" y="-10"/>
			<point x="330" y="-10" type="curve" smooth="yes"/>
			<point x="362" y="-10"/>
			<point x="391" y="-7"/>
			<point x="417" y="-2" type="curve"/>
			<point x="506" y="-149" type="line"/>
			<point x="571" y="-108" type="line"/>
			<point x="491" y="26" type="line"/>
			<point x="576" y="77"/>
			<point x="604" y="184"/>
			<point x="604" y="345" type="curve" smooth="yes"/>
			<point x="604" y="581"/>
			<point x="544" y="714"/>
			<point x="330" y="714" type="curve" smooth="yes"/>
			<point x="116" y="714"/>
			<point x="57" y="579"/>
		</contour>
	</outline>
</glyph>
<glyph name="R" format="2">
  <advance width="616"/>
  <unicode hex="0052"/>
  <note>
R
</note>
  <anchor x="309" y="0" name="bottom"/>
  <anchor x="306" y="700" name="top"/>
  <outline>
    <contour>
      <point x="482" y="487" type="curve" smooth="yes"/>
      <point x="482" y="395"/>
      <point x="446" y="333"/>
      <point x="342" y="333" type="curve" smooth="yes"/>
      <point x="163" y="333" type="line"/>
      <point x="163" y="632" type="line"/>
      <point x="341" y="632" type="line" smooth="yes"/>
      <point x="438" y="632"/>
      <point x="482" y="585"/>
    </contour>
    <contour>
      <point x="163" y="265" type="line"/>
      <point x="358" y="265" type="line"/>
      <point x="483" y="0" type="line"/>
      <point x="568" y="0" type="line"/>
      <point x="435" y="281" type="line"/>
      <point x="522" y="309"/>
      <point x="562" y="380"/>
      <point x="562" y="487" type="curve" smooth="yes"/>
      <point x="562" y="636"/>
      <point x="486" y="700"/>
      <point x="341" y="700" type="curve" smooth="yes"/>
      <point x="85" y="700" type="line"/>
      <point x="85" y="0" type="line"/>
      <point x="163" y="0" type="line"/>
    </contour>
  </outline>
</glyph>
<glyph name="S" format="2">
	<advance width="543"/>
	<unicode hex="0053"/>
	<anchor x="251" y="0" name="bottom"/>
	<anchor x="277" y="700" name="top"/>
	<note>
		S
	</note>
	<outline>
		<contour>
			<point x="471" y="622" type="curve"/>
			<point x="478" y="687" type="line"/>
			<point x="478" y="687"/>
			<point x="365" y="714"/>
			<point x="271" y="714" type="curve" smooth="yes"/>
			<point x="138" y="714"/>
			<point x="50" y="662"/>
			<point x="50" y="520" type="curve" smooth="yes"/>
			<point x="50" y="416"/>
			<point x="97" y="373"/>
			<point x="202" y="342" type="curve" smooth="yes"/>
			<point x="309" y="310" type="line" smooth="yes"/>
			<point x="396" y="284"/>
			<point x="419" y="260"/>
			<point x="419" y="196" type="curve" smooth="yes"/>
			<point x="419" y="100"/>
			<point x="369" y="56"/>
			<point x="269" y="56" type="curve" smooth="yes"/>
			<point x="198" y="56"/>
			<point x="62" y="76"/>
			<point x="62" y="76" type="curve"/>
			<point x="54" y="11" type="line"/>
			<point x="54" y="11"/>
			<point x="191" y="-12"/>
			<point x="273" y="-12" type="curve" smooth="yes"/>
			<point x="412" y="-12"/>
			<point x="496" y="49"/>
			<point x="496" y="202" type="curve" smooth="yes"/>
			<point x="496" y="304"/>
			<point x="458" y="346"/>
			<point x="340" y="381" type="curve" smooth="yes"/>
			<point x="233" y="413" type="line" smooth="yes"/>
			<point x="159" y="435"/>
			<point x="127" y="453"/>
			<point x="127" y="522" type="curve" smooth="yes"/>
			<point x="127" y="610"/>
			<point x="180" y="646"/>
			<point x="276" y="646" type="curve" smooth="yes"/>
			<point x="352" y="646"/>
			<point x="471" y="622"/>
		</contour>
	</outline>
</glyph>
<glyph name="T" format="2">
	<advance width="526"/>
	<unicode hex="0054"/>
	<anchor x="263" y="0" name="bottom"/>
	<anchor x="263" y="340" name="center"/>
	<anchor x="263" y="700" name="top"/>
	<note>
		T
	</note>
	<outline>
		<contour>
			<point x="14" y="700" type="line"/>
			<point x="14" y="630" type="line"/>
			<point x="224" y="630" type="line"/>
			<point x="224" y="0" type="line"/>
			<point x="302" y="0" type="line"/>
			<point x="302" y="630" type="line"/>
			<point x="512" y="630" type="line"/>
			<point x="512" y="700" type="line"/>
		</contour>
	</outline>
</glyph>
<glyph name="U" format="2">
  <advance width="646"/>
  <unicode hex="0055"/>
  <note>
U
</note>
  <anchor x="323" y="0" name="bottom"/>
  <anchor x="407" y="0" name="ogonek"/>
  <anchor x="323" y="700" name="top"/>
  <anchor x="620" y="700" name="topright"/>
  <outline>
    <contour>
      <point x="159" y="206" type="curve" smooth="yes"/>
      <point x="159" y="700" type="line"/>
      <point x="81" y="700" type="line"/>
      <point x="81" y="208" type="line" smooth="yes"/>
      <point x="81" y="49"/>
      <point x="168" y="-12"/>
      <point x="320" y="-12" type="curve" smooth="yes"/>
      <point x="478" y="-12"/>
      <point x="565" y="50"/>
      <point x="565" y="208" type="curve" smooth="yes"/>
      <point x="565" y="700" type="line"/>
      <point x="487" y="700" type="line"/>
      <point x="487" y="206" type="line" smooth="yes"/>
      <point x="487" y="98"/>
      <point x="428" y="57"/>
      <point x="320" y="57" type="curve" smooth="yes"/>
      <point x="218" y="57"/>
      <point x="159" y="98"/>
    </contour>
  </outline>
</glyph>
<glyph name="V" format="2">
	<advance width="593"/>
	<unicode hex="0056"/>
	<anchor x="296" y="0" name="bottom"/>
	<anchor x="296" y="700" name="top"/>
	<note>
		V
	</note>
	<outline>
		<contour>
			<point x="568" y="700" type="line"/>
			<point x="494" y="700" type="line"/>
			<point x="313" y="74" type="line"/>
			<point x="283" y="74" type="line"/>
			<point x="104" y="700" type="line"/>
			<point x="25" y="700" type="line"/>
			<point x="228" y="0" type="line"/>
			<point x="364" y="0" type="line"/>
		</contour>
	</outline>
</glyph>
<glyph name="W" format="2">
	<advance width="889"/>
	<unicode hex="0057"/>
	<anchor x="444" y="0" name="bottom"/>
	<anchor x="444" y="700" name="top"/>
	<note>
		W
	</note>
	<outline>
		<contour>
			<point x="113" y="700" type="line"/>
			<point x="35" y="700" type="line"/>
			<point x="177" y="0" type="line"/>
			<point x="311" y="0" type="line"/>
			<point x="444" y="590" type="line"/>
			<point x="579" y="0" type="line"/>
			<point x="713" y="0" type="line"/>
			<point x="854" y="700" type="line"/>
			<point x="780" y="700" type="line"/>
			<point x="663" y="74" type="line"/>
			<point x="633" y="74" type="line"/>
			<point x="491" y="685" type="line"/>
			<point x="401" y="685" type="line"/>
			<point x="261" y="74" type="line"/>
			<point x="231" y="74" type="line"/>
		</contour>
	</outline>
</glyph>
<glyph name="X" format="2">
  <advance width="575"/>
  <unicode hex="0058"/>
  <note>
X
</note>
  <outline>
    <contour>
      <point x="22" y="0" type="line"/>
      <point x="107" y="0" type="line"/>
      <point x="284" y="292" type="line"/>
      <point x="462" y="0" type="line"/>
      <point x="550" y="0" type="line"/>
      <point x="331" y="348" type="line"/>
      <point x="553" y="700" type="line"/>
      <point x="468" y="700" type="line"/>
      <point x="292" y="408" type="line"/>
      <point x="113" y="700" type="line"/>
      <point x="25" y="700" type="line"/>
      <point x="244" y="352" type="line"/>
    </contour>
  </outline>
</glyph>
<glyph name="Y" format="2">
  <advance width="552"/>
  <unicode hex="0059"/>
  <note>
Y
</note>
  <anchor x="277" y="0" name="bottom"/>
  <anchor x="277" y="700" name="top"/>
  <anchor x="27" y="700" name="topleft"/>
  <outline>
    <contour>
      <point x="237" y="0" type="line"/>
      <point x="315" y="0" type="line"/>
      <point x="315" y="294" type="line"/>
      <point x="535" y="700" type="line"/>
      <point x="451" y="700" type="line"/>
      <point x="277" y="367" type="line"/>
      <point x="101" y="700" type="line"/>
      <point x="17" y="700" type="line"/>
      <point x="237" y="294" type="line"/>
    </contour>
  </outline>
</glyph>
<glyph name="Z" format="2">
  <advance width="544"/>
  <unicode hex="005A"/>
  <note>
Z
</note>
  <anchor x="273" y="0" name="bottom"/>
  <anchor x="215" y="350" name="center"/>
  <anchor x="273" y="700" name="top"/>
  <outline>
    <contour>
      <point x="47" y="700" type="line"/>
      <point x="47" y="632" type="line"/>
      <point x="419" y="632" type="line"/>
      <point x="419" y="607" type="line"/>
      <point x="47" y="107" type="line"/>
      <point x="47" y="0" type="line"/>
      <point x="497" y="0" type="line"/>
      <point x="497" y="70" type="line"/>
      <point x="125" y="70" type="line"/>
      <point x="125" y="95" type="line"/>
      <point x="497" y="595" type="line"/>
      <point x="497" y="700" type="line"/>
    </contour>
  </outline>
</glyph>
<glyph name="bracketleft" format="2">
	<advance width="327"/>
	<unicode hex="005B"/>
	<outline>
		<contour>
			<point x="294" y="681" type="line"/>
			<point x="294" y="748" type="line"/>
			<point x="84" y="748" type="line"/>
			<point x="84" y="-123" type="line"/>
			<point x="294" y="-123" type="line"/>
			<point x="294" y="-56" type="line"/>
			<point x="160" y="-56" type="line"/>
			<point x="160" y="681" type="line"/>
		</contour>
	</outline>
</glyph>
<glyph name="asciicircum" format="2">
  <advance width="560"/>
  <unicode hex="005E"/>
  <outline>
    <contour>
      <point x="279" y="586" type="line"/>
      <point x="422" y="319" type="line"/>
      <point x="502" y="319" type="line"/>
      <point x="311" y="660" type="line"/>
      <point x="244" y="660" type="line"/>
      <point x="59" y="319" type="line"/>
      <point x="139" y="319" type="line"/>
    </contour>
  </outline>
</glyph>
<glyph name="underscore" format="2">
	<advance width="560"/>
	<unicode hex="005F"/>
	<outline>
		<contour>
			<point x="60" y="-42" type="line"/>
			<point x="60" y="-108" type="line"/>
			<point x="500" y="-108" type="line"/>
			<point x="500" y="-42" type="line"/>
		</contour>
	</outline>
</glyph>
<glyph name="a" format="2">
  <advance width="504"/>
  <unicode hex="0061"/>
  <note>
a
</note>
  <anchor x="248" y="0" name="bottom"/>
  <anchor x="467" y="0" name="ogonek"/>
  <anchor x="239" y="500" name="top"/>
  <outline>
    <contour>
      <point x="424" y="91" type="curve" smooth="yes"/>
      <point x="424" y="353" type="line" smooth="yes"/>
      <point x="424" y="462"/>
      <point x="375" y="514"/>
      <point x="262" y="514" type="curve" smooth="yes"/>
      <point x="176" y="514"/>
      <point x="66" y="492"/>
      <point x="66" y="492" type="curve"/>
      <point x="69" y="435" type="line"/>
      <point x="69" y="435"/>
      <point x="188" y="448"/>
      <point x="258" y="448" type="curve" smooth="yes"/>
      <point x="318" y="448"/>
      <point x="348" y="423"/>
      <point x="348" y="353" type="curve" smooth="yes"/>
      <point x="348" y="306" type="line"/>
      <point x="191" y="291" type="line" smooth="yes"/>
      <point x="88" y="281"/>
      <point x="39" y="239"/>
      <point x="39" y="143" type="curve" smooth="yes"/>
      <point x="39" y="40"/>
      <point x="88" y="-12"/>
      <point x="179" y="-12" type="curve" smooth="yes"/>
      <point x="269" y="-12"/>
      <point x="359" y="28"/>
      <point x="359" y="28" type="curve"/>
      <point x="389" y="-2"/>
      <point x="425" y="-12"/>
      <point x="478" y="-12" type="curve"/>
      <point x="481" y="47" type="line"/>
      <point x="449" y="51"/>
      <point x="424" y="62"/>
    </contour>
    <contour>
      <point x="200" y="235" type="curve" smooth="yes"/>
      <point x="348" y="249" type="line"/>
      <point x="348" y="82" type="line"/>
      <point x="348" y="82"/>
      <point x="265" y="51"/>
      <point x="191" y="51" type="curve" smooth="yes"/>
      <point x="140" y="51"/>
      <point x="115" y="85"/>
      <point x="115" y="145" type="curve" smooth="yes"/>
      <point x="115" y="200"/>
      <point x="139" y="229"/>
    </contour>
  </outline>
</glyph>
<glyph name="b" format="2">
	<advance width="529"/>
	<unicode hex="0062"/>
	<anchor x="262" y="0" name="bottom"/>
	<anchor x="262" y="250" name="center"/>
	<anchor x="111" y="730" name="top"/>
	<note>
		b
	</note>
	<outline>
		<contour>
			<point x="294" y="514" type="curve" smooth="yes"/>
			<point x="223" y="514"/>
			<point x="149" y="479"/>
			<point x="149" y="479" type="curve"/>
			<point x="149" y="730" type="line"/>
			<point x="73" y="730" type="line"/>
			<point x="73" y="-1" type="line"/>
			<point x="73" y="-1"/>
			<point x="180" y="-12"/>
			<point x="240" y="-12" type="curve" smooth="yes"/>
			<point x="422" y="-12"/>
			<point x="478" y="57"/>
			<point x="478" y="258" type="curve" smooth="yes"/>
			<point x="478" y="442"/>
			<point x="430" y="514"/>
		</contour>
		<contour>
			<point x="239" y="55" type="curve" smooth="yes"/>
			<point x="212" y="55"/>
			<point x="149" y="60"/>
			<point x="149" y="60" type="curve"/>
			<point x="149" y="418" type="line"/>
			<point x="149" y="418"/>
			<point x="217" y="447"/>
			<point x="286" y="447" type="curve" smooth="yes"/>
			<point x="374" y="447"/>
			<point x="400" y="391"/>
			<point x="400" y="258" type="curve" smooth="yes"/>
			<point x="400" y="116"/>
			<point x="376" y="55"/>
		</contour>
	</outline>
</glyph>
<glyph name="c" format="2">
	<advance width="437"/>
	<unicode hex="0063"/>
	<anchor x="240" y="0" name="bottom"/>
	<anchor x="250" y="500" name="top"/>
	<note>
		c
	</note>
	<outline>
		<contour>
			<point x="259" y="514" type="curve" smooth="yes"/>
			<point x="110" y="514"/>
			<point x="51" y="444"/>
			<point x="51" y="259" type="curve" smooth="yes"/>
			<point x="51" y="61"/>
			<point x="98" y="-12"/>
			<point x="257" y="-12" type="curve" smooth="yes"/>
			<point x="303" y="-12"/>
			<point x="396" y="2"/>
			<point x="396" y="2" type="curve"/>
			<point x="393" y="64" type="line"/>
			<point x="393" y="64"/>
			<point x="313" y="55"/>
			<point x="275" y="55" type="curve" smooth="yes"/>
			<point x="151" y="55"/>
			<point x="129" y="109"/>
			<point x="129" y="259" type="curve" smooth="yes"/>
			<point x="129" y="397"/>
			<point x="159" y="447"/>
			<point x="274" y="447" type="curve" smooth="yes"/>
			<point x="312" y="447"/>
			<point x="392" y="438"/>
			<point x="392" y="438" type="curve"/>
			<point x="395" y="499" type="line"/>
			<point x="395" y="499"/>
			<point x="305" y="514"/>
		</contour>
	</outline>
</glyph>
<glyph name="d" format="2">
  <advance width="528"/>
  <unicode hex="0064"/>
  <note>
d
</note>
  <anchor x="267" y="0" name="bottom"/>
  <anchor x="267" y="250" name="center"/>
  <anchor x="401" y="614" name="stroke"/>
  <anchor x="417" y="730" name="top"/>
  <anchor x="507" y="730" name="topright"/>
  <outline>
    <contour>
      <point x="236" y="55" type="curve" smooth="yes"/>
      <point x="180" y="55"/>
      <point x="128" y="82"/>
      <point x="128" y="246" type="curve" smooth="yes"/>
      <point x="128" y="380"/>
      <point x="158" y="449"/>
      <point x="260" y="449" type="curve" smooth="yes"/>
      <point x="301" y="449"/>
      <point x="363" y="440"/>
      <point x="379" y="437" type="curve"/>
      <point x="379" y="94" type="line"/>
      <point x="379" y="94"/>
      <point x="307" y="55"/>
    </contour>
    <contour>
      <point x="455" y="0" type="line"/>
      <point x="455" y="730" type="line"/>
      <point x="379" y="730" type="line"/>
      <point x="379" y="501" type="line"/>
      <point x="364" y="504"/>
      <point x="299" y="514"/>
      <point x="256" y="514" type="curve" smooth="yes"/>
      <point x="107" y="514"/>
      <point x="50" y="426"/>
      <point x="50" y="246" type="curve" smooth="yes"/>
      <point x="50" y="28"/>
      <point x="132" y="-12"/>
      <point x="227" y="-12" type="curve" smooth="yes"/>
      <point x="302" y="-12"/>
      <point x="379" y="34"/>
      <point x="379" y="34" type="curve"/>
      <point x="379" y="0" type="line"/>
    </contour>
  </outline>
</glyph>
<glyph name="e" format="2">
  <advance width="506"/>
  <unicode hex="0065"/>
  <note>
e
</note>
  <anchor x="255" y="0" name="bottom"/>
  <anchor x="367" y="0" name="ogonek"/>
  <anchor x="262" y="500" name="top"/>
  <outline>
    <contour>
      <point x="257" y="54" type="curve" smooth="yes"/>
      <point x="159" y="54"/>
      <point x="126" y="110"/>
      <point x="126" y="219" type="curve"/>
      <point x="456" y="219" type="line"/>
      <point x="460" y="276" type="line"/>
      <point x="460" y="444"/>
      <point x="392" y="514"/>
      <point x="259" y="514" type="curve" smooth="yes"/>
      <point x="132" y="514"/>
      <point x="50" y="441"/>
      <point x="50" y="247" type="curve" smooth="yes"/>
      <point x="50" y="75"/>
      <point x="99" y="-12"/>
      <point x="248" y="-12" type="curve" smooth="yes"/>
      <point x="329" y="-12"/>
      <point x="443" y="4"/>
      <point x="443" y="4" type="curve"/>
      <point x="441" y="63" type="line"/>
      <point x="441" y="63"/>
      <point x="332" y="54"/>
    </contour>
    <contour>
      <point x="385" y="279" type="curve"/>
      <point x="125" y="279" type="line"/>
      <point x="126" y="404"/>
      <point x="174" y="451"/>
      <point x="259" y="451" type="curve" smooth="yes"/>
      <point x="347" y="451"/>
      <point x="385" y="407"/>
    </contour>
  </outline>
</glyph>
<glyph name="f" format="2">
	<advance width="329"/>
	<unicode hex="0066"/>
	<anchor x="161" y="0" name="bottom"/>
	<anchor x="230" y="730" name="top"/>
	<note>
		f
	</note>
	<outline>
		<contour>
			<point x="167" y="0" type="line"/>
			<point x="167" y="435" type="line"/>
			<point x="312" y="435" type="line"/>
			<point x="312" y="500" type="line"/>
			<point x="167" y="500" type="line"/>
			<point x="167" y="556" type="line" smooth="yes"/>
			<point x="167" y="649"/>
			<point x="185" y="673"/>
			<point x="241" y="673" type="curve" smooth="yes"/>
			<point x="271" y="673"/>
			<point x="327" y="671"/>
			<point x="327" y="671" type="curve"/>
			<point x="328" y="733" type="line"/>
			<point x="328" y="733"/>
			<point x="261" y="740"/>
			<point x="227" y="740" type="curve" smooth="yes"/>
			<point x="129" y="740"/>
			<point x="91" y="701"/>
			<point x="91" y="557" type="curve" smooth="yes"/>
			<point x="91" y="500" type="line"/>
			<point x="29" y="500" type="line"/>
			<point x="29" y="435" type="line"/>
			<point x="91" y="435" type="line"/>
			<point x="91" y="0" type="line"/>
		</contour>
	</outline>
</glyph>
<glyph name="g" format="2">
	<advance width="504"/>
	<unicode hex="0067"/>
	<anchor x="244" y="-230" name="bottom"/>
	<anchor x="247" y="500" name="top"/>
	<note>
		g
	</note>
	<outline>
		<contour>
			<point x="243" y="-242" type="curve" smooth="yes"/>
			<point x="402" y="-242"/>
			<point x="476" y="-196"/>
			<point x="476" y="-66" type="curve" smooth="yes"/>
			<point x="476" y="43"/>
			<point x="425" y="71"/>
			<point x="283" y="71" type="curve" smooth="yes"/>
			<point x="170" y="71"/>
			<point x="162" y="77"/>
			<point x="162" y="117" type="curve" smooth="yes"/>
			<point x="162" y="130"/>
			<point x="180" y="174"/>
			<point x="180" y="174" type="curve"/>
			<point x="191" y="172"/>
			<point x="219" y="170"/>
			<point x="229" y="170" type="curve" smooth="yes"/>
			<point x="357" y="170"/>
			<point x="422" y="209"/>
			<point x="422" y="334" type="curve" smooth="yes"/>
			<point x="422" y="396"/>
			<point x="408" y="424"/>
			<point x="389" y="443" type="curve"/>
			<point x="484" y="441" type="line"/>
			<point x="484" y="505" type="line"/>
			<point x="336" y="501" type="line"/>
			<point x="336" y="501"/>
			<point x="290" y="514"/>
			<point x="232" y="514" type="curve" smooth="yes"/>
			<point x="121" y="514"/>
			<point x="45" y="466"/>
			<point x="45" y="336" type="curve" smooth="yes"/>
			<point x="45" y="247"/>
			<point x="82" y="207"/>
			<point x="124" y="188" type="curve"/>
			<point x="124" y="188"/>
			<point x="90" y="128"/>
			<point x="90" y="109" type="curve" smooth="yes"/>
			<point x="90" y="78"/>
			<point x="100" y="52"/>
			<point x="118" y="40" type="curve"/>
			<point x="66" y="1"/>
			<point x="39" y="-26"/>
			<point x="39" y="-98" type="curve" smooth="yes"/>
			<point x="39" y="-207"/>
			<point x="103" y="-242"/>
		</contour>
		<contour>
			<point x="277" y="5" type="curve" smooth="yes"/>
			<point x="368" y="5"/>
			<point x="400" y="-12"/>
			<point x="400" y="-79" type="curve" smooth="yes"/>
			<point x="400" y="-161"/>
			<point x="351" y="-179"/>
			<point x="253" y="-179" type="curve" smooth="yes"/>
			<point x="138" y="-179"/>
			<point x="113" y="-154"/>
			<point x="113" y="-92" type="curve" smooth="yes"/>
			<point x="113" y="-39"/>
			<point x="127" y="-21"/>
			<point x="169" y="10" type="curve"/>
			<point x="169" y="10"/>
			<point x="242" y="5"/>
		</contour>
		<contour>
			<point x="233" y="230" type="curve" smooth="yes"/>
			<point x="155" y="230"/>
			<point x="120" y="260"/>
			<point x="120" y="339" type="curve" smooth="yes"/>
			<point x="120" y="422"/>
			<point x="152" y="453"/>
			<point x="233" y="453" type="curve" smooth="yes"/>
			<point x="314" y="453"/>
			<point x="347" y="422"/>
			<point x="347" y="339" type="curve" smooth="yes"/>
			<point x="347" y="260"/>
			<point x="317" y="230"/>
		</contour>
	</outline>
</glyph>
<glyph name="h" format="2">
  <advance width="542"/>
  <unicode hex="0068"/>
  <note>
h
</note>
  <anchor x="270" y="0" name="bottom"/>
  <anchor x="205" y="614" name="stroke"/>
  <anchor x="111" y="730" name="top"/>
  <outline>
    <contour>
      <point x="73" y="0" type="line"/>
      <point x="149" y="0" type="line"/>
      <point x="149" y="413" type="line"/>
      <point x="149" y="413"/>
      <point x="221" y="443"/>
      <point x="292" y="443" type="curve" smooth="yes"/>
      <point x="384" y="443"/>
      <point x="398" y="394"/>
      <point x="398" y="262" type="curve" smooth="yes"/>
      <point x="398" y="0" type="line"/>
      <point x="474" y="0" type="line"/>
      <point x="474" y="264" type="line" smooth="yes"/>
      <point x="474" y="442"/>
      <point x="442" y="510"/>
      <point x="305" y="510" type="curve" smooth="yes"/>
      <point x="231" y="510"/>
      <point x="149" y="472"/>
      <point x="149" y="472" type="curve"/>
      <point x="149" y="730" type="line"/>
      <point x="73" y="730" type="line"/>
    </contour>
  </outline>
</glyph>
<glyph name="k" format="2">
	<advance width="475"/>
	<unicode hex="006B"/>
	<anchor x="256" y="0" name="bottom"/>
	<anchor x="112" y="730" name="top"/>
	<note>
		k
	</note>
	<outline>
		<contour>
			<point x="73" y="0" type="line"/>
			<point x="149" y="0" type="line"/>
			<point x="149" y="240" type="line"/>
			<point x="228" y="243" type="line"/>
			<point x="377" y="0" type="line"/>
			<point x="462" y="0" type="line"/>
			<point x="292" y="281" type="line"/>
			<point x="455" y="500" type="line"/>
			<point x="370" y="500" type="line"/>
			<point x="227" y="309" type="line"/>
			<point x="149" y="305" type="line"/>
			<point x="149" y="730" type="line"/>
			<point x="73" y="730" type="line"/>
		</contour>
	</outline>
</glyph>
<glyph name="l" format="2">
	<advance width="268"/>
	<unicode hex="006C"/>
	<anchor x="170" y="0" name="bottom"/>
	<anchor x="108" y="365" name="center"/>
	<anchor x="108" y="730" name="top"/>
	<anchor x="202" y="730" name="topright"/>
	<note>
		l
	</note>
	<outline>
		<contour>
			<point x="146" y="131" type="curve" smooth="yes"/>
			<point x="146" y="730" type="line"/>
			<point x="70" y="730" type="line"/>
			<point x="70" y="101" type="line" smooth="yes"/>
			<point x="70" y="27"/>
			<point x="110" y="-12"/>
			<point x="193" y="-12" type="curve" smooth="yes"/>
			<point x="228" y="-12"/>
			<point x="252" y="-4"/>
			<point x="252" y="-4" type="curve"/>
			<point x="247" y="57" type="line"/>
			<point x="247" y="57"/>
			<point x="225" y="55"/>
			<point x="197" y="55" type="curve" smooth="yes"/>
			<point x="152" y="55"/>
			<point x="146" y="76"/>
		</contour>
	</outline>
</glyph>
<glyph name="m" format="2">
	<advance width="840"/>
	<unicode hex="006D"/>
	<anchor x="426" y="0" name="bottom"/>
	<anchor x="422" y="500" name="top"/>
	<note>
		m
	</note>
	<outline>
		<contour>
			<point x="73" y="0" type="line"/>
			<point x="149" y="0" type="line"/>
			<point x="149" y="406" type="line"/>
			<point x="149" y="406"/>
			<point x="212" y="447"/>
			<point x="283" y="447" type="curve" smooth="yes"/>
			<point x="374" y="447"/>
			<point x="388" y="400"/>
			<point x="388" y="262" type="curve" smooth="yes"/>
			<point x="388" y="0" type="line"/>
			<point x="463" y="0" type="line"/>
			<point x="463" y="264" type="line" smooth="yes"/>
			<point x="463" y="324"/>
			<point x="459" y="387"/>
			<point x="450" y="410" type="curve"/>
			<point x="450" y="410"/>
			<point x="517" y="447"/>
			<point x="591" y="447" type="curve" smooth="yes"/>
			<point x="681" y="447"/>
			<point x="696" y="398"/>
			<point x="696" y="266" type="curve" smooth="yes"/>
			<point x="696" y="0" type="line"/>
			<point x="772" y="0" type="line"/>
			<point x="772" y="268" type="line" smooth="yes"/>
			<point x="772" y="449"/>
			<point x="738" y="514"/>
			<point x="602" y="514" type="curve" smooth="yes"/>
			<point x="513" y="514"/>
			<point x="424" y="463"/>
			<point x="424" y="463" type="curve"/>
			<point x="398" y="499"/>
			<point x="361" y="514"/>
			<point x="294" y="514" type="curve" smooth="yes"/>
			<point x="223" y="514"/>
			<point x="148" y="465"/>
			<point x="148" y="465" type="curve"/>
			<point x="148" y="500" type="line"/>
			<point x="73" y="500" type="line"/>
		</contour>
	</outline>
</glyph>
<glyph name="n" format="2">
  <advance width="542"/>
  <unicode hex="006E"/>
  <note>
n
</note>
  <anchor x="277" y="0" name="bottom"/>
  <anchor x="267" y="500" name="top"/>
  <outline>
    <contour>
      <point x="73" y="0" type="line"/>
      <point x="149" y="0" type="line"/>
      <point x="149" y="406" type="line"/>
      <point x="149" y="406"/>
      <point x="218" y="447"/>
      <point x="290" y="447" type="curve" smooth="yes"/>
      <point x="383" y="447"/>
      <point x="398" y="398"/>
      <point x="398" y="266" type="curve" smooth="yes"/>
      <point x="398" y="0" type="line"/>
      <point x="474" y="0" type="line"/>
      <point x="474" y="268" type="line" smooth="yes"/>
      <point x="474" y="446"/>
      <point x="441" y="514"/>
      <point x="303" y="514" type="curve" smooth="yes"/>
      <point x="229" y="514"/>
      <point x="148" y="465"/>
      <point x="148" y="465" type="curve"/>
      <point x="148" y="500" type="line"/>
      <point x="73" y="500" type="line"/>
    </contour>
  </outline>
</glyph>
<glyph name="o" format="2">
	<advance width="530"/>
	<unicode hex="006F"/>
	<anchor x="265" y="0" name="bottom"/>
	<anchor x="265" y="250" name="center"/>
	<anchor x="334" y="0" name="ogonek"/>
	<anchor x="265" y="500" name="top"/>
	<anchor x="508" y="500" name="topright"/>
	<note>
		o
	</note>
	<outline>
		<contour>
			<point x="265" y="514" type="curve" smooth="yes"/>
			<point x="107" y="514"/>
			<point x="50" y="432"/>
			<point x="50" y="256" type="curve" smooth="yes"/>
			<point x="50" y="72"/>
			<point x="97" y="-12"/>
			<point x="265" y="-12" type="curve" smooth="yes"/>
			<point x="434" y="-12"/>
			<point x="480" y="72"/>
			<point x="480" y="256" type="curve" smooth="yes"/>
			<point x="480" y="432"/>
			<point x="424" y="514"/>
		</contour>
		<contour>
			<point x="265" y="53" type="curve" smooth="yes"/>
			<point x="147" y="53"/>
			<point x="128" y="112"/>
			<point x="128" y="256" type="curve" smooth="yes"/>
			<point x="128" y="399"/>
			<point x="159" y="449"/>
			<point x="265" y="449" type="curve" smooth="yes"/>
			<point x="372" y="449"/>
			<point x="402" y="399"/>
			<point x="402" y="256" type="curve" smooth="yes"/>
			<point x="402" y="112"/>
			<point x="384" y="53"/>
		</contour>
	</outline>
</glyph>
<glyph name="p" format="2">
  <advance width="529"/>
  <unicode hex="0070"/>
  <note>
p
</note>
  <anchor x="262" y="0" name="bottom"/>
  <anchor x="268" y="500" name="top"/>
  <outline>
    <contour>
      <point x="73" y="500" type="line"/>
      <point x="73" y="-230" type="line"/>
      <point x="149" y="-230" type="line"/>
      <point x="149" y="1" type="line"/>
      <point x="149" y="1"/>
      <point x="214" y="-12"/>
      <point x="261" y="-12" type="curve" smooth="yes"/>
      <point x="414" y="-12"/>
      <point x="479" y="58"/>
      <point x="479" y="256" type="curve" smooth="yes"/>
      <point x="479" y="437"/>
      <point x="423" y="514"/>
      <point x="298" y="514" type="curve" smooth="yes"/>
      <point x="224" y="514"/>
      <point x="148" y="464"/>
      <point x="148" y="464" type="curve"/>
      <point x="148" y="500" type="line"/>
    </contour>
    <contour>
      <point x="287" y="447" type="curve" smooth="yes"/>
      <point x="359" y="447"/>
      <point x="401" y="397"/>
      <point x="401" y="256" type="curve" smooth="yes"/>
      <point x="401" y="110"/>
      <point x="366" y="53"/>
      <point x="257" y="53" type="curve" smooth="yes"/>
      <point x="214" y="53"/>
      <point x="149" y="66"/>
      <point x="149" y="66" type="curve"/>
      <point x="149" y="403" type="line"/>
      <point x="149" y="403"/>
      <point x="219" y="447"/>
    </contour>
  </outline>
</glyph>
<glyph name="q" format="2">
  <advance width="528"/>
  <unicode hex="0071"/>
  <note>
q
</note>
  <outline>
    <contour>
      <point x="238" y="-12" type="curve" smooth="yes"/>
      <point x="309" y="-12"/>
      <point x="379" y="23"/>
      <point x="379" y="23" type="curve"/>
      <point x="379" y="-230" type="line"/>
      <point x="455" y="-230" type="line"/>
      <point x="455" y="504" type="line"/>
      <point x="455" y="504"/>
      <point x="338" y="514"/>
      <point x="286" y="514" type="curve" smooth="yes"/>
      <point x="110" y="514"/>
      <point x="50" y="443"/>
      <point x="50" y="242" type="curve" smooth="yes"/>
      <point x="50" y="63"/>
      <point x="102" y="-12"/>
    </contour>
    <contour>
      <point x="287" y="449" type="curve" smooth="yes"/>
      <point x="317" y="449"/>
      <point x="379" y="443"/>
      <point x="379" y="443" type="curve"/>
      <point x="379" y="86" type="line"/>
      <point x="379" y="86"/>
      <point x="315" y="55"/>
      <point x="246" y="55" type="curve" smooth="yes"/>
      <point x="158" y="55"/>
      <point x="128" y="115"/>
      <point x="128" y="242" type="curve" smooth="yes"/>
      <point x="128" y="384"/>
      <point x="156" y="449"/>
    </contour>
  </outline>
</glyph>
<glyph name="r" format="2">
  <advance width="346"/>
  <unicode hex="0072"/>
  <note>
r
</note>
  <anchor x="111" y="0" name="bottom"/>
  <anchor x="204" y="500" name="top"/>
  <outline>
    <contour>
      <point x="73" y="500" type="line"/>
      <point x="73" y="0" type="line"/>
      <point x="149" y="0" type="line"/>
      <point x="149" y="367" type="line"/>
      <point x="149" y="367"/>
      <point x="237" y="419"/>
      <point x="331" y="438" type="curve"/>
      <point x="331" y="514" type="line"/>
      <point x="235" y="495"/>
      <point x="148" y="432"/>
      <point x="148" y="432" type="curve"/>
      <point x="148" y="500" type="line"/>
    </contour>
  </outline>
</glyph>
<glyph name="s" format="2">
  <advance width="461"/>
  <unicode hex="0073"/>
  <note>
s
</note>
  <anchor x="217" y="0" name="bottom"/>
  <anchor x="229" y="500" name="top"/>
  <outline>
    <contour>
      <point x="401" y="431" type="curve"/>
      <point x="403" y="495" type="line"/>
      <point x="403" y="495"/>
      <point x="297" y="514"/>
      <point x="222" y="514" type="curve" smooth="yes"/>
      <point x="136" y="514"/>
      <point x="47" y="478"/>
      <point x="47" y="368" type="curve" smooth="yes"/>
      <point x="47" y="291"/>
      <point x="78" y="259"/>
      <point x="154" y="241" type="curve" smooth="yes"/>
      <point x="270" y="213" type="line" smooth="yes"/>
      <point x="331" y="198"/>
      <point x="344" y="181"/>
      <point x="344" y="143" type="curve" smooth="yes"/>
      <point x="344" y="73"/>
      <point x="300" y="55"/>
      <point x="218" y="55" type="curve" smooth="yes"/>
      <point x="164" y="55"/>
      <point x="50" y="72"/>
      <point x="50" y="72" type="curve"/>
      <point x="46" y="7" type="line"/>
      <point x="46" y="7"/>
      <point x="158" y="-12"/>
      <point x="225" y="-12" type="curve" smooth="yes"/>
      <point x="345" y="-12"/>
      <point x="419" y="27"/>
      <point x="419" y="146" type="curve" smooth="yes"/>
      <point x="419" y="224"/>
      <point x="391" y="255"/>
      <point x="302" y="277" type="curve" smooth="yes"/>
      <point x="199" y="303" type="line" smooth="yes"/>
      <point x="135" y="319"/>
      <point x="122" y="335"/>
      <point x="122" y="371" type="curve" smooth="yes"/>
      <point x="122" y="430"/>
      <point x="169" y="447"/>
      <point x="226" y="447" type="curve" smooth="yes"/>
      <point x="290" y="447"/>
      <point x="401" y="431"/>
    </contour>
  </outline>
</glyph>
<glyph name="t" format="2">
	<advance width="360"/>
	<unicode hex="0074"/>
	<anchor x="229" y="0" name="bottom"/>
	<anchor x="134" y="263" name="center"/>
	<anchor x="137" y="653" name="top"/>
	<anchor x="226" y="730" name="topright"/>
	<note>
		t
	</note>
	<outline>
		<contour>
			<point x="173" y="435" type="line"/>
			<point x="331" y="435" type="line"/>
			<point x="331" y="500" type="line"/>
			<point x="172" y="500" type="line"/>
			<point x="172" y="653" type="line"/>
			<point x="98" y="653" type="line"/>
			<point x="98" y="500" type="line"/>
			<point x="27" y="500" type="line"/>
			<point x="27" y="435" type="line"/>
			<point x="97" y="435" type="line"/>
			<point x="97" y="171" type="line" smooth="yes"/>
			<point x="97" y="27"/>
			<point x="133" y="-12"/>
			<point x="236" y="-12" type="curve" smooth="yes"/>
			<point x="271" y="-12"/>
			<point x="338" y="-1"/>
			<point x="338" y="-1" type="curve"/>
			<point x="333" y="61" type="line"/>
			<point x="333" y="61"/>
			<point x="272" y="55"/>
			<point x="244" y="55" type="curve" smooth="yes"/>
			<point x="179" y="55"/>
			<point x="173" y="86"/>
			<point x="173" y="171" type="curve" smooth="yes"/>
		</contour>
	</outline>
</glyph>
<glyph name="u" format="2">
	<advance width="535"/>
	<unicode hex="0075"/>
	<anchor x="268" y="0" name="bottom"/>
	<anchor x="456" y="0" name="ogonek"/>
	<anchor x="268" y="500" name="top"/>
	<anchor x="512" y="500" name="topright"/>
	<note>
		u
	</note>
	<outline>
		<contour>
			<point x="462" y="500" type="line"/>
			<point x="386" y="500" type="line"/>
			<point x="386" y="94" type="line"/>
			<point x="386" y="94"/>
			<point x="323" y="55"/>
			<point x="249" y="55" type="curve" smooth="yes"/>
			<point x="156" y="55"/>
			<point x="144" y="100"/>
			<point x="144" y="238" type="curve" smooth="yes"/>
			<point x="144" y="500" type="line"/>
			<point x="68" y="500" type="line"/>
			<point x="68" y="237" type="line" smooth="yes"/>
			<point x="68" y="53"/>
			<point x="98" y="-12"/>
			<point x="238" y="-12" type="curve" smooth="yes"/>
			<point x="311" y="-12"/>
			<point x="386" y="35"/>
			<point x="386" y="35" type="curve"/>
			<point x="386" y="0" type="line"/>
			<point x="462" y="0" type="line"/>
		</contour>
	</outline>
</glyph>
<glyph name="v" format="2">
  <advance width="482"/>
  <unicode hex="0076"/>
  <note>
v
</note>
  <anchor x="240" y="0" name="bottom"/>
  <anchor x="240" y="500" name="top"/>
  <outline>
    <contour>
      <point x="105" y="500" type="line"/>
      <point x="27" y="500" type="line"/>
      <point x="171" y="0" type="line"/>
      <point x="309" y="0" type="line"/>
      <point x="457" y="500" type="line"/>
      <point x="382" y="500" type="line"/>
      <point x="252" y="65" type="line"/>
      <point x="227" y="65" type="line"/>
    </contour>
  </outline>
</glyph>
<glyph name="w" format="2">
  <advance width="763"/>
  <unicode hex="0077"/>
  <note>
w
</note>
  <anchor x="380" y="0" name="bottom"/>
  <anchor x="380" y="500" name="top"/>
  <outline>
    <contour>
      <point x="107" y="500" type="line"/>
      <point x="32" y="500" type="line"/>
      <point x="147" y="0" type="line"/>
      <point x="281" y="0" type="line"/>
      <point x="382" y="391" type="line"/>
      <point x="483" y="0" type="line"/>
      <point x="616" y="0" type="line"/>
      <point x="732" y="500" type="line"/>
      <point x="657" y="500" type="line"/>
      <point x="560" y="65" type="line"/>
      <point x="535" y="65" type="line"/>
      <point x="421" y="490" type="line"/>
      <point x="343" y="490" type="line"/>
      <point x="229" y="65" type="line"/>
      <point x="204" y="65" type="line"/>
    </contour>
  </outline>
</glyph>
<glyph name="x" format="2">
  <advance width="453"/>
  <unicode hex="0078"/>
  <note>
x
</note>
  <outline>
    <contour>
      <point x="23" y="0" type="line"/>
      <point x="105" y="0" type="line"/>
      <point x="226" y="195" type="line"/>
      <point x="348" y="0" type="line"/>
      <point x="430" y="0" type="line"/>
      <point x="271" y="252" type="line"/>
      <point x="431" y="500" type="line"/>
      <point x="349" y="500" type="line"/>
      <point x="228" y="305" type="line"/>
      <point x="107" y="500" type="line"/>
      <point x="25" y="500" type="line"/>
      <point x="181" y="252" type="line"/>
    </contour>
  </outline>
</glyph>
<glyph name="y" format="2">
	<advance width="485"/>
	<unicode hex="0079"/>
	<anchor x="239" y="0" name="bottom"/>
	<anchor x="239" y="500" name="top"/>
	<note>
		y
	</note>
	<outline>
		<contour>
			<point x="99" y="500" type="line"/>
			<point x="24" y="500" type="line"/>
			<point x="174" y="0" type="line"/>
			<point x="240" y="0" type="line"/>
			<point x="174" y="-230" type="line"/>
			<point x="249" y="-230" type="line"/>
			<point x="458" y="500" type="line"/>
			<point x="383" y="500" type="line"/>
			<point x="257" y="65" type="line"/>
			<point x="232" y="65" type="line"/>
		</contour>
	</outline>
</glyph>
<glyph name="z" format="2">
  <advance width="459"/>
  <unicode hex="007A"/>
  <note>
z
</note>
  <anchor x="227" y="0" name="bottom"/>
  <anchor x="227" y="250" name="center"/>
  <anchor x="227" y="500" name="top"/>
  <outline>
    <contour>
      <point x="44" y="500" type="line"/>
      <point x="44" y="433" type="line"/>
      <point x="324" y="433" type="line"/>
      <point x="324" y="413" type="line"/>
      <point x="44" y="82" type="line"/>
      <point x="44" y="0" type="line"/>
      <point x="415" y="0" type="line"/>
      <point x="415" y="67" type="line"/>
      <point x="135" y="67" type="line"/>
      <point x="135" y="87" type="line"/>
      <point x="415" y="417" type="line"/>
      <point x="415" y="500" type="line"/>
    </contour>
  </outline>
</glyph>
<glyph name="braceleft" format="2">
	<advance width="355"/>
	<unicode hex="007B"/>
	<outline>
		<contour>
			<point x="216" y="171" type="curve" smooth="yes"/>
			<point x="218" y="254"/>
			<point x="194" y="289"/>
			<point x="111" y="313" type="curve"/>
			<point x="194" y="337"/>
			<point x="216" y="368"/>
			<point x="216" y="453" type="curve" smooth="yes"/>
			<point x="216" y="486"/>
			<point x="209" y="541"/>
			<point x="209" y="574" type="curve" smooth="yes"/>
			<point x="209" y="644"/>
			<point x="231" y="684"/>
			<point x="323" y="689" type="curve"/>
			<point x="321" y="754" type="line"/>
			<point x="187" y="749"/>
			<point x="136" y="701"/>
			<point x="136" y="578" type="curve" smooth="yes"/>
			<point x="136" y="541"/>
			<point x="143" y="484"/>
			<point x="143" y="452" type="curve" smooth="yes"/>
			<point x="143" y="395"/>
			<point x="113" y="361"/>
			<point x="36" y="343" type="curve"/>
			<point x="36" y="282" type="line"/>
			<point x="112" y="261"/>
			<point x="143" y="227"/>
			<point x="143" y="170" type="curve" smooth="yes"/>
			<point x="143" y="141"/>
			<point x="136" y="85"/>
			<point x="136" y="46" type="curve" smooth="yes"/>
			<point x="136" y="-73"/>
			<point x="187" y="-124"/>
			<point x="321" y="-129" type="curve"/>
			<point x="323" y="-64" type="line"/>
			<point x="230" y="-59"/>
			<point x="209" y="-16"/>
			<point x="209" y="53" type="curve" smooth="yes"/>
			<point x="209" y="89"/>
			<point x="215" y="132"/>
		</contour>
	</outline>
</glyph>
<glyph name="bar" format="2">
	<advance width="246"/>
	<unicode hex="007C"/>
	<outline>
		<contour>
			<point x="86" y="730" type="line"/>
			<point x="86" y="-230" type="line"/>
			<point x="160" y="-230" type="line"/>
			<point x="160" y="730" type="line"/>
		</contour>
	</outline>
</glyph>
<glyph name="asciitilde" format="2">
  <advance width="560"/>
  <unicode hex="007E"/>
  <outline>
    <contour>
      <point x="512" y="288" type="curve"/>
      <point x="483" y="333" type="line"/>
      <point x="483" y="333"/>
      <point x="418" y="287"/>
      <point x="381" y="287" type="curve" smooth="yes"/>
      <point x="335" y="287"/>
      <point x="237" y="348"/>
      <point x="181" y="348" type="curve" smooth="yes"/>
      <point x="127" y="348"/>
      <point x="47" y="278"/>
      <point x="47" y="278" type="curve"/>
      <point x="76" y="233" type="line"/>
      <point x="76" y="233"/>
      <point x="140" y="280"/>
      <point x="180" y="280" type="curve" smooth="yes"/>
      <point x="222" y="280"/>
      <point x="324" y="218"/>
      <point x="380" y="218" type="curve" smooth="yes"/>
      <point x="434" y="218"/>
      <point x="512" y="288"/>
    </contour>
  </outline>
</glyph>
<glyph name="cent" format="2">
  <advance width="454"/>
  <unicode hex="00A2"/>
  <outline>
    <contour>
      <point x="231" y="74" type="curve"/>
      <point x="231" y="-43" type="line"/>
      <point x="296" y="-43" type="line"/>
      <point x="296" y="76" type="line"/>
      <point x="338" y="78"/>
      <point x="398" y="87"/>
      <point x="398" y="87" type="curve"/>
      <point x="395" y="148" type="line"/>
      <point x="395" y="148"/>
      <point x="321" y="141"/>
      <point x="271" y="141" type="curve" smooth="yes"/>
      <point x="163" y="141"/>
      <point x="132" y="177"/>
      <point x="132" y="286" type="curve" smooth="yes"/>
      <point x="132" y="394"/>
      <point x="166" y="435"/>
      <point x="265" y="435" type="curve" smooth="yes"/>
      <point x="315" y="435"/>
      <point x="394" y="428"/>
      <point x="394" y="428" type="curve"/>
      <point x="397" y="488" type="line"/>
      <point x="397" y="488"/>
      <point x="339" y="499"/>
      <point x="296" y="500" type="curve"/>
      <point x="296" y="621" type="line"/>
      <point x="231" y="621" type="line"/>
      <point x="231" y="503" type="line"/>
      <point x="113" y="497"/>
      <point x="54" y="434"/>
      <point x="54" y="286" type="curve" smooth="yes"/>
      <point x="54" y="130"/>
      <point x="112" y="80"/>
    </contour>
  </outline>
</glyph>
<glyph name="sterling" format="2">
	<advance width="479"/>
	<unicode hex="00A3"/>
	<outline>
		<contour>
			<point x="406" y="592" type="curve"/>
			<point x="407" y="653" type="line"/>
			<point x="407" y="653"/>
			<point x="327" y="670"/>
			<point x="274" y="670" type="curve" smooth="yes"/>
			<point x="171" y="670"/>
			<point x="126" y="634"/>
			<point x="126" y="472" type="curve" smooth="yes"/>
			<point x="126" y="417" type="line"/>
			<point x="59" y="417" type="line"/>
			<point x="59" y="353" type="line"/>
			<point x="126" y="353" type="line"/>
			<point x="126" y="66" type="line"/>
			<point x="41" y="66" type="line"/>
			<point x="41" y="0" type="line"/>
			<point x="361" y="0" type="line"/>
			<point x="443" y="18" type="line"/>
			<point x="430" y="82" type="line"/>
			<point x="353" y="66" type="line"/>
			<point x="199" y="66" type="line"/>
			<point x="199" y="353" type="line"/>
			<point x="370" y="353" type="line"/>
			<point x="370" y="417" type="line"/>
			<point x="199" y="417" type="line"/>
			<point x="199" y="467" type="line" smooth="yes"/>
			<point x="199" y="574"/>
			<point x="218" y="603"/>
			<point x="281" y="603" type="curve" smooth="yes"/>
			<point x="326" y="603"/>
			<point x="406" y="592"/>
		</contour>
	</outline>
</glyph>
<glyph name="currency" format="2">
  <advance width="550"/>
  <unicode hex="00A4"/>
  <outline>
    <contour>
      <point x="374" y="135" type="curve"/>
      <point x="444" y="64" type="line"/>
      <point x="497" y="117" type="line"/>
      <point x="426" y="187" type="line"/>
      <point x="445" y="215"/>
      <point x="456" y="249"/>
      <point x="456" y="286" type="curve" smooth="yes"/>
      <point x="456" y="322"/>
      <point x="445" y="356"/>
      <point x="426" y="385" type="curve"/>
      <point x="497" y="455" type="line"/>
      <point x="444" y="508" type="line"/>
      <point x="374" y="437" type="line"/>
      <point x="345" y="456"/>
      <point x="311" y="467"/>
      <point x="275" y="467" type="curve" smooth="yes"/>
      <point x="238" y="467"/>
      <point x="204" y="456"/>
      <point x="176" y="437" type="curve"/>
      <point x="106" y="508" type="line"/>
      <point x="53" y="455" type="line"/>
      <point x="123" y="385" type="line"/>
      <point x="105" y="356"/>
      <point x="94" y="322"/>
      <point x="94" y="286" type="curve" smooth="yes"/>
      <point x="94" y="249"/>
      <point x="105" y="215"/>
      <point x="123" y="187" type="curve"/>
      <point x="53" y="117" type="line"/>
      <point x="106" y="64" type="line"/>
      <point x="176" y="135" type="line"/>
      <point x="204" y="116"/>
      <point x="238" y="105"/>
      <point x="275" y="105" type="curve" smooth="yes"/>
      <point x="311" y="105"/>
      <point x="345" y="116"/>
    </contour>
    <contour>
      <point x="275" y="171" type="curve" smooth="yes"/>
      <point x="212" y="171"/>
      <point x="160" y="223"/>
      <point x="160" y="286" type="curve" smooth="yes"/>
      <point x="160" y="349"/>
      <point x="212" y="401"/>
      <point x="275" y="401" type="curve" smooth="yes"/>
      <point x="338" y="401"/>
      <point x="390" y="349"/>
      <point x="390" y="286" type="curve" smooth="yes"/>
      <point x="390" y="223"/>
      <point x="338" y="171"/>
    </contour>
  </outline>
</glyph>
<glyph name="yen" format="2">
  <advance width="576"/>
  <unicode hex="00A5"/>
  <outline>
    <contour>
      <point x="327" y="0" type="line"/>
      <point x="327" y="269" type="line"/>
      <point x="547" y="660" type="line"/>
      <point x="463" y="660" type="line"/>
      <point x="289" y="342" type="line"/>
      <point x="113" y="660" type="line"/>
      <point x="29" y="660" type="line"/>
      <point x="249" y="269" type="line"/>
      <point x="249" y="0" type="line"/>
    </contour>
    <contour>
      <point x="487" y="187" type="line"/>
      <point x="89" y="187" type="line"/>
      <point x="89" y="123" type="line"/>
      <point x="487" y="123" type="line"/>
    </contour>
    <contour>
      <point x="487" y="326" type="line"/>
      <point x="89" y="326" type="line"/>
      <point x="89" y="262" type="line"/>
      <point x="487" y="262" type="line"/>
    </contour>
  </outline>
</glyph>
<glyph name="section" format="2">
  <advance width="495"/>
  <unicode hex="00A7"/>
  <outline>
    <contour>
      <point x="417" y="630" type="curve"/>
      <point x="421" y="693" type="line"/>
      <point x="421" y="693"/>
      <point x="323" y="710"/>
      <point x="257" y="710" type="curve" smooth="yes"/>
      <point x="135" y="710"/>
      <point x="65" y="659"/>
      <point x="65" y="551" type="curve" smooth="yes"/>
      <point x="65" y="492"/>
      <point x="80" y="461"/>
      <point x="109" y="440" type="curve"/>
      <point x="97" y="430"/>
      <point x="51" y="374"/>
      <point x="51" y="314" type="curve" smooth="yes"/>
      <point x="51" y="216"/>
      <point x="107" y="186"/>
      <point x="219" y="165" type="curve" smooth="yes"/>
      <point x="319" y="146"/>
      <point x="363" y="138"/>
      <point x="363" y="73" type="curve" smooth="yes"/>
      <point x="363" y="5"/>
      <point x="320" y="-26"/>
      <point x="240" y="-26" type="curve" smooth="yes"/>
      <point x="185" y="-26"/>
      <point x="76" y="-11"/>
      <point x="76" y="-11" type="curve"/>
      <point x="69" y="-74" type="line"/>
      <point x="69" y="-74"/>
      <point x="180" y="-91"/>
      <point x="244" y="-91" type="curve" smooth="yes"/>
      <point x="371" y="-91"/>
      <point x="435" y="-37"/>
      <point x="435" y="77" type="curve" smooth="yes"/>
      <point x="435" y="131"/>
      <point x="422" y="156"/>
      <point x="398" y="177" type="curve"/>
      <point x="409" y="193"/>
      <point x="442" y="251"/>
      <point x="442" y="308" type="curve" smooth="yes"/>
      <point x="442" y="407"/>
      <point x="389" y="432"/>
      <point x="281" y="453" type="curve" smooth="yes"/>
      <point x="183" y="471"/>
      <point x="138" y="484"/>
      <point x="138" y="553" type="curve" smooth="yes"/>
      <point x="138" y="617"/>
      <point x="175" y="645"/>
      <point x="260" y="645" type="curve" smooth="yes"/>
      <point x="308" y="645"/>
      <point x="417" y="630"/>
    </contour>
    <contour>
      <point x="251" y="391" type="curve" smooth="yes"/>
      <point x="328" y="376"/>
      <point x="366" y="362"/>
      <point x="366" y="299" type="curve" smooth="yes"/>
      <point x="366" y="256"/>
      <point x="345" y="210"/>
      <point x="341" y="205" type="curve"/>
      <point x="316" y="216"/>
      <point x="281" y="224"/>
      <point x="239" y="232" type="curve" smooth="yes"/>
      <point x="160" y="246"/>
      <point x="126" y="264"/>
      <point x="126" y="325" type="curve" smooth="yes"/>
      <point x="126" y="364"/>
      <point x="156" y="408"/>
      <point x="159" y="413" type="curve"/>
      <point x="184" y="403"/>
      <point x="216" y="397"/>
    </contour>
  </outline>
</glyph>
<glyph name="copyright" format="2">
  <advance width="636"/>
  <unicode hex="00A9"/>
  <outline>
    <contour>
      <point x="318" y="696" type="curve" smooth="yes"/>
      <point x="444" y="696"/>
      <point x="536" y="593"/>
      <point x="536" y="467" type="curve" smooth="yes"/>
      <point x="536" y="341"/>
      <point x="444" y="238"/>
      <point x="318" y="238" type="curve" smooth="yes"/>
      <point x="192" y="238"/>
      <point x="100" y="341"/>
      <point x="100" y="467" type="curve" smooth="yes"/>
      <point x="100" y="593"/>
      <point x="192" y="696"/>
    </contour>
    <contour>
      <point x="54" y="467" type="curve" smooth="yes"/>
      <point x="54" y="314"/>
      <point x="167" y="194"/>
      <point x="318" y="194" type="curve" smooth="yes"/>
      <point x="469" y="194"/>
      <point x="582" y="314"/>
      <point x="582" y="467" type="curve" smooth="yes"/>
      <point x="582" y="619"/>
      <point x="470" y="740"/>
      <point x="318" y="740" type="curve" smooth="yes"/>
      <point x="166" y="740"/>
      <point x="54" y="619"/>
    </contour>
    <contour>
      <point x="398" y="334" type="curve"/>
      <point x="394" y="386" type="line"/>
      <point x="394" y="386"/>
      <point x="353" y="379"/>
      <point x="324" y="379" type="curve" smooth="yes"/>
      <point x="275" y="379"/>
      <point x="264" y="415"/>
      <point x="264" y="470" type="curve" smooth="yes"/>
      <point x="264" y="526"/>
      <point x="271" y="559"/>
      <point x="324" y="559" type="curve" smooth="yes"/>
      <point x="356" y="559"/>
      <point x="394" y="553"/>
      <point x="394" y="553" type="curve"/>
      <point x="398" y="606" type="line"/>
      <point x="398" y="606"/>
      <point x="363" y="616"/>
      <point x="321" y="616" type="curve" smooth="yes"/>
      <point x="231" y="616"/>
      <point x="203" y="564"/>
      <point x="203" y="470" type="curve" smooth="yes"/>
      <point x="203" y="372"/>
      <point x="232" y="322"/>
      <point x="320" y="322" type="curve" smooth="yes"/>
      <point x="361" y="322"/>
      <point x="398" y="334"/>
    </contour>
  </outline>
</glyph>
<glyph name="ordfeminine" format="2">
  <advance width="405"/>
  <unicode hex="00AA"/>
  <outline>
    <contour>
      <point x="312" y="478" type="curve"/>
      <point x="312" y="615" type="line" smooth="yes"/>
      <point x="312" y="691"/>
      <point x="274" y="714"/>
      <point x="202" y="714" type="curve" smooth="yes"/>
      <point x="151" y="714"/>
      <point x="82" y="699"/>
      <point x="82" y="699" type="curve"/>
      <point x="84" y="651" type="line"/>
      <point x="84" y="651"/>
      <point x="161" y="658"/>
      <point x="199" y="658" type="curve" smooth="yes"/>
      <point x="232" y="658"/>
      <point x="248" y="648"/>
      <point x="248" y="618" type="curve" smooth="yes"/>
      <point x="248" y="596" type="line"/>
      <point x="160" y="590" type="line" smooth="yes"/>
      <point x="95" y="586"/>
      <point x="64" y="559"/>
      <point x="64" y="504" type="curve" smooth="yes"/>
      <point x="64" y="448"/>
      <point x="96" y="412"/>
      <point x="150" y="412" type="curve" smooth="yes"/>
      <point x="202" y="412"/>
      <point x="257" y="438"/>
      <point x="257" y="438" type="curve"/>
      <point x="272" y="421"/>
      <point x="286" y="412"/>
      <point x="341" y="412" type="curve"/>
      <point x="341" y="461" type="line"/>
      <point x="330" y="464"/>
      <point x="319" y="469"/>
    </contour>
    <contour>
      <point x="171" y="545" type="curve" smooth="yes"/>
      <point x="248" y="550" type="line"/>
      <point x="248" y="483" type="line"/>
      <point x="248" y="483"/>
      <point x="201" y="466"/>
      <point x="166" y="466" type="curve" smooth="yes"/>
      <point x="143" y="466"/>
      <point x="130" y="478"/>
      <point x="130" y="505" type="curve" smooth="yes"/>
      <point x="130" y="532"/>
      <point x="142" y="543"/>
    </contour>
    <contour>
      <point x="74" y="355" type="line"/>
      <point x="74" y="295" type="line"/>
      <point x="338" y="295" type="line"/>
      <point x="338" y="355" type="line"/>
    </contour>
  </outline>
</glyph>
<glyph name="logicalnot" format="2">
  <advance width="560"/>
  <unicode hex="00AC"/>
  <outline>
    <contour>
      <point x="492" y="353" type="line"/>
      <point x="64" y="353" type="line"/>
      <point x="64" y="285" type="line"/>
      <point x="422" y="285" type="line"/>
      <point x="422" y="128" type="line"/>
      <point x="492" y="128" type="line"/>
    </contour>
  </outline>
</glyph>
<glyph name="registered" format="2">
	<advance width="636"/>
	<unicode hex="00AE"/>
	<outline>
		<contour>
			<point x="324" y="424" type="line"/>
			<point x="373" y="327" type="line"/>
			<point x="435" y="327" type="line"/>
			<point x="380" y="432" type="line"/>
			<point x="420" y="449"/>
			<point x="432" y="480"/>
			<point x="432" y="518" type="curve" smooth="yes"/>
			<point x="432" y="591"/>
			<point x="391" y="611"/>
			<point x="319" y="611" type="curve" smooth="yes"/>
			<point x="215" y="611" type="line"/>
			<point x="215" y="327" type="line"/>
			<point x="273" y="327" type="line"/>
			<point x="273" y="424" type="line"/>
		</contour>
		<contour>
			<point x="272" y="471" type="line"/>
			<point x="272" y="564" type="line"/>
			<point x="314" y="564" type="line" smooth="yes"/>
			<point x="354" y="564"/>
			<point x="372" y="551"/>
			<point x="372" y="516" type="curve" smooth="yes"/>
			<point x="372" y="488"/>
			<point x="359" y="471"/>
			<point x="325" y="471" type="curve" smooth="yes"/>
		</contour>
		<contour>
			<point x="318" y="696" type="curve" smooth="yes"/>
			<point x="444" y="696"/>
			<point x="536" y="593"/>
			<point x="536" y="467" type="curve" smooth="yes"/>
			<point x="536" y="341"/>
			<point x="444" y="238"/>
			<point x="318" y="238" type="curve" smooth="yes"/>
			<point x="192" y="238"/>
			<point x="100" y="341"/>
			<point x="100" y="467" type="curve" smooth="yes"/>
			<point x="100" y="593"/>
			<point x="192" y="696"/>
		</contour>
		<contour>
			<point x="54" y="467" type="curve" smooth="yes"/>
			<point x="54" y="314"/>
			<point x="167" y="194"/>
			<point x="318" y="194" type="curve" smooth="yes"/>
			<point x="469" y="194"/>
			<point x="582" y="314"/>
			<point x="582" y="467" type="curve" smooth="yes"/>
			<point x="582" y="619"/>
			<point x="470" y="740"/>
			<point x="318" y="740" type="curve" smooth="yes"/>
			<point x="166" y="740"/>
			<point x="54" y="619"/>
		</contour>
	</outline>
</glyph>
<glyph name="degree" format="2">
  <advance width="402"/>
  <unicode hex="00B0"/>
  <outline>
    <contour>
      <point x="201" y="714" type="curve" smooth="yes"/>
      <point x="113" y="714"/>
      <point x="51" y="652"/>
      <point x="51" y="564" type="curve" smooth="yes"/>
      <point x="51" y="475"/>
      <point x="113" y="415"/>
      <point x="201" y="415" type="curve" smooth="yes"/>
      <point x="289" y="415"/>
      <point x="351" y="475"/>
      <point x="351" y="564" type="curve" smooth="yes"/>
      <point x="351" y="652"/>
      <point x="289" y="714"/>
    </contour>
    <contour>
      <point x="201" y="659" type="curve" smooth="yes"/>
      <point x="256" y="659"/>
      <point x="291" y="619"/>
      <point x="291" y="564" type="curve" smooth="yes"/>
      <point x="291" y="508"/>
      <point x="256" y="470"/>
      <point x="201" y="470" type="curve" smooth="yes"/>
      <point x="146" y="470"/>
      <point x="111" y="508"/>
      <point x="111" y="564" type="curve" smooth="yes"/>
      <point x="111" y="619"/>
      <point x="146" y="659"/>
    </contour>
  </outline>
</glyph>
<glyph name="plusminus" format="2">
	<advance width="560"/>
	<unicode hex="00B1"/>
	<outline>
		<contour>
			<point x="55" y="390" type="line"/>
			<point x="55" y="322" type="line"/>
			<point x="245" y="322" type="line"/>
			<point x="245" y="182" type="line"/>
			<point x="315" y="182" type="line"/>
			<point x="315" y="322" type="line"/>
			<point x="505" y="322" type="line"/>
			<point x="505" y="390" type="line"/>
			<point x="315" y="390" type="line"/>
			<point x="315" y="530" type="line"/>
			<point x="245" y="530" type="line"/>
			<point x="245" y="390" type="line"/>
		</contour>
		<contour>
			<point x="505" y="108" type="line"/>
			<point x="55" y="108" type="line"/>
			<point x="55" y="40" type="line"/>
			<point x="505" y="40" type="line"/>
		</contour>
	</outline>
</glyph>
<glyph name="micro" format="2">
	<advance width="552"/>
	<unicode hex="00B5"/>
	<outline>
		<contour>
			<point x="472" y="500" type="line"/>
			<point x="397" y="500" type="line"/>
			<point x="397" y="94" type="line"/>
			<point x="397" y="94"/>
			<point x="344" y="57"/>
			<point x="265" y="57" type="curve" smooth="yes"/>
			<point x="177" y="57"/>
			<point x="155" y="102"/>
			<point x="155" y="190" type="curve" smooth="yes"/>
			<point x="155" y="500" type="line"/>
			<point x="80" y="500" type="line"/>
			<point x="80" y="-230" type="line"/>
			<point x="152" y="-230" type="line"/>
			<point x="152" y="21" type="line"/>
			<point x="175" y="0"/>
			<point x="214" y="-10"/>
			<point x="250" y="-10" type="curve" smooth="yes"/>
			<point x="327" y="-10"/>
			<point x="397" y="35"/>
			<point x="397" y="35" type="curve"/>
			<point x="397" y="0" type="line"/>
			<point x="472" y="0" type="line"/>
		</contour>
	</outline>
</glyph>
<glyph name="paragraph" format="2">
	<advance width="578"/>
	<unicode hex="00B6"/>
	<outline>
		<contour>
			<point x="400" y="634" type="line"/>
			<point x="400" y="0" type="line"/>
			<point x="472" y="0" type="line"/>
			<point x="472" y="634" type="line"/>
			<point x="544" y="634" type="line"/>
			<point x="544" y="700" type="line"/>
			<point x="220" y="700" type="line" smooth="yes"/>
			<point x="113" y="700"/>
			<point x="29" y="624"/>
			<point x="29" y="515" type="curve" smooth="yes"/>
			<point x="29" y="406"/>
			<point x="112" y="332"/>
			<point x="219" y="332" type="curve" smooth="yes"/>
			<point x="226" y="332" type="line"/>
			<point x="226" y="0" type="line"/>
			<point x="298" y="0" type="line"/>
			<point x="298" y="634" type="line"/>
		</contour>
	</outline>
</glyph>
<glyph name="periodcentered" format="2">
  <advance width="216"/>
  <unicode hex="00B7"/>
  <outline>
    <contour>
      <point x="67" y="341" type="line"/>
      <point x="67" y="227" type="line"/>
      <point x="149" y="227" type="line"/>
      <point x="149" y="341" type="line"/>
    </contour>
  </outline>
</glyph>
<glyph name="ordmasculine" format="2">
  <advance width="406"/>
  <unicode hex="00BA"/>
  <outline>
    <contour>
      <point x="204" y="714" type="curve" smooth="yes"/>
      <point x="113" y="714"/>
      <point x="66" y="669"/>
      <point x="66" y="565" type="curve" smooth="yes"/>
      <point x="66" y="461"/>
      <point x="113" y="412"/>
      <point x="204" y="412" type="curve" smooth="yes"/>
      <point x="294" y="412"/>
      <point x="339" y="461"/>
      <point x="339" y="565" type="curve" smooth="yes"/>
      <point x="339" y="669"/>
      <point x="294" y="714"/>
    </contour>
    <contour>
      <point x="204" y="473" type="curve" smooth="yes"/>
      <point x="153" y="473"/>
      <point x="135" y="501"/>
      <point x="135" y="565" type="curve" smooth="yes"/>
      <point x="135" y="629"/>
      <point x="153" y="653"/>
      <point x="204" y="653" type="curve" smooth="yes"/>
      <point x="254" y="653"/>
      <point x="270" y="629"/>
      <point x="270" y="565" type="curve" smooth="yes"/>
      <point x="270" y="501"/>
      <point x="254" y="473"/>
    </contour>
    <contour>
      <point x="76" y="355" type="line"/>
      <point x="76" y="295" type="line"/>
      <point x="329" y="295" type="line"/>
      <point x="329" y="355" type="line"/>
    </contour>
  </outline>
</glyph>
<glyph name="AE" format="2">
  <advance width="850"/>
  <unicode hex="00C6"/>
  <anchor x="559" y="0" name="bottom"/>
  <anchor x="559" y="700" name="top"/>
  <outline>
    <contour>
      <point x="384" y="632" type="line"/>
      <point x="384" y="0" type="line"/>
      <point x="805" y="0" type="line"/>
      <point x="805" y="68" type="line"/>
      <point x="462" y="68" type="line"/>
      <point x="462" y="323" type="line"/>
      <point x="745" y="323" type="line"/>
      <point x="745" y="389" type="line"/>
      <point x="462" y="389" type="line"/>
      <point x="462" y="632" type="line"/>
      <point x="805" y="632" type="line"/>
      <point x="805" y="700" type="line"/>
      <point x="277" y="700" type="line"/>
      <point x="-4" y="0" type="line"/>
      <point x="72" y="0" type="line"/>
      <point x="324" y="632" type="line"/>
    </contour>
    <contour>
      <point x="400" y="187" type="line"/>
      <point x="400" y="255" type="line"/>
      <point x="138" y="255" type="line"/>
      <point x="117" y="187" type="line"/>
    </contour>
  </outline>
</glyph>
<glyph name="multiply" format="2">
	<advance width="560"/>
	<unicode hex="00D7"/>
	<outline>
		<contour>
			<point x="132" y="483" type="line"/>
			<point x="82" y="433" type="line"/>
			<point x="231" y="285" type="line"/>
			<point x="82" y="137" type="line"/>
			<point x="132" y="87" type="line"/>
			<point x="280" y="236" type="line"/>
			<point x="428" y="87" type="line"/>
			<point x="478" y="137" type="line"/>
			<point x="329" y="285" type="line"/>
			<point x="478" y="433" type="line"/>
			<point x="428" y="483" type="line"/>
			<point x="280" y="334" type="line"/>
		</contour>
	</outline>
</glyph>
<glyph name="Thorn" format="2">
	<advance width="596"/>
	<unicode hex="00DE"/>
	<outline>
		<contour>
			<point x="85" y="580" type="line"/>
			<point x="85" y="153" type="line"/>
			<point x="328" y="153" type="line" smooth="yes"/>
			<point x="479" y="153"/>
			<point x="549" y="238"/>
			<point x="549" y="373" type="curve" smooth="yes"/>
			<point x="549" y="507"/>
			<point x="479" y="580"/>
			<point x="328" y="580" type="curve" smooth="yes"/>
		</contour>
		<contour>
			<point x="327" y="221" type="curve" smooth="yes"/>
			<point x="163" y="221" type="line"/>
			<point x="163" y="512" type="line"/>
			<point x="327" y="512" type="line" smooth="yes"/>
			<point x="428" y="512"/>
			<point x="469" y="463"/>
			<point x="469" y="373" type="curve" smooth="yes"/>
			<point x="469" y="282"/>
			<point x="428" y="221"/>
		</contour>
		<component base="I"/>
	</outline>
</glyph>
<glyph name="germandbls" format="2">
  <advance width="574"/>
  <unicode hex="00DF"/>
  <outline>
    <contour>
      <point x="73" y="0" type="line"/>
      <point x="149" y="0" type="line"/>
      <point x="149" y="553" type="line" smooth="yes"/>
      <point x="149" y="648"/>
      <point x="183" y="673"/>
      <point x="271" y="673" type="curve" smooth="yes"/>
      <point x="359" y="673"/>
      <point x="386" y="640"/>
      <point x="386" y="587" type="curve" smooth="yes"/>
      <point x="386" y="548"/>
      <point x="371" y="531"/>
      <point x="339" y="508" type="curve" smooth="yes"/>
      <point x="279" y="465"/>
      <point x="245" y="455"/>
      <point x="245" y="391" type="curve" smooth="yes"/>
      <point x="245" y="345"/>
      <point x="262" y="325"/>
      <point x="303" y="300" type="curve" smooth="yes"/>
      <point x="409" y="236" type="line" smooth="yes"/>
      <point x="454" y="209"/>
      <point x="463" y="190"/>
      <point x="463" y="152" type="curve" smooth="yes"/>
      <point x="463" y="89"/>
      <point x="434" y="57"/>
      <point x="345" y="57" type="curve" smooth="yes"/>
      <point x="297" y="57"/>
      <point x="212" y="68"/>
      <point x="212" y="68" type="curve"/>
      <point x="209" y="5" type="line"/>
      <point x="209" y="5"/>
      <point x="280" y="-10"/>
      <point x="347" y="-10" type="curve" smooth="yes"/>
      <point x="476" y="-10"/>
      <point x="541" y="39"/>
      <point x="541" y="159" type="curve" smooth="yes"/>
      <point x="541" y="228"/>
      <point x="523" y="260"/>
      <point x="462" y="295" type="curve" smooth="yes"/>
      <point x="353" y="357" type="line" smooth="yes"/>
      <point x="327" y="372"/>
      <point x="319" y="384"/>
      <point x="319" y="399" type="curve" smooth="yes"/>
      <point x="319" y="432"/>
      <point x="356" y="444"/>
      <point x="393" y="463" type="curve" smooth="yes"/>
      <point x="436" y="485"/>
      <point x="464" y="511"/>
      <point x="464" y="590" type="curve" smooth="yes"/>
      <point x="464" y="684"/>
      <point x="413" y="740"/>
      <point x="271" y="740" type="curve" smooth="yes"/>
      <point x="138" y="740"/>
      <point x="73" y="694"/>
      <point x="73" y="562" type="curve" smooth="yes"/>
    </contour>
  </outline>
</glyph>
<glyph name="ae" format="2">
	<advance width="804"/>
	<unicode hex="00E6"/>
	<anchor x="402" y="0" name="bottom"/>
	<anchor x="402" y="500" name="top"/>
	<outline>
		<contour>
			<point x="555" y="56" type="curve" smooth="yes"/>
			<point x="457" y="56"/>
			<point x="424" y="113"/>
			<point x="424" y="219" type="curve"/>
			<point x="754" y="219" type="line"/>
			<point x="758" y="276" type="line"/>
			<point x="758" y="444"/>
			<point x="690" y="514"/>
			<point x="557" y="514" type="curve" smooth="yes"/>
			<point x="491" y="514"/>
			<point x="436" y="494"/>
			<point x="403" y="451" type="curve"/>
			<point x="379" y="492"/>
			<point x="334" y="514"/>
			<point x="266" y="514" type="curve" smooth="yes"/>
			<point x="188" y="514"/>
			<point x="66" y="493"/>
			<point x="66" y="493" type="curve"/>
			<point x="69" y="435" type="line"/>
			<point x="69" y="435"/>
			<point x="188" y="448"/>
			<point x="262" y="448" type="curve" smooth="yes"/>
			<point x="317" y="448"/>
			<point x="348" y="421"/>
			<point x="348" y="353" type="curve" smooth="yes"/>
			<point x="348" y="306" type="line"/>
			<point x="200" y="292" type="line" smooth="yes"/>
			<point x="97" y="282"/>
			<point x="39" y="248"/>
			<point x="39" y="143" type="curve" smooth="yes"/>
			<point x="39" y="44"/>
			<point x="86" y="-10"/>
			<point x="175" y="-10" type="curve" smooth="yes"/>
			<point x="272" y="-10"/>
			<point x="354" y="27"/>
			<point x="367" y="33" type="curve" smooth="yes"/>
			<point x="399" y="47" type="line"/>
			<point x="430" y="12"/>
			<point x="478" y="-10"/>
			<point x="546" y="-10" type="curve" smooth="yes"/>
			<point x="627" y="-10"/>
			<point x="741" y="6"/>
			<point x="741" y="6" type="curve"/>
			<point x="739" y="65" type="line"/>
			<point x="739" y="65"/>
			<point x="630" y="56"/>
		</contour>
		<contour>
			<point x="188" y="53" type="curve" smooth="yes"/>
			<point x="143" y="53"/>
			<point x="115" y="86"/>
			<point x="115" y="145" type="curve" smooth="yes"/>
			<point x="115" y="204"/>
			<point x="143" y="229"/>
			<point x="201" y="235" type="curve" smooth="yes"/>
			<point x="347" y="249" type="line"/>
			<point x="347" y="188"/>
			<point x="351" y="131"/>
			<point x="366" y="91" type="curve"/>
			<point x="356" y="86"/>
			<point x="260" y="53"/>
		</contour>
		<contour>
			<point x="683" y="279" type="curve"/>
			<point x="424" y="279" type="line"/>
			<point x="424" y="403"/>
			<point x="471" y="451"/>
			<point x="557" y="451" type="curve" smooth="yes"/>
			<point x="645" y="451"/>
			<point x="683" y="406"/>
		</contour>
	</outline>
</glyph>
<glyph name="eth" format="2">
  <advance width="557"/>
  <unicode hex="00F0"/>
  <outline>
    <contour>
      <point x="131" y="579" type="line"/>
      <point x="164" y="532" type="line"/>
      <point x="286" y="613" type="line"/>
      <point x="381" y="557"/>
      <point x="419" y="486"/>
      <point x="423" y="394" type="curve"/>
      <point x="423" y="394"/>
      <point x="332" y="430"/>
      <point x="258" y="430" type="curve" smooth="yes"/>
      <point x="123" y="430"/>
      <point x="48" y="344"/>
      <point x="48" y="208" type="curve" smooth="yes"/>
      <point x="48" y="68"/>
      <point x="130" y="-9"/>
      <point x="271" y="-9" type="curve" smooth="yes"/>
      <point x="435" y="-9"/>
      <point x="502" y="93"/>
      <point x="502" y="352" type="curve" smooth="yes"/>
      <point x="502" y="497"/>
      <point x="449" y="591"/>
      <point x="348" y="655" type="curve"/>
      <point x="425" y="707" type="line"/>
      <point x="391" y="754" type="line"/>
      <point x="290" y="686" type="line"/>
      <point x="241" y="709"/>
      <point x="183" y="727"/>
      <point x="117" y="740" type="curve"/>
      <point x="102" y="684" type="line"/>
      <point x="149" y="672"/>
      <point x="191" y="658"/>
      <point x="226" y="643" type="curve"/>
    </contour>
    <contour>
      <point x="262" y="363" type="curve" smooth="yes"/>
      <point x="334" y="363"/>
      <point x="424" y="327"/>
      <point x="424" y="327" type="curve"/>
      <point x="423" y="124"/>
      <point x="378" y="59"/>
      <point x="271" y="59" type="curve" smooth="yes"/>
      <point x="175" y="59"/>
      <point x="127" y="116"/>
      <point x="127" y="208" type="curve" smooth="yes"/>
      <point x="127" y="298"/>
      <point x="174" y="363"/>
    </contour>
  </outline>
</glyph>
<glyph name="divide" format="2">
  <advance width="560"/>
  <unicode hex="00F7"/>
  <outline>
    <contour>
      <point x="75" y="251" type="line"/>
      <point x="485" y="251" type="line"/>
      <point x="485" y="319" type="line"/>
      <point x="75" y="319" type="line"/>
    </contour>
    <contour>
      <point x="240" y="169" type="line"/>
      <point x="240" y="68" type="line"/>
      <point x="319" y="68" type="line"/>
      <point x="319" y="169" type="line"/>
    </contour>
    <contour>
      <point x="240" y="502" type="line"/>
      <point x="240" y="401" type="line"/>
      <point x="319" y="401" type="line"/>
      <point x="319" y="502" type="line"/>
    </contour>
  </outline>
</glyph>
<glyph name="oslash" format="2">
  <advance width="530"/>
  <unicode hex="00F8"/>
  <anchor x="264" y="500" name="top"/>
  <outline>
    <contour>
      <point x="382" y="557" type="line"/>
      <point x="91" y="-30" type="line"/>
      <point x="148" y="-57" type="line"/>
      <point x="439" y="530" type="line"/>
    </contour>
    <component base="o"/>
  </outline>
</glyph>
<glyph name="thorn" format="2">
  <advance width="529"/>
  <unicode hex="00FE"/>
  <outline>
    <contour>
      <point x="73" y="730" type="line"/>
      <point x="73" y="-230" type="line"/>
      <point x="149" y="-230" type="line"/>
      <point x="149" y="1" type="line"/>
      <point x="163" y="-2"/>
      <point x="214" y="-10"/>
      <point x="261" y="-10" type="curve" smooth="yes"/>
      <point x="414" y="-10"/>
      <point x="479" y="60"/>
      <point x="479" y="256" type="curve" smooth="yes"/>
      <point x="479" y="437"/>
      <point x="423" y="514"/>
      <point x="298" y="514" type="curve" smooth="yes"/>
      <point x="224" y="514"/>
      <point x="148" y="468"/>
      <point x="148" y="468" type="curve"/>
      <point x="148" y="730" type="line"/>
    </contour>
    <contour>
      <point x="287" y="447" type="curve" smooth="yes"/>
      <point x="359" y="447"/>
      <point x="401" y="397"/>
      <point x="401" y="256" type="curve" smooth="yes"/>
      <point x="401" y="112"/>
      <point x="366" y="55"/>
      <point x="257" y="55" type="curve" smooth="yes"/>
      <point x="214" y="55"/>
      <point x="162" y="64"/>
      <point x="149" y="66" type="curve"/>
      <point x="149" y="407" type="line"/>
      <point x="149" y="407"/>
      <point x="219" y="447"/>
    </contour>
  </outline>
</glyph>
<glyph name="idotless" format="2">
	<advance width="222"/>
	<unicode hex="0131"/>
	<anchor x="111" y="0" name="bottom"/>
	<anchor x="149" y="0" name="ogonek"/>
	<anchor x="111" y="500" name="top"/>
	<outline>
		<contour>
			<point x="73" y="500" type="line"/>
			<point x="73" y="0" type="line"/>
			<point x="149" y="0" type="line"/>
			<point x="149" y="500" type="line"/>
		</contour>
	</outline>
</glyph>
<glyph name="Eng" format="2">
	<advance width="679"/>
	<unicode hex="014A"/>
	<outline>
		<contour>
			<point x="85" y="700" type="line"/>
			<point x="85" y="0" type="line"/>
			<point x="163" y="0" type="line"/>
			<point x="163" y="632" type="line"/>
			<point x="190" y="632" type="line"/>
			<point x="435" y="0" type="line"/>
			<point x="515" y="0" type="line"/>
			<point x="515" y="-11" type="line" smooth="yes"/>
			<point x="515" y="-114"/>
			<point x="494" y="-120"/>
			<point x="403" y="-120" type="curve"/>
			<point x="403" y="-189" type="line"/>
			<point x="535" y="-189"/>
			<point x="594" y="-172"/>
			<point x="594" y="-22" type="curve" smooth="yes"/>
			<point x="594" y="700" type="line"/>
			<point x="516" y="700" type="line"/>
			<point x="516" y="74" type="line"/>
			<point x="486" y="74" type="line"/>
			<point x="244" y="700" type="line"/>
		</contour>
	</outline>
</glyph>
<glyph name="eng" format="2">
  <advance width="542"/>
  <unicode hex="014B"/>
  <outline>
    <contour>
      <point x="474" y="-22" type="curve" smooth="yes"/>
      <point x="474" y="20" type="line"/>
      <point x="398" y="20" type="line"/>
      <point x="398" y="-19" type="line" smooth="yes"/>
      <point x="398" y="-113"/>
      <point x="376" y="-119"/>
      <point x="285" y="-119" type="curve"/>
      <point x="285" y="-189" type="line"/>
      <point x="417" y="-189"/>
      <point x="474" y="-172"/>
    </contour>
    <component base="n"/>
  </outline>
</glyph>
<glyph name="OE" format="2">
  <advance width="927"/>
  <unicode hex="0152"/>
  <anchor x="514" y="0" name="bottom"/>
  <anchor x="514" y="700" name="top"/>
  <outline>
    <contour>
      <point x="466" y="0" type="curve"/>
      <point x="879" y="0" type="line"/>
      <point x="879" y="68" type="line"/>
      <point x="542" y="68" type="line"/>
      <point x="542" y="323" type="line"/>
      <point x="819" y="323" type="line"/>
      <point x="819" y="389" type="line"/>
      <point x="542" y="389" type="line"/>
      <point x="542" y="632" type="line"/>
      <point x="879" y="632" type="line"/>
      <point x="879" y="700" type="line"/>
      <point x="464" y="700" type="line"/>
      <point x="464" y="700"/>
      <point x="366" y="710"/>
      <point x="310" y="710" type="curve" smooth="yes"/>
      <point x="108" y="710"/>
      <point x="58" y="587"/>
      <point x="58" y="345" type="curve" smooth="yes"/>
      <point x="58" y="102"/>
      <point x="110" y="-10"/>
      <point x="323" y="-10" type="curve" smooth="yes"/>
      <point x="370" y="-10"/>
      <point x="466" y="0"/>
    </contour>
    <contour>
      <point x="333" y="59" type="curve" smooth="yes"/>
      <point x="170" y="59"/>
      <point x="138" y="139"/>
      <point x="138" y="346" type="curve" smooth="yes"/>
      <point x="138" y="584"/>
      <point x="184" y="641"/>
      <point x="318" y="641" type="curve" smooth="yes"/>
      <point x="385" y="641"/>
      <point x="464" y="631"/>
      <point x="464" y="631" type="curve"/>
      <point x="464" y="70" type="line"/>
      <point x="464" y="70"/>
      <point x="375" y="59"/>
    </contour>
  </outline>
</glyph>
<glyph name="oe" format="2">
	<advance width="858"/>
	<unicode hex="0153"/>
	<anchor x="440" y="0" name="bottom"/>
	<anchor x="444" y="500" name="top"/>
	<outline>
		<contour>
			<point x="609" y="56" type="curve" smooth="yes"/>
			<point x="511" y="56"/>
			<point x="478" y="113"/>
			<point x="478" y="219" type="curve"/>
			<point x="808" y="219" type="line"/>
			<point x="812" y="276" type="line"/>
			<point x="812" y="444"/>
			<point x="744" y="514"/>
			<point x="615" y="514" type="curve" smooth="yes"/>
			<point x="536" y="514"/>
			<point x="478" y="488"/>
			<point x="444" y="427" type="curve"/>
			<point x="413" y="485"/>
			<point x="359" y="514"/>
			<point x="265" y="514" type="curve" smooth="yes"/>
			<point x="107" y="514"/>
			<point x="50" y="433"/>
			<point x="50" y="257" type="curve" smooth="yes"/>
			<point x="50" y="74"/>
			<point x="96" y="-10"/>
			<point x="265" y="-10" type="curve" smooth="yes"/>
			<point x="357" y="-10"/>
			<point x="411" y="15"/>
			<point x="440" y="70" type="curve"/>
			<point x="469" y="18"/>
			<point x="517" y="-10"/>
			<point x="600" y="-10" type="curve" smooth="yes"/>
			<point x="681" y="-10"/>
			<point x="795" y="6"/>
			<point x="795" y="6" type="curve"/>
			<point x="793" y="65" type="line"/>
			<point x="793" y="65"/>
			<point x="684" y="56"/>
		</contour>
		<contour>
			<point x="265" y="55" type="curve" smooth="yes"/>
			<point x="148" y="55"/>
			<point x="128" y="113"/>
			<point x="128" y="257" type="curve" smooth="yes"/>
			<point x="128" y="398"/>
			<point x="159" y="449"/>
			<point x="265" y="449" type="curve" smooth="yes"/>
			<point x="362" y="449"/>
			<point x="402" y="412"/>
			<point x="402" y="255" type="curve" smooth="yes"/>
			<point x="402" y="114"/>
			<point x="383" y="55"/>
		</contour>
		<contour>
			<point x="737" y="279" type="curve"/>
			<point x="477" y="279" type="line"/>
			<point x="477" y="399"/>
			<point x="523" y="451"/>
			<point x="613" y="451" type="curve" smooth="yes"/>
			<point x="699" y="451"/>
			<point x="737" y="403"/>
		</contour>
	</outline>
</glyph>
<glyph name="Schwa" format="2">
	<advance width="640"/>
	<unicode hex="018F"/>
	<outline>
		<contour>
			<point x="304" y="646" type="curve" smooth="yes"/>
			<point x="442" y="646"/>
			<point x="502" y="602"/>
			<point x="502" y="381" type="curve"/>
			<point x="59" y="381" type="line"/>
			<point x="52" y="317" type="line"/>
			<point x="52" y="109"/>
			<point x="125" y="-12"/>
			<point x="313" y="-12" type="curve" smooth="yes"/>
			<point x="471" y="-12"/>
			<point x="583" y="75"/>
			<point x="583" y="365" type="curve" smooth="yes"/>
			<point x="583" y="592"/>
			<point x="517" y="714"/>
			<point x="323" y="714" type="curve" smooth="yes"/>
			<point x="228" y="714"/>
			<point x="64" y="692"/>
			<point x="64" y="692" type="curve"/>
			<point x="67" y="627" type="line"/>
			<point x="67" y="627"/>
			<point x="216" y="646"/>
		</contour>
		<contour>
			<point x="132" y="313" type="curve"/>
			<point x="503" y="313" type="line"/>
			<point x="502" y="139"/>
			<point x="435" y="57"/>
			<point x="311" y="57" type="curve" smooth="yes"/>
			<point x="200" y="57"/>
			<point x="132" y="125"/>
		</contour>
	</outline>
</glyph>
<glyph name="Eopen" format="2">
  <advance width="545"/>
  <unicode hex="0190"/>
  <outline>
    <contour>
      <point x="498" y="684" type="line"/>
      <point x="498" y="684"/>
      <point x="398" y="714"/>
      <point x="292" y="714" type="curve" smooth="yes"/>
      <point x="126" y="714"/>
      <point x="72" y="649"/>
      <point x="72" y="521" type="curve" smooth="yes"/>
      <point x="72" y="412"/>
      <point x="156" y="384"/>
      <point x="176" y="371" type="curve"/>
      <point x="105" y="346"/>
      <point x="55" y="315"/>
      <point x="55" y="201" type="curve" smooth="yes"/>
      <point x="55" y="58"/>
      <point x="124" y="-12"/>
      <point x="278" y="-12" type="curve" smooth="yes"/>
      <point x="388" y="-12"/>
      <point x="508" y="17"/>
      <point x="508" y="17" type="curve"/>
      <point x="501" y="79" type="line"/>
      <point x="501" y="79"/>
      <point x="386" y="55"/>
      <point x="286" y="55" type="curve" smooth="yes"/>
      <point x="182" y="56"/>
      <point x="135" y="101"/>
      <point x="135" y="198" type="curve" smooth="yes"/>
      <point x="135" y="295"/>
      <point x="199" y="332"/>
      <point x="279" y="332" type="curve" smooth="yes"/>
      <point x="420" y="332" type="line"/>
      <point x="420" y="398" type="line"/>
      <point x="279" y="398" type="line" smooth="yes"/>
      <point x="226" y="398"/>
      <point x="152" y="448"/>
      <point x="152" y="529" type="curve" smooth="yes"/>
      <point x="152" y="613"/>
      <point x="191" y="645"/>
      <point x="295" y="645" type="curve" smooth="yes"/>
      <point x="391" y="645"/>
      <point x="490" y="624"/>
      <point x="490" y="624" type="curve"/>
    </contour>
  </outline>
</glyph>
<glyph name="florin" format="2">
  <advance width="447"/>
  <unicode hex="0192"/>
  <outline>
    <contour>
      <point x="256" y="-50" type="curve" smooth="yes"/>
      <point x="256" y="332" type="line"/>
      <point x="401" y="332" type="line"/>
      <point x="401" y="396" type="line"/>
      <point x="256" y="396" type="line"/>
      <point x="256" y="487" type="line" smooth="yes"/>
      <point x="256" y="567"/>
      <point x="281" y="602"/>
      <point x="330" y="602" type="curve" smooth="yes"/>
      <point x="370" y="602"/>
      <point x="415" y="598"/>
      <point x="415" y="598" type="curve"/>
      <point x="416" y="661" type="line"/>
      <point x="416" y="661"/>
      <point x="356" y="670"/>
      <point x="316" y="670" type="curve" smooth="yes"/>
      <point x="199" y="670"/>
      <point x="181" y="577"/>
      <point x="181" y="465" type="curve" smooth="yes"/>
      <point x="181" y="396" type="line"/>
      <point x="118" y="396" type="line"/>
      <point x="118" y="332" type="line"/>
      <point x="181" y="332" type="line"/>
      <point x="181" y="-59" type="line" smooth="yes"/>
      <point x="181" y="-145"/>
      <point x="157" y="-173"/>
      <point x="106" y="-173" type="curve" smooth="yes"/>
      <point x="75" y="-173"/>
      <point x="15" y="-168"/>
      <point x="15" y="-168" type="curve"/>
      <point x="14" y="-232" type="line"/>
      <point x="14" y="-232"/>
      <point x="70" y="-240"/>
      <point x="112" y="-240" type="curve" smooth="yes"/>
      <point x="213" y="-240"/>
      <point x="256" y="-197"/>
    </contour>
  </outline>
</glyph>
<glyph name="Nhookleft" format="2">
  <advance width="679"/>
  <unicode hex="019D"/>
  <outline>
    <contour>
      <point x="163" y="-22" type="curve" smooth="yes"/>
      <point x="163" y="20" type="line"/>
      <point x="85" y="20" type="line"/>
      <point x="85" y="-19" type="line" smooth="yes"/>
      <point x="85" y="-113"/>
      <point x="63" y="-119"/>
      <point x="-28" y="-119" type="curve"/>
      <point x="-28" y="-189" type="line"/>
      <point x="104" y="-189"/>
      <point x="163" y="-172"/>
    </contour>
    <component base="N"/>
  </outline>
</glyph>
<glyph name="jdotless" format="2">
	<advance width="222"/>
	<unicode hex="0237"/>
	<anchor x="105" y="-230" name="bottom"/>
	<anchor x="110" y="500" name="top"/>
	<outline>
		<contour>
			<point x="73" y="500" type="line"/>
			<point x="73" y="-6" type="line" smooth="yes"/>
			<point x="73" y="-102"/>
			<point x="52" y="-125"/>
			<point x="-49" y="-184" type="curve"/>
			<point x="-19" y="-242" type="line"/>
			<point x="114" y="-174"/>
			<point x="149" y="-130"/>
			<point x="149" y="-7" type="curve" smooth="yes"/>
			<point x="149" y="500" type="line"/>
		</contour>
	</outline>
</glyph>
<glyph name="eopen" format="2">
	<advance width="471"/>
	<unicode hex="025B"/>
	<outline>
		<contour>
			<point x="426" y="493" type="line"/>
			<point x="426" y="493"/>
			<point x="353" y="514"/>
			<point x="256" y="514" type="curve" smooth="yes"/>
			<point x="101" y="514"/>
			<point x="62" y="457"/>
			<point x="62" y="371" type="curve" smooth="yes"/>
			<point x="62" y="295"/>
			<point x="116" y="279"/>
			<point x="135" y="270" type="curve"/>
			<point x="79" y="251"/>
			<point x="49" y="227"/>
			<point x="49" y="140" type="curve" smooth="yes"/>
			<point x="49" y="39"/>
			<point x="100" y="-10"/>
			<point x="246" y="-10" type="curve" smooth="yes"/>
			<point x="346" y="-10"/>
			<point x="433" y="11"/>
			<point x="433" y="11" type="curve"/>
			<point x="428" y="68" type="line"/>
			<point x="428" y="68"/>
			<point x="345" y="49"/>
			<point x="262" y="50" type="curve" smooth="yes"/>
			<point x="156" y="51"/>
			<point x="122" y="82"/>
			<point x="122" y="142" type="curve" smooth="yes"/>
			<point x="122" y="214"/>
			<point x="164" y="238"/>
			<point x="243" y="238" type="curve" smooth="yes"/>
			<point x="369" y="238" type="line"/>
			<point x="369" y="292" type="line"/>
			<point x="243" y="292" type="line" smooth="yes"/>
			<point x="184" y="292"/>
			<point x="134" y="308"/>
			<point x="134" y="367" type="curve" smooth="yes"/>
			<point x="134" y="417"/>
			<point x="153" y="454"/>
			<point x="266" y="454" type="curve" smooth="yes"/>
			<point x="338" y="454"/>
			<point x="420" y="438"/>
			<point x="420" y="438" type="curve"/>
		</contour>
	</outline>
</glyph>
<glyph name="nhookleft" format="2">
  <advance width="542"/>
  <unicode hex="0272"/>
  <outline>
    <contour>
      <point x="149" y="-22" type="curve" smooth="yes"/>
      <point x="149" y="20" type="line"/>
      <point x="73" y="20" type="line"/>
      <point x="73" y="-19" type="line" smooth="yes"/>
      <point x="73" y="-113"/>
      <point x="51" y="-119"/>
      <point x="-40" y="-119" type="curve"/>
      <point x="-40" y="-189" type="line"/>
      <point x="92" y="-189"/>
      <point x="149" y="-172"/>
    </contour>
    <component base="n"/>
  </outline>
</glyph>
<glyph name="ubar" format="2">
	<advance width="573"/>
	<unicode hex="0289"/>
	<outline>
		<contour>
			<point x="23" y="303" type="line"/>
			<point x="23" y="238" type="line"/>
			<point x="547" y="238" type="line"/>
			<point x="547" y="303" type="line"/>
		</contour>
		<component base="u" xOffset="20"/>
	</outline>
</glyph>
<glyph name="gravecomb" format="2">
	<advance width="342"/>
	<unicode hex="0300"/>
	<anchor x="171" y="500" name="_top"/>
	<anchor x="171" y="740" name="top"/>
	<outline>
		<contour>
			<point x="292" y="642" type="line"/>
			<point x="76" y="740" type="line"/>
			<point x="50" y="676" type="line"/>
			<point x="271" y="591" type="line"/>
		</contour>
	</outline>
</glyph>
<glyph name="circumflexcomb" format="2">
  <advance width="400"/>
  <unicode hex="0302"/>
  <anchor x="200" y="500" name="_top"/>
  <anchor x="200" y="740" name="top"/>
  <outline>
    <contour>
      <point x="200" y="682" type="line"/>
      <point x="275" y="596" type="line"/>
      <point x="350" y="596" type="line"/>
      <point x="236" y="735" type="line"/>
      <point x="164" y="735" type="line"/>
      <point x="50" y="596" type="line"/>
      <point x="125" y="596" type="line"/>
    </contour>
  </outline>
</glyph>
<glyph name="tildecomb" format="2">
  <advance width="441"/>
  <unicode hex="0303"/>
  <anchor x="220" y="500" name="_top"/>
  <anchor x="220" y="719" name="top"/>
  <outline>
    <contour>
      <point x="391" y="673" type="curve"/>
      <point x="361" y="711" type="line"/>
      <point x="361" y="711"/>
      <point x="313" y="673"/>
      <point x="292" y="673" type="curve" smooth="yes"/>
      <point x="262" y="673"/>
      <point x="193" y="719"/>
      <point x="153" y="719" type="curve" smooth="yes"/>
      <point x="112" y="719"/>
      <point x="50" y="657"/>
      <point x="50" y="657" type="curve"/>
      <point x="80" y="619" type="line"/>
      <point x="80" y="619"/>
      <point x="129" y="659"/>
      <point x="153" y="659" type="curve" smooth="yes"/>
      <point x="185" y="659"/>
      <point x="252" y="612"/>
      <point x="292" y="612" type="curve" smooth="yes"/>
      <point x="332" y="612"/>
      <point x="381" y="663"/>
    </contour>
  </outline>
</glyph>
<glyph name="macroncomb" format="2">
	<advance width="375"/>
	<unicode hex="0304"/>
	<anchor x="188" y="500" name="_top"/>
	<anchor x="188" y="683" name="top"/>
	<outline>
		<contour>
			<point x="50" y="683" type="line"/>
			<point x="50" y="624" type="line"/>
			<point x="325" y="624" type="line"/>
			<point x="325" y="683" type="line"/>
		</contour>
	</outline>
</glyph>
<glyph name="brevecomb" format="2">
  <advance width="396"/>
  <unicode hex="0306"/>
  <anchor x="198" y="500" name="_top"/>
  <anchor x="198" y="731" name="top"/>
  <outline>
    <contour>
      <point x="111" y="731" type="curve"/>
      <point x="50" y="731" type="line"/>
      <point x="54" y="654"/>
      <point x="108" y="591"/>
      <point x="198" y="591" type="curve" smooth="yes"/>
      <point x="288" y="591"/>
      <point x="342" y="654"/>
      <point x="346" y="731" type="curve"/>
      <point x="285" y="731" type="line"/>
      <point x="283" y="682"/>
      <point x="251" y="647"/>
      <point x="198" y="647" type="curve" smooth="yes"/>
      <point x="145" y="647"/>
      <point x="113" y="682"/>
    </contour>
  </outline>
</glyph>
<glyph name="dotaccentcomb" format="2">
	<advance width="175"/>
	<unicode hex="0307"/>
	<anchor x="88" y="500" name="_top"/>
	<anchor x="88" y="720" name="top"/>
	<outline>
		<contour>
			<point x="50" y="720" type="line"/>
			<point x="50" y="624" type="line"/>
			<point x="125" y="624" type="line"/>
			<point x="125" y="720" type="line"/>
		</contour>
	</outline>
</glyph>
<glyph name="dieresiscomb" format="2">
	<advance width="373"/>
	<unicode hex="0308"/>
	<anchor x="187" y="500" name="_top"/>
	<anchor x="187" y="711" name="top"/>
	<outline>
		<contour>
			<point x="50" y="711" type="line"/>
			<point x="50" y="624" type="line"/>
			<point x="122" y="624" type="line"/>
			<point x="122" y="711" type="line"/>
		</contour>
		<contour>
			<point x="250" y="711" type="line"/>
			<point x="250" y="624" type="line"/>
			<point x="323" y="624" type="line"/>
			<point x="323" y="711" type="line"/>
		</contour>
	</outline>
</glyph>
<glyph name="ringcomb" format="2">
  <advance width="307"/>
  <unicode hex="030A"/>
  <anchor x="154" y="500" name="_top"/>
  <anchor x="154" y="749" name="top"/>
  <outline>
    <contour>
      <point x="49" y="648" type="curve" smooth="yes"/>
      <point x="49" y="589"/>
      <point x="95" y="545"/>
      <point x="154" y="545" type="curve" smooth="yes"/>
      <point x="212" y="545"/>
      <point x="259" y="589"/>
      <point x="259" y="648" type="curve" smooth="yes"/>
      <point x="259" y="706"/>
      <point x="212" y="750"/>
      <point x="154" y="750" type="curve" smooth="yes"/>
      <point x="95" y="750"/>
      <point x="49" y="706"/>
    </contour>
    <contour>
      <point x="99" y="648" type="curve" smooth="yes"/>
      <point x="99" y="681"/>
      <point x="123" y="704"/>
      <point x="154" y="704" type="curve" smooth="yes"/>
      <point x="185" y="704"/>
      <point x="209" y="681"/>
      <point x="209" y="648" type="curve" smooth="yes"/>
      <point x="209" y="614"/>
      <point x="185" y="591"/>
      <point x="154" y="591" type="curve" smooth="yes"/>
      <point x="123" y="591"/>
      <point x="99" y="614"/>
    </contour>
  </outline>
</glyph>
<glyph name="hungarumlautcomb" format="2">
	<advance width="495"/>
	<unicode hex="030B"/>
	<anchor x="248" y="500" name="_top"/>
	<anchor x="248" y="740" name="top"/>
	<outline>
		<contour>
			<point x="50" y="638" type="line"/>
			<point x="74" y="591" type="line"/>
			<point x="245" y="676" type="line"/>
			<point x="211" y="740" type="line"/>
		</contour>
		<contour>
			<point x="250" y="638" type="line"/>
			<point x="274" y="591" type="line"/>
			<point x="445" y="676" type="line"/>
			<point x="411" y="740" type="line"/>
		</contour>
	</outline>
</glyph>
<glyph name="commaabovecomb" format="2">
  <advance width="232"/>
  <unicode hex="0313"/>
  <anchor x="116" y="500" name="_top"/>
  <anchor x="116" y="740" name="top"/>
  <outline>
    <contour>
      <point x="121" y="740" type="line"/>
      <point x="51" y="622" type="line"/>
      <point x="95" y="591" type="line"/>
      <point x="182" y="702" type="line"/>
    </contour>
  </outline>
</glyph>
<glyph name="dotbelowcomb" format="2">
  <advance width="175"/>
  <unicode hex="0323"/>
  <anchor x="88" y="0" name="_bottom"/>
  <anchor x="88" y="-178" name="bottom"/>
  <outline>
    <contour>
      <point x="50" y="-82" type="line"/>
      <point x="50" y="-178" type="line"/>
      <point x="125" y="-178" type="line"/>
      <point x="125" y="-82" type="line"/>
    </contour>
  </outline>
</glyph>
<glyph name="commaaccentcomb" format="2">
  <advance width="231"/>
  <unicode hex="0326"/>
  <anchor x="143" y="0" name="_bottom"/>
  <anchor x="99" y="-236" name="bottom"/>
  <outline>
    <contour>
      <point x="133" y="-77" type="line"/>
      <point x="45" y="-221" type="line"/>
      <point x="89" y="-252" type="line"/>
      <point x="191" y="-120" type="line"/>
    </contour>
  </outline>
</glyph>
<glyph name="cedillacomb" format="2">
	<advance width="283"/>
	<unicode hex="0327"/>
	<anchor x="122" y="0" name="_bottom"/>
	<anchor x="144" y="-217" name="bottom"/>
	<outline>
		<contour>
			<point x="233" y="-127" type="curve" smooth="yes"/>
			<point x="233" y="-63"/>
			<point x="196" y="-49"/>
			<point x="133" y="-49" type="curve"/>
			<point x="144" y="1" type="line"/>
			<point x="99" y="1" type="line"/>
			<point x="79" y="-93" type="line"/>
			<point x="123" y="-93" type="line" smooth="yes"/>
			<point x="151" y="-93"/>
			<point x="167" y="-102"/>
			<point x="167" y="-127" type="curve" smooth="yes"/>
			<point x="167" y="-155"/>
			<point x="151" y="-165"/>
			<point x="123" y="-165" type="curve" smooth="yes"/>
			<point x="96" y="-165"/>
			<point x="53" y="-162"/>
			<point x="53" y="-162" type="curve"/>
			<point x="50" y="-210" type="line"/>
			<point x="50" y="-210"/>
			<point x="96" y="-217"/>
			<point x="140" y="-217" type="curve" smooth="yes"/>
			<point x="196" y="-217"/>
			<point x="233" y="-190"/>
		</contour>
	</outline>
</glyph>
<glyph name="ogonekcomb" format="2">
	<advance width="271"/>
	<unicode hex="0328"/>
	<anchor x="194" y="0" name="_ogonek"/>
	<outline>
		<contour>
			<point x="194" y="0" type="curve"/>
			<point x="133" y="8" type="line"/>
			<point x="133" y="8"/>
			<point x="50" y="-60"/>
			<point x="50" y="-119" type="curve" smooth="yes"/>
			<point x="50" y="-173"/>
			<point x="90" y="-206"/>
			<point x="142" y="-206" type="curve" smooth="yes"/>
			<point x="176" y="-206"/>
			<point x="221" y="-197"/>
			<point x="221" y="-197" type="curve"/>
			<point x="214" y="-139" type="line"/>
			<point x="214" y="-139"/>
			<point x="178" y="-145"/>
			<point x="164" y="-145" type="curve" smooth="yes"/>
			<point x="140" y="-145"/>
			<point x="123" y="-127"/>
			<point x="123" y="-102" type="curve" smooth="yes"/>
			<point x="123" y="-69"/>
			<point x="194" y="0"/>
		</contour>
	</outline>
</glyph>
<glyph name="strokeshortcomb" format="2">
	<advance width="346"/>
	<unicode hex="0335"/>
	<anchor x="212" y="615" name="_stroke"/>
	<outline>
		<contour>
			<point x="0" y="648" type="line"/>
			<point x="0" y="584" type="line"/>
			<point x="346" y="584" type="line"/>
			<point x="346" y="648" type="line"/>
		</contour>
	</outline>
</glyph>
<glyph name="slashshortcomb" format="2">
	<advance width="349"/>
	<unicode hex="0337"/>
	<anchor x="175" y="260" name="_center"/>
	<outline>
		<contour>
			<point x="295" y="565" type="line"/>
			<point x="0" y="-20" type="line"/>
			<point x="53" y="-45" type="line"/>
			<point x="349" y="539" type="line"/>
		</contour>
	</outline>
</glyph>
<glyph name="slashlongcomb" format="2">
	<advance width="442"/>
	<unicode hex="0338"/>
	<anchor x="221" y="354" name="_center"/>
	<outline>
		<contour>
			<point x="385" y="755" type="line"/>
			<point x="0" y="-20" type="line"/>
			<point x="57" y="-47" type="line"/>
			<point x="442" y="728" type="line"/>
		</contour>
	</outline>
</glyph>
<glyph name="Omega" format="2">
  <advance width="576"/>
  <unicode hex="03A9"/>
  <outline>
    <contour>
      <point x="288" y="601" type="curve" smooth="yes"/>
      <point x="413" y="601"/>
      <point x="430" y="521"/>
      <point x="430" y="356" type="curve" smooth="yes"/>
      <point x="430" y="241"/>
      <point x="326" y="57"/>
      <point x="326" y="57" type="curve"/>
      <point x="326" y="0" type="line"/>
      <point x="523" y="0" type="line"/>
      <point x="523" y="66" type="line"/>
      <point x="400" y="66" type="line"/>
      <point x="400" y="66"/>
      <point x="509" y="230"/>
      <point x="509" y="376" type="curve" smooth="yes"/>
      <point x="509" y="571"/>
      <point x="461" y="670"/>
      <point x="288" y="670" type="curve" smooth="yes"/>
      <point x="115" y="670"/>
      <point x="67" y="571"/>
      <point x="67" y="376" type="curve" smooth="yes"/>
      <point x="67" y="230"/>
      <point x="176" y="66"/>
      <point x="176" y="66" type="curve"/>
      <point x="53" y="66" type="line"/>
      <point x="53" y="0" type="line"/>
      <point x="250" y="0" type="line"/>
      <point x="250" y="57" type="line"/>
      <point x="250" y="57"/>
      <point x="146" y="241"/>
      <point x="146" y="356" type="curve" smooth="yes"/>
      <point x="146" y="521"/>
      <point x="163" y="601"/>
    </contour>
  </outline>
</glyph>
<glyph name="pi" format="2">
  <advance width="569"/>
  <unicode hex="03C0"/>
  <outline>
    <contour>
      <point x="361" y="435" type="line"/>
      <point x="361" y="154" type="line" smooth="yes"/>
      <point x="361" y="26"/>
      <point x="390" y="-4"/>
      <point x="523" y="-4" type="curve"/>
      <point x="523" y="61" type="line"/>
      <point x="453" y="61"/>
      <point x="436" y="79"/>
      <point x="436" y="154" type="curve" smooth="yes"/>
      <point x="436" y="437" type="line"/>
      <point x="504" y="439"/>
      <point x="532" y="451"/>
      <point x="532" y="451" type="curve"/>
      <point x="532" y="514" type="line"/>
      <point x="532" y="514"/>
      <point x="474" y="500"/>
      <point x="401" y="500" type="curve" smooth="yes"/>
      <point x="166" y="500" type="line" smooth="yes"/>
      <point x="83" y="500"/>
      <point x="24" y="485"/>
      <point x="24" y="485" type="curve"/>
      <point x="24" y="422" type="line"/>
      <point x="24" y="422"/>
      <point x="67" y="434"/>
      <point x="132" y="435" type="curve"/>
      <point x="101" y="0" type="line"/>
      <point x="177" y="0" type="line"/>
      <point x="205" y="435" type="line"/>
    </contour>
  </outline>
</glyph>
<glyph name="baht" format="2">
  <advance width="597"/>
  <unicode hex="0E3F"/>
  <outline>
    <contour>
      <point x="325" y="660" type="curve" smooth="yes"/>
      <point x="85" y="660" type="line"/>
      <point x="85" y="0" type="line"/>
      <point x="337" y="0" type="line" smooth="yes"/>
      <point x="459" y="0"/>
      <point x="550" y="52"/>
      <point x="550" y="184" type="curve" smooth="yes"/>
      <point x="550" y="288"/>
      <point x="492" y="320"/>
      <point x="435" y="340" type="curve"/>
      <point x="488" y="365"/>
      <point x="525" y="406"/>
      <point x="525" y="489" type="curve" smooth="yes"/>
      <point x="525" y="610"/>
      <point x="452" y="660"/>
    </contour>
    <contour>
      <point x="162" y="306" type="line"/>
      <point x="329" y="306" type="line" smooth="yes"/>
      <point x="407" y="306"/>
      <point x="468" y="274"/>
      <point x="468" y="181" type="curve" smooth="yes"/>
      <point x="468" y="91"/>
      <point x="413" y="66"/>
      <point x="334" y="66" type="curve" smooth="yes"/>
      <point x="162" y="66" type="line"/>
    </contour>
    <contour>
      <point x="162" y="594" type="line"/>
      <point x="322" y="594" type="line" smooth="yes"/>
      <point x="405" y="594"/>
      <point x="445" y="564"/>
      <point x="445" y="482" type="curve" smooth="yes"/>
      <point x="445" y="406"/>
      <point x="410" y="368"/>
      <point x="328" y="368" type="curve" smooth="yes"/>
      <point x="162" y="368" type="line"/>
    </contour>
    <contour>
      <point x="186" y="780" type="line"/>
      <point x="186" y="645" type="line"/>
      <point x="254" y="645" type="line"/>
      <point x="254" y="780" type="line"/>
    </contour>
    <contour>
      <point x="334" y="780" type="line"/>
      <point x="334" y="645" type="line"/>
      <point x="402" y="645" type="line"/>
      <point x="402" y="780" type="line"/>
    </contour>
    <contour>
      <point x="186" y="15" type="line"/>
      <point x="186" y="-120" type="line"/>
      <point x="254" y="-120" type="line"/>
      <point x="254" y="15" type="line"/>
    </contour>
    <contour>
      <point x="334" y="15" type="line"/>
      <point x="334" y="-120" type="line"/>
      <point x="402" y="-120" type="line"/>
      <point x="402" y="15" type="line"/>
    </contour>
  </outline>
</glyph>
<glyph name="Germandbls" format="2">
	<advance width="619"/>
	<unicode hex="1E9E"/>
	<outline>
		<contour>
			<point x="85" y="0" type="line"/>
			<point x="160" y="0" type="line"/>
			<point x="160" y="632" type="line"/>
			<point x="451" y="632" type="line"/>
			<point x="451" y="607" type="line"/>
			<point x="266" y="448" type="line"/>
			<point x="266" y="363" type="line"/>
			<point x="385" y="292" type="line" smooth="yes"/>
			<point x="472" y="240"/>
			<point x="503" y="215"/>
			<point x="503" y="152" type="curve" smooth="yes"/>
			<point x="503" y="78"/>
			<point x="455" y="57"/>
			<point x="381" y="57" type="curve" smooth="yes"/>
			<point x="325" y="57"/>
			<point x="243" y="67"/>
			<point x="243" y="67" type="curve"/>
			<point x="241" y="1" type="line"/>
			<point x="241" y="1"/>
			<point x="321" y="-9"/>
			<point x="387" y="-9" type="curve" smooth="yes"/>
			<point x="507" y="-9"/>
			<point x="581" y="24"/>
			<point x="581" y="157" type="curve" smooth="yes"/>
			<point x="581" y="232"/>
			<point x="561" y="271"/>
			<point x="465" y="327" type="curve" smooth="yes"/>
			<point x="341" y="400" type="line"/>
			<point x="341" y="422" type="line"/>
			<point x="526" y="579" type="line"/>
			<point x="526" y="700" type="line"/>
			<point x="85" y="700" type="line"/>
		</contour>
	</outline>
</glyph>
<glyph name="endash" format="2">
  <advance width="616"/>
  <unicode hex="2013"/>
  <outline>
    <contour>
      <point x="58" y="318" type="line"/>
      <point x="58" y="252" type="line"/>
      <point x="558" y="252" type="line"/>
      <point x="558" y="318" type="line"/>
    </contour>
  </outline>
</glyph>
<glyph name="emdash" format="2">
	<advance width="1116"/>
	<unicode hex="2014"/>
	<outline>
		<contour>
			<point x="58" y="318" type="line"/>
			<point x="58" y="252" type="line"/>
			<point x="1058" y="252" type="line"/>
			<point x="1058" y="318" type="line"/>
		</contour>
	</outline>
</glyph>
<glyph name="dagger" format="2">
	<advance width="446"/>
	<unicode hex="2020"/>
	<outline>
		<contour>
			<point x="18" y="500" type="line"/>
			<point x="18" y="434" type="line"/>
			<point x="182" y="434" type="line"/>
			<point x="194" y="-230" type="line"/>
			<point x="252" y="-230" type="line"/>
			<point x="264" y="434" type="line"/>
			<point x="428" y="434" type="line"/>
			<point x="428" y="500" type="line"/>
			<point x="260" y="500" type="line"/>
			<point x="260" y="700" type="line"/>
			<point x="186" y="700" type="line"/>
			<point x="186" y="500" type="line"/>
		</contour>
	</outline>
</glyph>
<glyph name="daggerdbl" format="2">
	<advance width="512"/>
	<unicode hex="2021"/>
	<outline>
		<contour>
			<point x="51" y="500" type="line"/>
			<point x="51" y="434" type="line"/>
			<point x="219" y="434" type="line"/>
			<point x="219" y="36" type="line"/>
			<point x="51" y="36" type="line"/>
			<point x="51" y="-30" type="line"/>
			<point x="219" y="-30" type="line"/>
			<point x="219" y="-230" type="line"/>
			<point x="293" y="-230" type="line"/>
			<point x="293" y="-30" type="line"/>
			<point x="461" y="-30" type="line"/>
			<point x="461" y="36" type="line"/>
			<point x="293" y="36" type="line"/>
			<point x="293" y="434" type="line"/>
			<point x="461" y="434" type="line"/>
			<point x="461" y="500" type="line"/>
			<point x="293" y="500" type="line"/>
			<point x="293" y="700" type="line"/>
			<point x="219" y="700" type="line"/>
			<point x="219" y="500" type="line"/>
		</contour>
	</outline>
</glyph>
<glyph name="bullet" format="2">
  <advance width="428"/>
  <unicode hex="2022"/>
  <outline>
    <contour>
      <point x="89" y="425" type="line"/>
      <point x="89" y="145" type="line"/>
      <point x="339" y="145" type="line"/>
      <point x="339" y="425" type="line"/>
    </contour>
  </outline>
</glyph>
<glyph name="minute" format="2">
  <advance width="246"/>
  <unicode hex="2032"/>
  <outline>
    <contour>
      <point x="106" y="660" type="line"/>
      <point x="63" y="438" type="line"/>
      <point x="130" y="438" type="line"/>
      <point x="183" y="660" type="line"/>
    </contour>
  </outline>
</glyph>
<glyph name="second" format="2">
	<advance width="395"/>
	<unicode hex="2033"/>
	<outline>
		<contour>
			<point x="106" y="660" type="line"/>
			<point x="63" y="438" type="line"/>
			<point x="130" y="438" type="line"/>
			<point x="183" y="660" type="line"/>
		</contour>
		<contour>
			<point x="255" y="660" type="line"/>
			<point x="212" y="438" type="line"/>
			<point x="279" y="438" type="line"/>
			<point x="332" y="660" type="line"/>
		</contour>
	</outline>
</glyph>
<glyph name="guilsinglleft" format="2">
  <advance width="346"/>
  <unicode hex="2039"/>
  <outline>
    <contour>
      <point x="112" y="285" type="line"/>
      <point x="295" y="446" type="line"/>
      <point x="258" y="498" type="line"/>
      <point x="49" y="317" type="line"/>
      <point x="49" y="253" type="line"/>
      <point x="258" y="72" type="line"/>
      <point x="295" y="124" type="line"/>
    </contour>
  </outline>
</glyph>
<glyph name="fraction" format="2">
	<advance width="110"/>
	<unicode hex="2044"/>
	<outline>
		<contour>
			<point x="250" y="710" type="line"/>
			<point x="-181" y="16" type="line"/>
			<point x="-143" y="-10" type="line"/>
			<point x="290" y="683" type="line"/>
		</contour>
	</outline>
</glyph>
<glyph name="sheqel" format="2">
  <advance width="678"/>
  <unicode hex="20AA"/>
  <outline>
    <contour>
      <point x="106" y="660" type="line"/>
      <point x="106" y="596" type="line"/>
      <point x="204" y="596" type="line" smooth="yes"/>
      <point x="357" y="596"/>
      <point x="373" y="576"/>
      <point x="373" y="494" type="curve" smooth="yes"/>
      <point x="373" y="203" type="line"/>
      <point x="443" y="203" type="line"/>
      <point x="443" y="523" type="line" smooth="yes"/>
      <point x="443" y="624"/>
      <point x="385" y="660"/>
      <point x="208" y="660" type="curve" smooth="yes"/>
    </contour>
    <contour>
      <point x="85" y="660" type="line"/>
      <point x="85" y="0" type="line"/>
      <point x="159" y="0" type="line"/>
      <point x="159" y="660" type="line"/>
    </contour>
    <contour>
      <point x="256" y="0" type="line"/>
      <point x="358" y="0" type="line" smooth="yes"/>
      <point x="531" y="0"/>
      <point x="593" y="36"/>
      <point x="593" y="137" type="curve" smooth="yes"/>
      <point x="593" y="660" type="line"/>
      <point x="519" y="660" type="line"/>
      <point x="519" y="166" type="line" smooth="yes"/>
      <point x="519" y="84"/>
      <point x="503" y="64"/>
      <point x="354" y="64" type="curve" smooth="yes"/>
      <point x="256" y="64" type="line"/>
    </contour>
    <contour>
      <point x="305" y="0" type="line"/>
      <point x="305" y="457" type="line"/>
      <point x="235" y="457" type="line"/>
      <point x="235" y="0" type="line"/>
    </contour>
  </outline>
</glyph>
<glyph name="euro" format="2">
  <advance width="592"/>
  <unicode hex="20AC"/>
  <outline>
    <contour>
      <point x="55" y="439" type="line"/>
      <point x="55" y="378" type="line"/>
      <point x="115" y="378" type="line"/>
      <point x="114" y="362"/>
      <point x="114" y="345"/>
      <point x="114" y="328" type="curve" smooth="yes"/>
      <point x="114" y="312"/>
      <point x="114" y="297"/>
      <point x="115" y="283" type="curve"/>
      <point x="55" y="283" type="line"/>
      <point x="55" y="222" type="line"/>
      <point x="118" y="222" type="line"/>
      <point x="134" y="72"/>
      <point x="193" y="-10"/>
      <point x="356" y="-10" type="curve" smooth="yes"/>
      <point x="419" y="-10"/>
      <point x="491" y="1"/>
      <point x="538" y="11" type="curve"/>
      <point x="535" y="74" type="line"/>
      <point x="490" y="65"/>
      <point x="419" y="56"/>
      <point x="365" y="56" type="curve" smooth="yes"/>
      <point x="247" y="56"/>
      <point x="207" y="110"/>
      <point x="195" y="222" type="curve"/>
      <point x="482" y="222" type="line"/>
      <point x="482" y="283" type="line"/>
      <point x="191" y="283" type="line"/>
      <point x="191" y="298"/>
      <point x="191" y="313"/>
      <point x="191" y="328" type="curve" smooth="yes"/>
      <point x="191" y="345"/>
      <point x="191" y="362"/>
      <point x="192" y="378" type="curve"/>
      <point x="482" y="378" type="line"/>
      <point x="482" y="439" type="line"/>
      <point x="196" y="439" type="line"/>
      <point x="208" y="551"/>
      <point x="249" y="604"/>
      <point x="364" y="604" type="curve" smooth="yes"/>
      <point x="415" y="604"/>
      <point x="492" y="595"/>
      <point x="535" y="587" type="curve"/>
      <point x="538" y="649" type="line"/>
      <point x="496" y="658"/>
      <point x="424" y="670"/>
      <point x="356" y="670" type="curve" smooth="yes"/>
      <point x="193" y="670"/>
      <point x="134" y="591"/>
      <point x="119" y="439" type="curve"/>
    </contour>
  </outline>
</glyph>
<glyph name="hryvnia" format="2">
  <advance width="598"/>
  <unicode hex="20B4"/>
  <outline>
    <contour>
      <point x="487" y="434" type="line"/>
      <point x="488" y="444"/>
      <point x="489" y="456"/>
      <point x="489" y="468" type="curve" smooth="yes"/>
      <point x="489" y="621"/>
      <point x="406" y="670"/>
      <point x="287" y="670" type="curve" smooth="yes"/>
      <point x="198" y="670"/>
      <point x="107" y="645"/>
      <point x="107" y="645" type="curve"/>
      <point x="113" y="584" type="line"/>
      <point x="113" y="584"/>
      <point x="211" y="606"/>
      <point x="282" y="606" type="curve" smooth="yes"/>
      <point x="367" y="606"/>
      <point x="417" y="572"/>
      <point x="417" y="470" type="curve" smooth="yes"/>
      <point x="417" y="456"/>
      <point x="416" y="444"/>
      <point x="413" y="434" type="curve"/>
    </contour>
    <contour>
      <point x="538" y="449" type="line"/>
      <point x="59" y="449" type="line"/>
      <point x="59" y="389" type="line"/>
      <point x="538" y="389" type="line"/>
    </contour>
    <contour>
      <point x="538" y="274" type="line"/>
      <point x="59" y="274" type="line"/>
      <point x="59" y="214" type="line"/>
      <point x="538" y="214" type="line"/>
    </contour>
    <contour>
      <point x="113" y="234" type="line"/>
      <point x="112" y="227"/>
      <point x="112" y="220"/>
      <point x="112" y="212" type="curve" smooth="yes"/>
      <point x="112" y="47"/>
      <point x="191" y="-10"/>
      <point x="300" y="-10" type="curve" smooth="yes"/>
      <point x="371" y="-10"/>
      <point x="500" y="12"/>
      <point x="500" y="12" type="curve"/>
      <point x="493" y="73" type="line"/>
      <point x="493" y="73"/>
      <point x="365" y="54"/>
      <point x="304" y="54" type="curve" smooth="yes"/>
      <point x="232" y="54"/>
      <point x="184" y="96"/>
      <point x="184" y="206" type="curve" smooth="yes"/>
      <point x="184" y="216"/>
      <point x="185" y="226"/>
      <point x="186" y="234" type="curve"/>
    </contour>
  </outline>
</glyph>
<glyph name="rupeeIndian" format="2">
  <advance width="600"/>
  <unicode hex="20B9"/>
  <outline>
    <contour>
      <point x="60" y="660" type="line"/>
      <point x="60" y="596" type="line"/>
      <point x="265" y="596" type="line" smooth="yes"/>
      <point x="360" y="596"/>
      <point x="398" y="549"/>
      <point x="398" y="457" type="curve" smooth="yes"/>
      <point x="398" y="365"/>
      <point x="360" y="308"/>
      <point x="265" y="308" type="curve" smooth="yes"/>
      <point x="60" y="308" type="line"/>
      <point x="60" y="244" type="line"/>
      <point x="266" y="244" type="line" smooth="yes"/>
      <point x="408" y="244"/>
      <point x="474" y="324"/>
      <point x="474" y="457" type="curve" smooth="yes"/>
      <point x="474" y="591"/>
      <point x="408" y="660"/>
      <point x="266" y="660" type="curve" smooth="yes"/>
    </contour>
    <contour>
      <point x="551" y="484" type="line"/>
      <point x="60" y="484" type="line"/>
      <point x="60" y="420" type="line"/>
      <point x="551" y="420" type="line"/>
    </contour>
    <contour>
      <point x="551" y="660" type="line"/>
      <point x="60" y="660" type="line"/>
      <point x="60" y="596" type="line"/>
      <point x="551" y="596" type="line"/>
    </contour>
    <contour>
      <point x="501" y="0" type="line"/>
      <point x="167" y="249" type="line"/>
      <point x="60" y="244" type="line"/>
      <point x="385" y="0" type="line"/>
    </contour>
  </outline>
</glyph>
<glyph name="ruble" format="2">
	<advance width="617"/>
	<unicode hex="20BD"/>
	<outline>
		<contour>
			<point x="195" y="235" type="line"/>
			<point x="360" y="235" type="line" smooth="yes"/>
			<point x="502" y="235"/>
			<point x="568" y="315"/>
			<point x="568" y="453" type="curve" smooth="yes"/>
			<point x="568" y="591"/>
			<point x="502" y="660"/>
			<point x="360" y="660" type="curve" smooth="yes"/>
			<point x="121" y="660" type="line"/>
			<point x="121" y="0" type="line"/>
			<point x="195" y="0" type="line"/>
		</contour>
		<contour>
			<point x="359" y="299" type="curve" smooth="yes"/>
			<point x="195" y="299" type="line"/>
			<point x="195" y="596" type="line"/>
			<point x="359" y="596" type="line" smooth="yes"/>
			<point x="454" y="596"/>
			<point x="492" y="549"/>
			<point x="492" y="453" type="curve" smooth="yes"/>
			<point x="492" y="356"/>
			<point x="454" y="299"/>
		</contour>
		<contour>
			<point x="160" y="297" type="line"/>
			<point x="51" y="297" type="line"/>
			<point x="51" y="235" type="line"/>
			<point x="160" y="235" type="line"/>
		</contour>
		<contour>
			<point x="430" y="156" type="line"/>
			<point x="51" y="156" type="line"/>
			<point x="51" y="94" type="line"/>
			<point x="430" y="94" type="line"/>
		</contour>
	</outline>
</glyph>
<glyph name="trademark" format="2">
	<advance width="692"/>
	<unicode hex="2122"/>
	<outline>
		<contour>
			<point x="38" y="700" type="line"/>
			<point x="38" y="650" type="line"/>
			<point x="127" y="650" type="line"/>
			<point x="127" y="402" type="line"/>
			<point x="182" y="402" type="line"/>
			<point x="182" y="650" type="line"/>
			<point x="264" y="650" type="line"/>
			<point x="264" y="700" type="line"/>
		</contour>
		<contour>
			<point x="295" y="700" type="line"/>
			<point x="295" y="401" type="line"/>
			<point x="349" y="401" type="line"/>
			<point x="349" y="648" type="line"/>
			<point x="355" y="648" type="line"/>
			<point x="435" y="416" type="line"/>
			<point x="478" y="416" type="line"/>
			<point x="558" y="648" type="line"/>
			<point x="564" y="648" type="line"/>
			<point x="564" y="401" type="line"/>
			<point x="618" y="401" type="line"/>
			<point x="618" y="700" type="line"/>
			<point x="529" y="700" type="line"/>
			<point x="456" y="493" type="line"/>
			<point x="386" y="700" type="line"/>
		</contour>
	</outline>
</glyph>
<glyph name="estimated" format="2">
  <advance width="778"/>
  <unicode hex="212E"/>
  <outline>
    <contour>
      <point x="391" y="-14" type="curve" smooth="yes"/>
      <point x="524" y="-14"/>
      <point x="611" y="49"/>
      <point x="678" y="159" type="curve"/>
      <point x="650" y="177" type="line"/>
      <point x="591" y="78"/>
      <point x="508" y="18"/>
      <point x="391" y="18" type="curve" smooth="yes"/>
      <point x="325" y="18"/>
      <point x="253" y="37"/>
      <point x="203" y="83" type="curve"/>
      <point x="203" y="351" type="line"/>
      <point x="728" y="351" type="line"/>
      <point x="719" y="560"/>
      <point x="601" y="714"/>
      <point x="388" y="714" type="curve" smooth="yes"/>
      <point x="182" y="714"/>
      <point x="50" y="557"/>
      <point x="50" y="350" type="curve" smooth="yes"/>
      <point x="50" y="143"/>
      <point x="181" y="-14"/>
    </contour>
    <contour>
      <point x="203" y="385" type="line"/>
      <point x="203" y="619" type="line"/>
      <point x="253" y="660"/>
      <point x="315" y="682"/>
      <point x="388" y="682" type="curve" smooth="yes"/>
      <point x="460" y="682"/>
      <point x="524" y="660"/>
      <point x="576" y="619" type="curve"/>
      <point x="576" y="385" type="line"/>
    </contour>
  </outline>
</glyph>
<glyph name="upArrow" format="2">
  <advance width="552"/>
  <unicode hex="2191"/>
  <outline>
    <contour>
      <point x="276" y="710" type="line"/>
      <point x="23" y="458" type="line"/>
      <point x="74" y="407" type="line"/>
      <point x="277" y="613" type="line"/>
      <point x="275" y="613" type="line"/>
      <point x="478" y="407" type="line"/>
      <point x="529" y="458" type="line"/>
    </contour>
    <contour>
      <point x="310" y="634" type="line"/>
      <point x="242" y="634" type="line"/>
      <point x="238" y="495" type="line"/>
      <point x="238" y="0" type="line"/>
      <point x="314" y="0" type="line"/>
      <point x="314" y="495" type="line"/>
    </contour>
  </outline>
</glyph>
<glyph name="leftRightArrow" format="2">
	<advance width="845"/>
	<unicode hex="2194"/>
	<outline>
		<contour>
			<point x="798" y="348" type="line"/>
			<point x="546" y="601" type="line"/>
			<point x="495" y="550" type="line"/>
			<point x="662" y="385" type="line"/>
			<point x="422" y="384" type="line"/>
			<point x="183" y="385" type="line"/>
			<point x="350" y="550" type="line"/>
			<point x="299" y="601" type="line"/>
			<point x="47" y="348" type="line"/>
			<point x="299" y="95" type="line"/>
			<point x="350" y="146" type="line"/>
			<point x="183" y="311" type="line"/>
			<point x="422" y="312" type="line"/>
			<point x="662" y="311" type="line"/>
			<point x="495" y="146" type="line"/>
			<point x="546" y="95" type="line"/>
		</contour>
	</outline>
</glyph>
<glyph name="upDownArrow" format="2">
  <advance width="594"/>
  <unicode hex="2195"/>
  <outline>
    <contour>
      <point x="297" y="-28" type="line"/>
      <point x="550" y="224" type="line"/>
      <point x="499" y="275" type="line"/>
      <point x="334" y="108" type="line"/>
      <point x="333" y="348" type="line"/>
      <point x="334" y="587" type="line"/>
      <point x="499" y="420" type="line"/>
      <point x="550" y="471" type="line"/>
      <point x="297" y="723" type="line"/>
      <point x="44" y="471" type="line"/>
      <point x="95" y="420" type="line"/>
      <point x="260" y="587" type="line"/>
      <point x="261" y="348" type="line"/>
      <point x="260" y="108" type="line"/>
      <point x="95" y="275" type="line"/>
      <point x="44" y="224" type="line"/>
    </contour>
  </outline>
</glyph>
<glyph name="partialdiff" format="2">
	<advance width="587"/>
	<unicode hex="2202"/>
	<outline>
		<contour>
			<point x="188" y="708" type="curve"/>
			<point x="179" y="647" type="line"/>
			<point x="179" y="647"/>
			<point x="270" y="674"/>
			<point x="342" y="674" type="curve" smooth="yes"/>
			<point x="430" y="674"/>
			<point x="468" y="633"/>
			<point x="468" y="536" type="curve" smooth="yes"/>
			<point x="468" y="499"/>
			<point x="462" y="454"/>
			<point x="452" y="400" type="curve"/>
			<point x="452" y="400"/>
			<point x="374" y="430"/>
			<point x="285" y="430" type="curve" smooth="yes"/>
			<point x="130" y="430"/>
			<point x="30" y="331"/>
			<point x="30" y="183" type="curve" smooth="yes"/>
			<point x="30" y="62"/>
			<point x="103" y="-9"/>
			<point x="234" y="-9" type="curve" smooth="yes"/>
			<point x="406" y="-9"/>
			<point x="470" y="108"/>
			<point x="524" y="360" type="curve" smooth="yes"/>
			<point x="539" y="431"/>
			<point x="547" y="490"/>
			<point x="547" y="540" type="curve" smooth="yes"/>
			<point x="547" y="678"/>
			<point x="488" y="740"/>
			<point x="369" y="740" type="curve" smooth="yes"/>
			<point x="280" y="740"/>
			<point x="188" y="708"/>
		</contour>
		<contour>
			<point x="285" y="364" type="curve" smooth="yes"/>
			<point x="365" y="364"/>
			<point x="439" y="334"/>
			<point x="439" y="334" type="curve"/>
			<point x="398" y="147"/>
			<point x="341" y="57"/>
			<point x="230" y="57" type="curve" smooth="yes"/>
			<point x="155" y="57"/>
			<point x="111" y="99"/>
			<point x="111" y="185" type="curve" smooth="yes"/>
			<point x="111" y="303"/>
			<point x="179" y="364"/>
		</contour>
	</outline>
</glyph>
<glyph name="increment" format="2">
	<advance width="523"/>
	<unicode hex="2206"/>
	<outline>
		<contour>
			<point x="194" y="660" type="line"/>
			<point x="35" y="57" type="line"/>
			<point x="35" y="0" type="line"/>
			<point x="488" y="0" type="line"/>
			<point x="488" y="56" type="line"/>
			<point x="329" y="660" type="line"/>
		</contour>
		<contour>
			<point x="248" y="595" type="line"/>
			<point x="274" y="595" type="line"/>
			<point x="410" y="66" type="line"/>
			<point x="112" y="66" type="line"/>
		</contour>
	</outline>
</glyph>
<glyph name="product" format="2">
	<advance width="567"/>
	<unicode hex="220F"/>
	<outline>
		<contour>
			<point x="386" y="682" type="line"/>
			<point x="386" y="-163" type="line"/>
			<point x="463" y="-163" type="line"/>
			<point x="463" y="682" type="line"/>
			<point x="543" y="682" type="line"/>
			<point x="543" y="750" type="line"/>
			<point x="24" y="750" type="line"/>
			<point x="24" y="682" type="line"/>
			<point x="104" y="682" type="line"/>
			<point x="104" y="-163" type="line"/>
			<point x="180" y="-163" type="line"/>
			<point x="180" y="682" type="line"/>
		</contour>
	</outline>
</glyph>
<glyph name="summation" format="2">
  <advance width="552"/>
  <unicode hex="2211"/>
  <outline>
    <contour>
      <point x="46" y="651" type="line"/>
      <point x="313" y="308" type="line"/>
      <point x="36" y="-62" type="line"/>
      <point x="36" y="-163" type="line"/>
      <point x="516" y="-163" type="line"/>
      <point x="516" y="-94" type="line"/>
      <point x="116" y="-94" type="line"/>
      <point x="116" y="-69" type="line"/>
      <point x="383" y="279" type="line"/>
      <point x="383" y="334" type="line"/>
      <point x="126" y="660" type="line"/>
      <point x="126" y="682" type="line"/>
      <point x="516" y="682" type="line"/>
      <point x="516" y="750" type="line"/>
      <point x="46" y="750" type="line"/>
    </contour>
  </outline>
</glyph>
<glyph name="minus" format="2">
  <advance width="560"/>
  <unicode hex="2212"/>
  <outline>
    <contour>
      <point x="75" y="251" type="line"/>
      <point x="485" y="251" type="line"/>
      <point x="485" y="319" type="line"/>
      <point x="75" y="319" type="line"/>
    </contour>
  </outline>
</glyph>
<glyph name="radical" format="2">
  <advance width="634"/>
  <unicode hex="221A"/>
  <outline>
    <contour>
      <point x="47" y="446" type="line"/>
      <point x="47" y="378" type="line"/>
      <point x="106" y="378" type="line"/>
      <point x="256" y="-163" type="line"/>
      <point x="379" y="-163" type="line"/>
      <point x="611" y="750" type="line"/>
      <point x="534" y="750" type="line"/>
      <point x="323" y="-98" type="line"/>
      <point x="313" y="-98" type="line"/>
      <point x="169" y="446" type="line"/>
    </contour>
  </outline>
</glyph>
<glyph name="infinity" format="2">
  <advance width="614"/>
  <unicode hex="221E"/>
  <outline>
    <contour>
      <point x="182" y="114" type="curve" smooth="yes"/>
      <point x="245" y="114"/>
      <point x="276" y="138"/>
      <point x="307" y="218" type="curve"/>
      <point x="336" y="150"/>
      <point x="371" y="114"/>
      <point x="432" y="114" type="curve" smooth="yes"/>
      <point x="516" y="114"/>
      <point x="557" y="176"/>
      <point x="557" y="285" type="curve" smooth="yes"/>
      <point x="557" y="394"/>
      <point x="516" y="456"/>
      <point x="434" y="456" type="curve" smooth="yes"/>
      <point x="371" y="456"/>
      <point x="336" y="419"/>
      <point x="307" y="350" type="curve"/>
      <point x="278" y="419"/>
      <point x="242" y="456"/>
      <point x="180" y="456" type="curve" smooth="yes"/>
      <point x="98" y="456"/>
      <point x="57" y="394"/>
      <point x="57" y="285" type="curve" smooth="yes"/>
      <point x="57" y="176"/>
      <point x="98" y="114"/>
    </contour>
    <contour>
      <point x="280" y="285" type="curve"/>
      <point x="253" y="218"/>
      <point x="241" y="181"/>
      <point x="189" y="181" type="curve" smooth="yes"/>
      <point x="145" y="181"/>
      <point x="129" y="225"/>
      <point x="129" y="285" type="curve" smooth="yes"/>
      <point x="129" y="351"/>
      <point x="144" y="389"/>
      <point x="189" y="389" type="curve" smooth="yes"/>
      <point x="241" y="389"/>
      <point x="257" y="336"/>
    </contour>
    <contour>
      <point x="334" y="285" type="curve"/>
      <point x="357" y="336"/>
      <point x="373" y="389"/>
      <point x="425" y="389" type="curve" smooth="yes"/>
      <point x="470" y="389"/>
      <point x="485" y="351"/>
      <point x="485" y="285" type="curve" smooth="yes"/>
      <point x="485" y="219"/>
      <point x="469" y="181"/>
      <point x="425" y="181" type="curve" smooth="yes"/>
      <point x="373" y="181"/>
      <point x="357" y="234"/>
    </contour>
  </outline>
</glyph>
<glyph name="integral" format="2">
  <advance width="404"/>
  <unicode hex="222B"/>
  <outline>
    <contour>
      <point x="238" y="8" type="curve" smooth="yes"/>
      <point x="238" y="555" type="line" smooth="yes"/>
      <point x="238" y="659"/>
      <point x="263" y="692"/>
      <point x="313" y="692" type="curve" smooth="yes"/>
      <point x="349" y="692"/>
      <point x="387" y="687"/>
      <point x="387" y="687" type="curve"/>
      <point x="390" y="751" type="line"/>
      <point x="390" y="751"/>
      <point x="340" y="760"/>
      <point x="298" y="760" type="curve" smooth="yes"/>
      <point x="206" y="760"/>
      <point x="162" y="711"/>
      <point x="162" y="556" type="curve" smooth="yes"/>
      <point x="162" y="9" type="line" smooth="yes"/>
      <point x="162" y="-77"/>
      <point x="142" y="-105"/>
      <point x="86" y="-105" type="curve" smooth="yes"/>
      <point x="56" y="-105"/>
      <point x="17" y="-101"/>
      <point x="17" y="-101" type="curve"/>
      <point x="14" y="-165" type="line"/>
      <point x="14" y="-165"/>
      <point x="66" y="-173"/>
      <point x="102" y="-173" type="curve" smooth="yes"/>
      <point x="190" y="-173"/>
      <point x="238" y="-130"/>
    </contour>
  </outline>
</glyph>
<glyph name="notequal" format="2">
	<advance width="560"/>
	<unicode hex="2260"/>
	<outline>
		<contour>
			<point x="353" y="558" type="line"/>
			<point x="152" y="30" type="line"/>
			<point x="207" y="12" type="line"/>
			<point x="408" y="540" type="line"/>
		</contour>
		<component base="equal"/>
	</outline>
</glyph>
<glyph name="greaterequal" format="2">
	<advance width="560"/>
	<unicode hex="2265"/>
	<outline>
		<contour>
			<point x="399" y="345" type="line"/>
			<point x="70" y="232" type="line"/>
			<point x="70" y="160" type="line"/>
			<point x="493" y="310" type="line"/>
			<point x="493" y="380" type="line"/>
			<point x="70" y="530" type="line"/>
			<point x="70" y="458" type="line"/>
		</contour>
		<contour>
			<point x="493" y="40" type="line"/>
			<point x="493" y="108" type="line"/>
			<point x="70" y="108" type="line"/>
			<point x="70" y="40" type="line"/>
		</contour>
	</outline>
</glyph>
<glyph name="lozenge" format="2">
  <advance width="584"/>
  <unicode hex="25CA"/>
  <outline>
    <contour>
      <point x="246" y="660" type="line"/>
      <point x="47" y="332" type="line"/>
      <point x="246" y="0" type="line"/>
      <point x="337" y="0" type="line"/>
      <point x="537" y="332" type="line"/>
      <point x="337" y="660" type="line"/>
    </contour>
    <contour>
      <point x="304" y="571" type="line"/>
      <point x="445" y="332" type="line"/>
      <point x="304" y="89" type="line"/>
      <point x="279" y="89" type="line"/>
      <point x="139" y="332" type="line"/>
      <point x="279" y="571" type="line"/>
    </contour>
  </outline>
</glyph>
<glyph name="whiteCircle" format="2">
  <advance width="899"/>
  <unicode hex="25CB"/>
  <outline>
    <contour>
      <point x="450" y="-40" type="curve" smooth="yes"/>
      <point x="675" y="-40"/>
      <point x="846" y="130"/>
      <point x="846" y="349" type="curve" smooth="yes"/>
      <point x="846" y="568"/>
      <point x="675" y="740"/>
      <point x="450" y="740" type="curve" smooth="yes"/>
      <point x="223" y="740"/>
      <point x="53" y="568"/>
      <point x="53" y="349" type="curve" smooth="yes"/>
      <point x="53" y="130"/>
      <point x="223" y="-40"/>
    </contour>
    <contour>
      <point x="450" y="32" type="curve" smooth="yes"/>
      <point x="263" y="32"/>
      <point x="127" y="170"/>
      <point x="127" y="349" type="curve" smooth="yes"/>
      <point x="127" y="528"/>
      <point x="263" y="668"/>
      <point x="450" y="668" type="curve" smooth="yes"/>
      <point x="635" y="668"/>
      <point x="772" y="528"/>
      <point x="772" y="349" type="curve" smooth="yes"/>
      <point x="772" y="170"/>
      <point x="635" y="32"/>
    </contour>
  </outline>
</glyph>
<glyph name="dottedCircle" format="2">
  <advance width="885"/>
  <unicode hex="25CC"/>
  <outline>
    <contour>
      <point x="580" y="639" type="curve"/>
      <point x="608" y="706" type="line"/>
      <point x="563" y="726"/>
      <point x="513" y="738"/>
      <point x="459" y="740" type="curve"/>
      <point x="459" y="668" type="line"/>
      <point x="503" y="666"/>
      <point x="543" y="656"/>
    </contour>
    <contour>
      <point x="745" y="459" type="curve"/>
      <point x="813" y="487" type="line"/>
      <point x="795" y="536"/>
      <point x="767" y="581"/>
      <point x="732" y="618" type="curve"/>
      <point x="681" y="566" type="line"/>
      <point x="709" y="536"/>
      <point x="731" y="499"/>
    </contour>
    <contour>
      <point x="735" y="213" type="curve"/>
      <point x="803" y="185" type="line"/>
      <point x="824" y="231"/>
      <point x="836" y="282"/>
      <point x="838" y="336" type="curve"/>
      <point x="764" y="336" type="line"/>
      <point x="762" y="292"/>
      <point x="752" y="250"/>
    </contour>
    <contour>
      <point x="551" y="49" type="curve"/>
      <point x="579" y="-18" type="line"/>
      <point x="629" y="0"/>
      <point x="674" y="26"/>
      <point x="711" y="60" type="curve"/>
      <point x="660" y="112" type="line"/>
      <point x="629" y="85"/>
      <point x="592" y="63"/>
    </contour>
    <contour>
      <point x="305" y="59" type="curve"/>
      <point x="277" y="-7" type="line"/>
      <point x="323" y="-27"/>
      <point x="374" y="-38"/>
      <point x="428" y="-40" type="curve"/>
      <point x="428" y="32" type="line"/>
      <point x="383" y="34"/>
      <point x="342" y="43"/>
    </contour>
    <contour>
      <point x="137" y="241" type="curve"/>
      <point x="68" y="213" type="line"/>
      <point x="86" y="163"/>
      <point x="114" y="118"/>
      <point x="150" y="81" type="curve"/>
      <point x="202" y="132" type="line"/>
      <point x="173" y="163"/>
      <point x="151" y="200"/>
    </contour>
    <contour>
      <point x="150" y="489" type="curve"/>
      <point x="81" y="517" type="line"/>
      <point x="60" y="471"/>
      <point x="47" y="420"/>
      <point x="45" y="366" type="curve"/>
      <point x="119" y="366" type="line"/>
      <point x="121" y="410"/>
      <point x="132" y="452"/>
    </contour>
    <contour>
      <point x="336" y="652" type="curve"/>
      <point x="308" y="719" type="line"/>
      <point x="258" y="702"/>
      <point x="213" y="676"/>
      <point x="175" y="642" type="curve"/>
      <point x="226" y="590" type="line"/>
      <point x="257" y="617"/>
      <point x="294" y="638"/>
    </contour>
  </outline>
</glyph>
<glyph name="blackCircle" format="2">
	<advance width="899"/>
	<unicode hex="25CF"/>
	<outline>
		<contour>
			<point x="450" y="-40" type="curve" smooth="yes"/>
			<point x="223" y="-40"/>
			<point x="53" y="130"/>
			<point x="53" y="349" type="curve" smooth="yes"/>
			<point x="53" y="568"/>
			<point x="223" y="740"/>
			<point x="450" y="740" type="curve" smooth="yes"/>
			<point x="675" y="740"/>
			<point x="846" y="568"/>
			<point x="846" y="349" type="curve" smooth="yes"/>
			<point x="846" y="130"/>
			<point x="675" y="-40"/>
		</contour>
	</outline>
</glyph>
<glyph name="A.ss06" format="2">
  <advance width="1222"/>
  <note>
A
</note>
  <outline>
    <contour>
      <point x="44" y="904" type="line"/>
      <point x="1178" y="904" type="line"/>
      <point x="1178" y="-230" type="line"/>
      <point x="44" y="-230" type="line"/>
    </contour>
    <contour>
      <point x="623" y="626" type="line"/>
      <point x="733" y="255" type="line"/>
      <point x="483" y="255" type="line"/>
      <point x="593" y="626" type="line"/>
    </contour>
    <contour>
      <point x="334" y="0" type="line"/>
      <point x="408" y="0" type="line"/>
      <point x="463" y="187" type="line"/>
      <point x="753" y="187" type="line"/>
      <point x="808" y="0" type="line"/>
      <point x="888" y="0" type="line"/>
      <point x="680" y="700" type="line"/>
      <point x="542" y="700" type="line"/>
    </contour>
  </outline>
</glyph>
<glyph name="B.ss06" format="2">
	<advance width="1222"/>
	<note>
		B
	</note>
	<outline>
		<contour>
			<point x="44" y="904" type="line"/>
			<point x="1178" y="904" type="line"/>
			<point x="1178" y="-230" type="line"/>
			<point x="44" y="-230" type="line"/>
		</contour>
		<contour>
			<point x="636" y="700" type="curve" smooth="yes"/>
			<point x="385" y="700" type="line"/>
			<point x="385" y="0" type="line"/>
			<point x="649" y="0" type="line" smooth="yes"/>
			<point x="779" y="0"/>
			<point x="871" y="55"/>
			<point x="871" y="195" type="curve" smooth="yes"/>
			<point x="871" y="306"/>
			<point x="814" y="340"/>
			<point x="753" y="361" type="curve"/>
			<point x="809" y="387"/>
			<point x="844" y="431"/>
			<point x="844" y="519" type="curve" smooth="yes"/>
			<point x="844" y="647"/>
			<point x="771" y="700"/>
		</contour>
		<contour>
			<point x="463" y="325" type="line"/>
			<point x="641" y="325" type="line" smooth="yes"/>
			<point x="724" y="325"/>
			<point x="789" y="291"/>
			<point x="789" y="192" type="curve" smooth="yes"/>
			<point x="789" y="97"/>
			<point x="730" y="68"/>
			<point x="646" y="68" type="curve" smooth="yes"/>
			<point x="463" y="68" type="line"/>
		</contour>
		<contour>
			<point x="463" y="632" type="line"/>
			<point x="633" y="632" type="line" smooth="yes"/>
			<point x="721" y="632"/>
			<point x="764" y="598"/>
			<point x="764" y="512" type="curve" smooth="yes"/>
			<point x="764" y="431"/>
			<point x="727" y="391"/>
			<point x="640" y="391" type="curve" smooth="yes"/>
			<point x="463" y="391" type="line"/>
		</contour>
	</outline>
</glyph>
<glyph name="C.ss06" format="2">
  <advance width="1222"/>
  <note>
C
</note>
  <outline>
    <contour>
      <point x="44" y="904" type="line"/>
      <point x="1178" y="904" type="line"/>
      <point x="1178" y="-230" type="line"/>
      <point x="44" y="-230" type="line"/>
    </contour>
    <contour>
      <point x="817" y="11" type="curve"/>
      <point x="814" y="77" type="line"/>
      <point x="766" y="68"/>
      <point x="688" y="59"/>
      <point x="633" y="59" type="curve" smooth="yes"/>
      <point x="471" y="59"/>
      <point x="450" y="163"/>
      <point x="450" y="344" type="curve" smooth="yes"/>
      <point x="450" y="561"/>
      <point x="480" y="641"/>
      <point x="628" y="641" type="curve" smooth="yes"/>
      <point x="688" y="641"/>
      <point x="766" y="627"/>
      <point x="811" y="617" type="curve"/>
      <point x="814" y="682" type="line"/>
      <point x="770" y="693"/>
      <point x="697" y="710"/>
      <point x="620" y="710" type="curve" smooth="yes"/>
      <point x="418" y="710"/>
      <point x="370" y="583"/>
      <point x="370" y="344" type="curve" smooth="yes"/>
      <point x="370" y="113"/>
      <point x="415" y="-10"/>
      <point x="626" y="-10" type="curve" smooth="yes"/>
      <point x="691" y="-10"/>
      <point x="768" y="1"/>
    </contour>
  </outline>
</glyph>
<glyph name="D.ss06" format="2">
  <advance width="1222"/>
  <note>
D
</note>
  <outline>
    <contour>
      <point x="44" y="904" type="line"/>
      <point x="1178" y="904" type="line"/>
      <point x="1178" y="-230" type="line"/>
      <point x="44" y="-230" type="line"/>
    </contour>
    <contour>
      <point x="376" y="0" type="line"/>
      <point x="623" y="0" type="line" smooth="yes"/>
      <point x="827" y="0"/>
      <point x="879" y="161"/>
      <point x="879" y="360" type="curve" smooth="yes"/>
      <point x="879" y="563"/>
      <point x="824" y="700"/>
      <point x="623" y="700" type="curve" smooth="yes"/>
      <point x="376" y="700" type="line"/>
    </contour>
    <contour>
      <point x="799" y="360" type="curve" smooth="yes"/>
      <point x="799" y="206"/>
      <point x="767" y="68"/>
      <point x="623" y="68" type="curve" smooth="yes"/>
      <point x="454" y="68" type="line"/>
      <point x="454" y="632" type="line"/>
      <point x="623" y="632" type="line" smooth="yes"/>
      <point x="767" y="632"/>
      <point x="799" y="514"/>
    </contour>
  </outline>
</glyph>
<glyph name="E.ss06" format="2">
  <advance width="1222"/>
  <note>
E
</note>
  <outline>
    <contour>
      <point x="44" y="904" type="line"/>
      <point x="1178" y="904" type="line"/>
      <point x="1178" y="-230" type="line"/>
      <point x="44" y="-230" type="line"/>
    </contour>
    <contour>
      <point x="408" y="700" type="line"/>
      <point x="408" y="0" type="line"/>
      <point x="829" y="0" type="line"/>
      <point x="829" y="68" type="line"/>
      <point x="486" y="68" type="line"/>
      <point x="486" y="323" type="line"/>
      <point x="769" y="323" type="line"/>
      <point x="769" y="389" type="line"/>
      <point x="486" y="389" type="line"/>
      <point x="486" y="632" type="line"/>
      <point x="829" y="632" type="line"/>
      <point x="829" y="700" type="line"/>
    </contour>
  </outline>
</glyph>
<glyph name="G.ss06" format="2">
  <advance width="1222"/>
  <note>
G
</note>
  <outline>
    <contour>
      <point x="44" y="904" type="line"/>
      <point x="1178" y="904" type="line"/>
      <point x="1178" y="-230" type="line"/>
      <point x="44" y="-230" type="line"/>
    </contour>
    <contour>
      <point x="657" y="354" type="line"/>
      <point x="657" y="286" type="line"/>
      <point x="772" y="286" type="line"/>
      <point x="772" y="73" type="line"/>
      <point x="746" y="68"/>
      <point x="669" y="59"/>
      <point x="619" y="59" type="curve" smooth="yes"/>
      <point x="459" y="59"/>
      <point x="435" y="153"/>
      <point x="435" y="344" type="curve" smooth="yes"/>
      <point x="435" y="540"/>
      <point x="453" y="641"/>
      <point x="613" y="641" type="curve" smooth="yes"/>
      <point x="704" y="641"/>
      <point x="845" y="614"/>
      <point x="845" y="614" type="curve"/>
      <point x="848" y="678" type="line"/>
      <point x="848" y="678"/>
      <point x="711" y="710"/>
      <point x="606" y="710" type="curve" smooth="yes"/>
      <point x="398" y="710"/>
      <point x="355" y="574"/>
      <point x="355" y="344" type="curve" smooth="yes"/>
      <point x="355" y="113"/>
      <point x="401" y="-10"/>
      <point x="613" y="-10" type="curve" smooth="yes"/>
      <point x="689" y="-10"/>
      <point x="827" y="10"/>
      <point x="848" y="14" type="curve"/>
      <point x="848" y="354" type="line"/>
    </contour>
  </outline>
</glyph>
<glyph name="H.ss06" format="2">
	<advance width="1222"/>
	<note>
		H
	</note>
	<outline>
		<contour>
			<point x="44" y="904" type="line"/>
			<point x="1178" y="904" type="line"/>
			<point x="1178" y="-230" type="line"/>
			<point x="44" y="-230" type="line"/>
		</contour>
		<contour>
			<point x="785" y="321" type="line"/>
			<point x="785" y="0" type="line"/>
			<point x="863" y="0" type="line"/>
			<point x="863" y="700" type="line"/>
			<point x="785" y="700" type="line"/>
			<point x="785" y="391" type="line"/>
			<point x="436" y="391" type="line"/>
			<point x="436" y="700" type="line"/>
			<point x="358" y="700" type="line"/>
			<point x="358" y="0" type="line"/>
			<point x="436" y="0" type="line"/>
			<point x="436" y="321" type="line"/>
		</contour>
	</outline>
</glyph>
<glyph name="I.ss06" format="2">
  <advance width="1222"/>
  <note>
I
</note>
  <outline>
    <contour>
      <point x="44" y="904" type="line"/>
      <point x="1178" y="904" type="line"/>
      <point x="1178" y="-230" type="line"/>
      <point x="44" y="-230" type="line"/>
    </contour>
    <contour>
      <point x="572" y="700" type="line"/>
      <point x="572" y="0" type="line"/>
      <point x="650" y="0" type="line"/>
      <point x="650" y="700" type="line"/>
    </contour>
  </outline>
</glyph>
<glyph name="J.ss06" format="2">
	<advance width="1222"/>
	<note>
		J
	</note>
	<outline>
		<contour>
			<point x="44" y="904" type="line"/>
			<point x="1178" y="904" type="line"/>
			<point x="1178" y="-230" type="line"/>
			<point x="44" y="-230" type="line"/>
		</contour>
		<contour>
			<point x="677" y="160" type="curve" smooth="yes"/>
			<point x="676" y="700" type="line"/>
			<point x="599" y="700" type="line"/>
			<point x="599" y="162" type="line" smooth="yes"/>
			<point x="599" y="68"/>
			<point x="577" y="63"/>
			<point x="486" y="63" type="curve"/>
			<point x="486" y="-7" type="line"/>
			<point x="618" y="-7"/>
			<point x="677" y="10"/>
		</contour>
	</outline>
</glyph>
<glyph name="K.ss06" format="2">
  <advance width="1222"/>
  <note>
K
</note>
  <outline>
    <contour>
      <point x="44" y="904" type="line"/>
      <point x="1178" y="904" type="line"/>
      <point x="1178" y="-230" type="line"/>
      <point x="44" y="-230" type="line"/>
    </contour>
    <contour>
      <point x="610" y="312" type="line"/>
      <point x="794" y="0" type="line"/>
      <point x="885" y="0" type="line"/>
      <point x="676" y="350" type="line"/>
      <point x="874" y="700" type="line"/>
      <point x="786" y="700" type="line"/>
      <point x="609" y="380" type="line"/>
      <point x="496" y="376" type="line"/>
      <point x="496" y="700" type="line"/>
      <point x="418" y="700" type="line"/>
      <point x="418" y="0" type="line"/>
      <point x="496" y="0" type="line"/>
      <point x="496" y="308" type="line"/>
    </contour>
  </outline>
</glyph>
<glyph name="L.ss06" format="2">
  <advance width="1222"/>
  <note>
L
</note>
  <outline>
    <contour>
      <point x="44" y="904" type="line"/>
      <point x="1178" y="904" type="line"/>
      <point x="1178" y="-230" type="line"/>
      <point x="44" y="-230" type="line"/>
    </contour>
    <contour>
      <point x="430" y="0" type="line"/>
      <point x="811" y="0" type="line"/>
      <point x="811" y="70" type="line"/>
      <point x="508" y="70" type="line"/>
      <point x="508" y="700" type="line"/>
      <point x="430" y="700" type="line"/>
    </contour>
  </outline>
</glyph>
<glyph name="Lslashcomb" format="2">
	<advance width="326"/>
	<anchor x="122" y="368" name="_center"/>
	<outline>
		<contour>
			<point x="122" y="340" type="line"/>
			<point x="122" y="405" type="line"/>
			<point x="0" y="363" type="line"/>
			<point x="0" y="297" type="line"/>
		</contour>
		<contour>
			<point x="132" y="402" type="line"/>
			<point x="132" y="335" type="line"/>
			<point x="326" y="403" type="line"/>
			<point x="326" y="469" type="line"/>
		</contour>
	</outline>
</glyph>
<glyph name="M.ss03" format="2">
	<advance width="1256"/>
	<note>
		M
	</note>
	<outline>
		<contour>
			<point x="314" y="700" type="line"/>
			<point x="314" y="0" type="line"/>
			<point x="388" y="0" type="line"/>
			<point x="388" y="626" type="line"/>
			<point x="418" y="626" type="line"/>
			<point x="579" y="0" type="line"/>
			<point x="667" y="0" type="line"/>
			<point x="834" y="626" type="line"/>
			<point x="864" y="626" type="line"/>
			<point x="864" y="0" type="line"/>
			<point x="942" y="0" type="line"/>
			<point x="942" y="700" type="line"/>
			<point x="786" y="700" type="line"/>
			<point x="613" y="39" type="line"/>
			<point x="638" y="39" type="line"/>
			<point x="472" y="700" type="line"/>
		</contour>
		<component base="_sferiliumstroke" xOffset="-2"/>
	</outline>
</glyph>
<glyph name="M.ss06" format="2">
  <advance width="1222"/>
  <note>
M
</note>
  <outline>
    <contour>
      <point x="44" y="904" type="line"/>
      <point x="1178" y="904" type="line"/>
      <point x="1178" y="-230" type="line"/>
      <point x="44" y="-230" type="line"/>
    </contour>
    <contour>
      <point x="277" y="700" type="line"/>
      <point x="277" y="0" type="line"/>
      <point x="351" y="0" type="line"/>
      <point x="351" y="626" type="line"/>
      <point x="381" y="626" type="line"/>
      <point x="562" y="0" type="line"/>
      <point x="650" y="0" type="line"/>
      <point x="837" y="626" type="line"/>
      <point x="867" y="626" type="line"/>
      <point x="867" y="0" type="line"/>
      <point x="945" y="0" type="line"/>
      <point x="945" y="700" type="line"/>
      <point x="789" y="700" type="line"/>
      <point x="609" y="83" type="line"/>
      <point x="435" y="700" type="line"/>
    </contour>
  </outline>
</glyph>
<glyph name="N.ss06" format="2">
	<advance width="1222"/>
	<note>
		N
	</note>
	<outline>
		<contour>
			<point x="44" y="904" type="line"/>
			<point x="1178" y="904" type="line"/>
			<point x="1178" y="-230" type="line"/>
			<point x="44" y="-230" type="line"/>
		</contour>
		<contour>
			<point x="356" y="700" type="line"/>
			<point x="356" y="0" type="line"/>
			<point x="434" y="0" type="line"/>
			<point x="434" y="626" type="line"/>
			<point x="464" y="626" type="line"/>
			<point x="706" y="0" type="line"/>
			<point x="865" y="0" type="line"/>
			<point x="865" y="700" type="line"/>
			<point x="787" y="700" type="line"/>
			<point x="787" y="74" type="line"/>
			<point x="757" y="74" type="line"/>
			<point x="515" y="700" type="line"/>
		</contour>
	</outline>
</glyph>
<glyph name="O.ss06" format="2">
	<advance width="1222"/>
	<note>
		O
	</note>
	<outline>
		<contour>
			<point x="44" y="904" type="line"/>
			<point x="1178" y="904" type="line"/>
			<point x="1178" y="-230" type="line"/>
			<point x="44" y="-230" type="line"/>
		</contour>
		<contour>
			<point x="610" y="59" type="curve" smooth="yes"/>
			<point x="450" y="59"/>
			<point x="417" y="158"/>
			<point x="417" y="345" type="curve" smooth="yes"/>
			<point x="417" y="535"/>
			<point x="451" y="641"/>
			<point x="610" y="641" type="curve" smooth="yes"/>
			<point x="768" y="641"/>
			<point x="804" y="534"/>
			<point x="804" y="345" type="curve" smooth="yes"/>
			<point x="804" y="152"/>
			<point x="771" y="59"/>
		</contour>
		<contour>
			<point x="610" y="-10" type="curve" smooth="yes"/>
			<point x="825" y="-10"/>
			<point x="884" y="109"/>
			<point x="884" y="345" type="curve" smooth="yes"/>
			<point x="884" y="577"/>
			<point x="824" y="710"/>
			<point x="610" y="710" type="curve" smooth="yes"/>
			<point x="396" y="710"/>
			<point x="337" y="575"/>
			<point x="337" y="345" type="curve" smooth="yes"/>
			<point x="337" y="115"/>
			<point x="395" y="-10"/>
		</contour>
	</outline>
</glyph>
<glyph name="P.ss06" format="2">
  <advance width="1222"/>
  <note>
P
</note>
  <outline>
    <contour>
      <point x="44" y="904" type="line"/>
      <point x="1178" y="904" type="line"/>
      <point x="1178" y="-230" type="line"/>
      <point x="44" y="-230" type="line"/>
    </contour>
    <contour>
      <point x="481" y="233" type="line"/>
      <point x="656" y="233" type="line" smooth="yes"/>
      <point x="807" y="233"/>
      <point x="877" y="318"/>
      <point x="877" y="473" type="curve" smooth="yes"/>
      <point x="877" y="627"/>
      <point x="807" y="700"/>
      <point x="656" y="700" type="curve" smooth="yes"/>
      <point x="403" y="700" type="line"/>
      <point x="403" y="0" type="line"/>
      <point x="481" y="0" type="line"/>
    </contour>
    <contour>
      <point x="655" y="301" type="curve" smooth="yes"/>
      <point x="481" y="301" type="line"/>
      <point x="481" y="632" type="line"/>
      <point x="655" y="632" type="line" smooth="yes"/>
      <point x="756" y="632"/>
      <point x="797" y="583"/>
      <point x="797" y="473" type="curve" smooth="yes"/>
      <point x="797" y="362"/>
      <point x="756" y="301"/>
    </contour>
  </outline>
</glyph>
<glyph name="Q.ss03" format="2">
  <advance width="1256"/>
  <note>
Q
</note>
  <outline>
    <contour>
      <point x="625" y="59" type="curve" smooth="yes"/>
      <point x="465" y="59"/>
      <point x="432" y="158"/>
      <point x="432" y="345" type="curve" smooth="yes"/>
      <point x="432" y="535"/>
      <point x="466" y="641"/>
      <point x="625" y="641" type="curve" smooth="yes"/>
      <point x="783" y="641"/>
      <point x="819" y="534"/>
      <point x="819" y="345" type="curve" smooth="yes"/>
      <point x="819" y="152"/>
      <point x="786" y="59"/>
    </contour>
    <contour>
      <point x="352" y="345" type="curve" smooth="yes"/>
      <point x="352" y="115"/>
      <point x="410" y="-10"/>
      <point x="625" y="-10" type="curve" smooth="yes"/>
      <point x="657" y="-10"/>
      <point x="686" y="-7"/>
      <point x="712" y="-2" type="curve"/>
      <point x="791" y="-139" type="line"/>
      <point x="856" y="-98" type="line"/>
      <point x="786" y="26" type="line"/>
      <point x="871" y="77"/>
      <point x="899" y="184"/>
      <point x="899" y="345" type="curve" smooth="yes"/>
      <point x="899" y="577"/>
      <point x="839" y="710"/>
      <point x="625" y="710" type="curve" smooth="yes"/>
      <point x="411" y="710"/>
      <point x="352" y="575"/>
    </contour>
    <component base="_sferiliumstroke" xOffset="-2"/>
  </outline>
</glyph>
<glyph name="Q.ss06" format="2">
  <advance width="1222"/>
  <note>
Q
</note>
  <outline>
    <contour>
      <point x="44" y="904" type="line"/>
      <point x="1178" y="904" type="line"/>
      <point x="1178" y="-230" type="line"/>
      <point x="44" y="-230" type="line"/>
    </contour>
    <contour>
      <point x="610" y="59" type="curve" smooth="yes"/>
      <point x="450" y="59"/>
      <point x="417" y="158"/>
      <point x="417" y="345" type="curve" smooth="yes"/>
      <point x="417" y="535"/>
      <point x="451" y="641"/>
      <point x="610" y="641" type="curve" smooth="yes"/>
      <point x="768" y="641"/>
      <point x="804" y="534"/>
      <point x="804" y="345" type="curve" smooth="yes"/>
      <point x="804" y="152"/>
      <point x="771" y="59"/>
    </contour>
    <contour>
      <point x="337" y="345" type="curve" smooth="yes"/>
      <point x="337" y="115"/>
      <point x="395" y="-10"/>
      <point x="610" y="-10" type="curve" smooth="yes"/>
      <point x="642" y="-10"/>
      <point x="671" y="-7"/>
      <point x="697" y="-2" type="curve"/>
      <point x="763" y="-116" type="line"/>
      <point x="828" y="-75" type="line"/>
      <point x="770" y="26" type="line"/>
      <point x="856" y="77"/>
      <point x="884" y="184"/>
      <point x="884" y="345" type="curve" smooth="yes"/>
      <point x="884" y="577"/>
      <point x="824" y="710"/>
      <point x="610" y="710" type="curve" smooth="yes"/>
      <point x="396" y="710"/>
      <point x="337" y="575"/>
    </contour>
  </outline>
</glyph>
<glyph name="R.ss06" format="2">
	<advance width="1222"/>
	<note>
		R
	</note>
	<outline>
		<contour>
			<point x="44" y="904" type="line"/>
			<point x="1178" y="904" type="line"/>
			<point x="1178" y="-230" type="line"/>
			<point x="44" y="-230" type="line"/>
		</contour>
		<contour>
			<point x="771" y="487" type="curve" smooth="yes"/>
			<point x="771" y="395"/>
			<point x="735" y="333"/>
			<point x="631" y="333" type="curve" smooth="yes"/>
			<point x="452" y="333" type="line"/>
			<point x="452" y="632" type="line"/>
			<point x="630" y="632" type="line" smooth="yes"/>
			<point x="727" y="632"/>
			<point x="771" y="585"/>
		</contour>
		<contour>
			<point x="452" y="265" type="line"/>
			<point x="647" y="265" type="line"/>
			<point x="772" y="0" type="line"/>
			<point x="857" y="0" type="line"/>
			<point x="724" y="281" type="line"/>
			<point x="811" y="309"/>
			<point x="851" y="380"/>
			<point x="851" y="487" type="curve" smooth="yes"/>
			<point x="851" y="636"/>
			<point x="775" y="700"/>
			<point x="630" y="700" type="curve" smooth="yes"/>
			<point x="374" y="700" type="line"/>
			<point x="374" y="0" type="line"/>
			<point x="452" y="0" type="line"/>
		</contour>
	</outline>
</glyph>
